<?xml version="1.0" encoding="UTF-8"?>
<!DOCTYPE svg PUBLIC "-//W3C//DTD SVG 1.1//EN" "http://www.w3.org/Graphics/SVG/1.1/DTD/svg11.dtd">
<!-- Creator: CorelDRAW 2018 (64-Bit) -->
<svg xmlns="http://www.w3.org/2000/svg" xml:space="preserve" width="76.7292mm" height="76.7292mm" version="1.1" style="shape-rendering:geometricPrecision; text-rendering:geometricPrecision; image-rendering:optimizeQuality; fill-rule:evenodd; clip-rule:evenodd"
viewBox="0 0 7672.92 7672.92"
 xmlns:xlink="http://www.w3.org/1999/xlink">
 <defs>
  <style type="text/css">
   <![CDATA[
    .str0 {stroke:#34675C;stroke-width:26.46;stroke-miterlimit:22.9256}
    .fil1 {fill:none}
    .fil3 {fill:#34675C}
    .fil2 {fill:#7DA3A1}
    .fil0 {fill:#86AC41}
   ]]>
  </style>
 </defs>
 <g id="Слой_x0020_1">
  <metadata id="CorelCorpID_0Corel-Layer"/>
  <path class="fil0 str0" d="M4837.93 2351.01c-132,-51.33 -281.59,-94.11 -378.38,-153.99 -96.78,-59.9 -219.97,-77.02 -299.16,-77.02 -79.19,0 -308,0 -387.19,25.69 -79.19,25.67 -175.98,42.76 -175.98,42.76 0,0 92.4,47.07 193.6,85.57 101.18,38.49 189.18,64.18 299.16,94.11 109.99,29.95 237.57,42.78 360.79,42.78 123.19,0 149.57,8.57 237.57,-8.54 88,-17.12 149.59,-51.36 149.59,-51.36z"/>
  <path class="fil0 str0" d="M4196.24 1794.09c-51.49,-8.57 -171.61,-25.75 -326.07,8.6 -154.44,34.31 -171.61,25.72 -223.1,42.89 -51.49,17.17 -94.38,25.74 -137.29,85.8 -42.89,60.06 -150.15,227.38 -180.18,266.01 -101.5,130.5 23.18,4.55 154.44,-8.57 85.8,-8.6 102.97,-42.92 205.95,-94.4 102.97,-51.49 77.23,-68.64 163.03,-120.12 85.81,-51.49 51.49,-42.92 120.12,-60.09 68.64,-17.15 223.1,-120.12 223.1,-120.12z"/>
  <path class="fil1 str0" d="M4196.24 1794.09c0,0 -231.01,8.52 -290.91,25.64 -59.87,17.12 -171.11,59.9 -231.01,94.11 -59.87,34.21 -102.66,77.02 -136.89,119.78 -34.21,42.78 -244.4,221.61 -244.4,221.61 0,0 141.74,-76.15 227.28,-127.48 85.57,-51.35 141.18,-81.28 196.8,-136.89 55.61,-55.62 68.44,-51.36 119.77,-77.02 51.33,-25.67 111.23,-76.99 179.68,-85.57 68.45,-8.54 179.68,-34.18 179.68,-34.18l0 0z"/>
  <path class="fil0 str0" d="M3460.43 1828.27c-111.23,42.79 -162.56,51.36 -231,85.57 -134.04,67.02 -249.59,113.43 -333.67,239.55 -34.24,51.36 -77.02,94.14 -94.14,171.13 -17.09,77 -72.73,175.4 -85.54,213.89 -12.83,38.5 -17.12,68.45 -17.12,68.45l154.02 -145.44c128.32,-136.9 153.98,-162.56 153.98,-162.56 0,0 34.24,-42.78 128.35,-145.47 94.12,-102.66 179.68,-179.65 179.68,-179.65l145.44 -145.47z"/>
  <path class="fil0 str0" d="M3460.43 1828.27c-74.74,26.3 -158.85,72.55 -222.46,119.78 0,0 -119.77,77.02 -154.01,111.23 -34.21,34.24 -81.28,55.62 -102.66,94.11 -21.38,38.53 -68.45,77.02 -94.11,111.23 -25.67,34.24 -42.79,59.9 -51.33,94.14 -8.55,34.21 -34.24,59.88 -47.07,89.83 -12.83,29.95 -73.93,143.24 -73.93,143.24 0,0 103.88,-113.29 155.21,-173.19 51.33,-59.88 94.11,-128.33 94.11,-128.33 0,0 59.9,-85.56 111.23,-128.35 51.33,-42.78 34.24,-34.21 85.57,-94.11 51.33,-59.9 102.68,-102.66 102.68,-102.66l196.77 -136.92z"/>
  <path class="fil1 str0" d="M2750.29 2144.85c-154.01,85.56 -136.89,76.99 -171.1,111.23 -34.24,34.23 -136.9,102.68 -171.14,171.13 -34.21,68.42 -76.99,111.2 -76.99,153.99"/>
  <path class="fil0 str0" d="M2750.29 2144.85c-28.33,15.77 -120.89,43.34 -158.83,98.66 -37.94,55.35 -121.39,85.14 -159.2,147.08 -37.83,61.99 -92.63,130.73 -101.2,190.61 -8.55,59.9 -34.24,76.99 -34.24,154.01 0,76.99 0,119.78 8.58,153.99 8.54,34.24 42.78,154.01 42.78,154.01 0,0 76.99,-111.2 119.78,-188.22 42.78,-77 59.87,-77 111.23,-205.35 51.33,-128.32 38.49,-106.94 59.87,-196.79 21.41,-89.83 34.24,-111.21 59.9,-188.23 25.67,-76.99 51.33,-119.77 51.33,-119.77z"/>
  <path class="fil1 str0" d="M2750.29 2144.85c-89.82,89.85 -188.22,162.58 -209.6,218.17 -21.41,55.62 -106.97,141.18 -132.64,218.18 -25.66,76.99 -51.33,102.68 -59.87,171.13 -8.57,68.42 -4.29,275.88 -4.29,275.88 0,0 72.71,-147.56 98.4,-250.22 25.67,-102.68 55.62,-183.96 94.11,-256.67 38.5,-72.73 68.45,-154.01 102.66,-213.91 34.24,-59.88 111.23,-162.56 111.23,-162.56l0 0z"/>
  <path class="fil1 str0" d="M4784.62 2348.15c-119.78,-17.09 -299.45,-51.33 -333.67,-76.99 -34.23,-25.67 -119.8,-51.33 -188.22,-68.45 -68.45,-17.12 -188.25,-42.76 -248.13,-42.76 -59.9,0 -339.99,4.63 -358.37,8.95 -18.39,4.28 -43.77,16.69 -43.77,16.69 0,0 119.78,17.12 188.23,17.12 68.47,0 128.35,51.33 162.56,51.33 34.24,0 128.35,25.69 196.8,25.69 68.44,0 102.68,8.55 179.67,25.64 77,17.14 77,34.24 145.45,42.78 68.44,8.57 299.45,0 299.45,0l0 0z"/>
  <path class="fil1 str0" d="M3614.45 2196.2c-119.78,17.09 -140.63,9.37 -231.01,34.21 -90.41,24.82 -179.68,59.9 -179.68,59.9 0,0 -102.68,34.21 -136.89,59.88 -34.24,25.66 -197.96,115.65 -235.3,141.18 -37.33,25.51 -125.25,108.56 -125.25,108.56 0,0 -135.71,118.16 -144.25,143.83 -8.55,25.66 -188.23,239.58 -213.89,299.45 -25.67,59.9 -111.23,213.89 -128.35,290.91 -17.12,77 -34.21,153.99 -34.21,153.99 0,0 -34.24,85.57 -38.5,115.52 -4.28,29.95 -12.86,183.96 -12.86,243.84 0,59.9 8.58,282.33 17.12,342.24 8.57,59.9 68.45,213.88 68.45,231 0,17.12 55.61,158.28 76.99,205.35 21.41,47.04 72.74,166.84 111.23,213.89 38.5,47.06 179.68,222.46 179.68,222.46"/>
  <path class="fil0 str0" d="M3999.44 2461.42c-102.65,-25.66 -222.43,-68.45 -273.79,-76.99 -51.33,-8.58 -111.2,-51.36 -205.34,-51.36 -94.11,0 -171.11,-8.55 -222.44,0 -51.33,8.57 -179.67,42.78 -213.91,59.9 -34.21,17.12 -222.44,85.57 -265.22,128.35 -42.78,42.76 -42.78,12.81 -42.78,12.81 0,0 162.58,-12.81 265.24,12.86 102.66,25.66 222.46,34.21 350.79,25.66 128.32,-8.57 196.77,0 290.88,-34.24 94.14,-34.21 316.57,-76.99 316.57,-76.99z"/>
  <path class="fil0 str0" d="M3999.44 2461.42c-8.23,0 -16.4,-0.03 -24.52,-0.05 -169.13,-0.72 -313.46,-8.89 -403.26,-17.07 -94.11,-8.54 -162.56,-8.54 -248.12,-8.54 -85.57,0 -102.66,0 -171.11,8.54 -68.47,8.55 -154.01,34.24 -196.79,42.78 -42.79,8.55 -129.15,27.39 -129.15,27.39l308.82 -18.84 222.44 0 248.13 0 248.12 -17.09 145.44 -17.12z"/>
  <path class="fil0 str0" d="M3332.08 2615.41c-145.44,42.78 -222.43,34.23 -359.33,85.56 -136.89,51.36 -213.91,85.57 -273.79,111.23 -59.9,25.67 -94.11,42.79 -128.35,77 -34.21,34.24 -128.32,85.56 -171.1,136.89 -42.79,51.36 -99.99,117.77 -99.99,117.77 0,0 159.86,-66.41 245.43,-83.53 85.57,-17.12 248.13,-59.9 308.03,-85.57 59.87,-25.66 213.89,-59.87 273.76,-111.2 59.9,-51.36 154.02,-171.13 154.02,-171.13l51.32 -77.02z"/>
  <path class="fil1 str0" d="M3332.08 2615.41c-128.32,68.47 -171.1,77.02 -179.65,85.56 -8.57,8.58 -171.13,94.14 -222.46,102.69 -51.33,8.54 -136.89,59.9 -162.56,59.9 -25.66,0 -273.79,119.78 -273.79,119.78l-183.46 148.14 166.34 -79.72 196.8 -77 201.06 -98.37c0,0 124.06,-29.95 183.96,-55.64 59.88,-25.64 145.44,-102.66 145.44,-102.66l128.32 -102.68 0 0z"/>
  <path class="fil0 str0" d="M2895.76 3000.43c-85.57,68.47 -128.35,85.57 -128.35,85.57l-149.73 89.85 -141.18 106.94c0,0 -85.54,59.88 -102.66,94.12 -17.12,34.21 -77.02,68.44 -94.11,102.65 -17.12,34.24 -94.11,162.56 -94.11,162.56l-49.32 130.28 -2.04 75.07 77.02 -111.21 136.9 -128.35 111.2 -68.44 154.02 -128.35c0,0 145.44,-102.66 162.56,-136.9 17.12,-34.21 51.33,-59.87 85.56,-119.78 34.24,-59.9 50.35,-200.42 34.24,-154.01z"/>
  <path class="fil1 str0" d="M2895.76 3000.43c-77.02,85.57 -136.92,171.13 -179.68,188.25 -42.78,17.09 -154.01,94.11 -188.25,128.32 -34.21,34.24 -136.87,128.35 -136.87,128.35l-94.14 94.12 -85.54 119.77 -59.9 145.44 -16.69 27.44 76.59 -121.55c0,0 85.54,-76.99 128.33,-119.78 42.78,-42.78 154.01,-145.44 154.01,-145.44l102.66 -77.02 111.23 -94.11 59.9 -76.99 76.99 -111.23 51.36 -85.57 0 0z"/>
  <path class="fil2 str0" d="M2023.06 2572.65c-51.36,76.99 -77.02,179.68 -85.57,222.46 -8.57,42.76 -42.78,77 -42.78,153.99 0,76.99 0,119.78 25.66,188.22 25.67,68.45 12.84,38.53 12.84,38.53 0,0 25.66,-42.78 55.61,-106.95 29.95,-64.18 42.78,-94.14 42.78,-171.13 0,-77.02 8.55,-179.68 8.55,-213.89 0,-34.24 -17.09,-111.23 -17.09,-111.23z"/>
  <path class="fil2 str0" d="M1766.36 2906.32c-17.09,77.02 -25.66,136.89 -17.09,205.34 8.54,68.45 25.66,154.01 51.33,205.34 25.66,51.33 51.33,111.23 85.56,154.02 34.21,42.78 51.33,76.99 51.33,76.99l-17.12 -145.44c0,0 0,-59.9 -29.95,-141.18 -29.95,-81.28 -55.59,-175.39 -55.59,-175.39l-68.47 -179.68z"/>
  <path class="fil0 str0" d="M2194.17 2726.64c-17.12,34.24 -85.57,154.01 -102.69,196.8 -17.09,42.78 -59.87,154.01 -59.87,213.88 0,59.91 -8.58,145.47 0,179.68 8.54,34.24 25.66,171.14 42.78,196.8 17.09,25.67 64.11,211.64 64.11,211.64l38.55 -339.99 17.12 -231.01 0 -248.12 0 -179.68z"/>
  <path class="fil0 str0" d="M2194.16 2726.64c0,0 -2.91,8.33 -7.54,21.83 -7.17,20.98 -18.52,54.47 -29.52,88.87 -14.08,43.92 -27.63,89.32 -31.38,111.76 -8.55,51.33 -34.24,136.9 -34.24,188.22 0,51.36 -12.83,141.19 0,196.8 12.86,55.62 0.03,102.66 12.86,141.16 12.83,38.52 20.27,196.95 20.27,196.95l22.51 -196.95 4.26 -175.37 0 -188.25c0,0 8.57,-68.45 8.57,-119.78 0,-51.33 34.21,-265.24 34.21,-265.24z"/>
  <path class="fil2 str0" d="M2089.02 3779.73c-34.24,34.21 -51.33,51.33 -51.33,77 0,25.66 -8.57,85.56 0,119.77 8.55,34.24 25.66,128.35 25.66,128.35l25.67 94.12 8.55 -102.66c0,0 8.57,-94.14 8.57,-145.47 0,-51.33 -17.12,-171.11 -17.12,-171.11z"/>
  <path class="fil2 str0" d="M1817.72 3915.91c51.32,17.12 29.92,-12.83 94.11,51.33 64.16,64.19 59.87,51.36 102.66,119.81 42.78,68.42 51.33,85.54 76.99,119.77 25.69,34.21 12.86,38.5 12.86,38.5 0,0 -38.52,-12.83 -64.19,-38.5 -25.66,-25.66 -106.94,-89.85 -106.94,-89.85 0,0 -47.05,-64.16 -64.17,-115.49 -17.11,-51.33 -51.32,-85.57 -51.32,-85.57z"/>
  <path class="fil1 str0" d="M1933.21 3175.85c-12.83,226.72 4.29,372.16 4.29,372.16l25.66 265.25 103.45 357.9c0,0 90.89,240.11 144.68,309.43 53.79,69.35 136.89,239.58 231,333.69 94.12,94.11 213.89,231.01 213.89,231.01"/>
  <path class="fil3 str0" d="M2860.62 2658.19c18.42,0 33.34,16.35 33.34,36.49 0,20.16 -14.92,36.48 -33.34,36.48 -18.41,0 -33.31,-16.32 -33.31,-36.48 0,-20.14 14.9,-36.49 33.31,-36.49z"/>
  <path class="fil3 str0" d="M2711.8 2709.55c16.53,0 29.95,13.41 29.95,29.95 0,16.53 -13.42,29.92 -29.95,29.92 -16.54,0 -29.96,-13.39 -29.96,-29.92 0,-16.54 13.42,-29.95 29.96,-29.95z"/>
  <path class="fil3 str0" d="M2849.88 2873.46c15.88,0 28.76,12.85 28.76,28.76 0,15.87 -12.88,28.73 -28.76,28.73 -15.87,0 -28.76,-12.86 -28.76,-28.73 0,-15.91 12.89,-28.76 28.76,-28.76z"/>
  <path class="fil3 str0" d="M2651.89 2786.54c16.54,0 29.95,13.41 29.95,29.95 0,16.54 -13.41,29.95 -29.95,29.95 -16.53,0 -29.92,-13.41 -29.92,-29.95 0,-16.54 13.39,-29.95 29.92,-29.95z"/>
  <path class="fil3 str0" d="M2576.3 2961.56c20.48,0 37.1,16.62 37.1,37.12 0,20.48 -16.62,37.1 -37.1,37.1 -20.5,0 -37.12,-16.62 -37.12,-37.1 0,-20.5 16.62,-37.12 37.12,-37.12z"/>
  <path class="fil3 str0" d="M2698.96 3068.9c18.89,0 34.21,15.32 34.21,34.21 0,18.9 -15.32,34.21 -34.21,34.21 -18.89,0 -34.23,-15.31 -34.23,-34.21 0,-18.89 15.34,-34.21 34.23,-34.21z"/>
  <path class="fil3 str0" d="M2467.96 3111.66c18.89,0 34.21,15.32 34.21,34.24 0,18.89 -15.32,34.21 -34.21,34.21 -18.92,0 -34.24,-15.32 -34.24,-34.21 0,-18.92 15.32,-34.24 34.24,-34.24z"/>
  <path class="fil3 str0" d="M2403.79 3214.35c21.25,0 38.5,17.22 38.5,38.49 0,21.25 -17.25,38.5 -38.5,38.5 -21.27,0 -38.52,-17.25 -38.52,-38.5 0,-21.27 17.25,-38.49 38.52,-38.49z"/>
  <path class="fil3 str0" d="M2574.9 3475.28c21.27,0 38.5,17.25 38.5,38.52 0,21.27 -17.23,38.5 -38.5,38.5 -21.25,0 -38.5,-17.23 -38.5,-38.5 0,-21.27 17.25,-38.52 38.5,-38.52z"/>
  <path class="fil3 str0" d="M2352.44 3376.91c21.27,0 38.52,17.22 38.52,38.49 0,21.27 -17.25,38.5 -38.52,38.5 -21.25,0 -38.5,-17.23 -38.5,-38.5 0,-21.27 17.25,-38.49 38.5,-38.49z"/>
  <path class="fil3 str0" d="M2515 3599.34c21.27,0 38.52,17.25 38.52,38.5 0,21.27 -17.25,38.52 -38.52,38.52 -21.25,0 -38.5,-17.25 -38.5,-38.52 0,-21.25 17.25,-38.5 38.5,-38.5z"/>
  <path class="fil3 str0" d="M2272.3 3710.07c18.28,0 33.1,14.82 33.1,33.1 0,18.28 -14.82,33.1 -33.1,33.1 -18.29,0 -33.1,-14.82 -33.1,-33.1 0,-18.28 14.81,-33.1 33.1,-33.1z"/>
  <path class="fil3 str0" d="M2467.96 3864.59c18.89,0 34.21,15.31 34.21,34.21 0,18.91 -15.32,34.23 -34.21,34.23 -18.92,0 -34.24,-15.32 -34.24,-34.23 0,-18.9 15.32,-34.21 34.24,-34.21z"/>
  <path class="fil3 str0" d="M1817.69 3599.34c18.92,0 34.24,15.32 34.24,34.24 0,18.89 -15.32,34.21 -34.24,34.21 -18.89,0 -34.21,-15.32 -34.21,-34.21 0,-18.92 15.32,-34.24 34.21,-34.24z"/>
  <path class="fil3 str0" d="M2061.53 3548.01c16.56,0 29.95,13.42 29.95,29.95 0,16.54 -13.39,29.95 -29.95,29.95 -16.51,0 -29.93,-13.41 -29.93,-29.95 0,-16.53 13.42,-29.95 29.93,-29.95z"/>
  <path class="fil3 str0" d="M2048.72 3385.45c18.89,0 34.21,15.32 34.21,34.21 0,18.92 -15.32,34.24 -34.21,34.24 -18.91,0 -34.23,-15.32 -34.23,-34.24 0,-18.89 15.32,-34.21 34.23,-34.21z"/>
  <path class="fil1 str0" d="M2048.72 3453.9c-25.66,42.78 -59.9,111.23 -59.9,111.23 0,0 -17.54,23.97 -25.66,94.11 -8.13,70.14 0,154.02 0,154.02 0,0 -15.3,-68.45 12.83,-124.07 28.15,-55.61 67.31,-87.49 67.31,-87.49"/>
  <path class="fil1 str0" d="M1845.95 3652.92c48.76,49.11 17.91,0.9 65.88,49.11 47.94,48.2 51.33,111.23 51.33,111.23"/>
  <path class="fil1 str0" d="M2838 2721.48c-104.83,133.51 -147.58,227.62 -147.58,227.62 0,0 -59.9,111.23 -72.74,141.18 -12.83,29.95 -70.59,139.04 -70.59,139.04l-44.92 96.23 -98.38 248.13c0,0 -59.9,132.63 -72.73,231 -12.83,98.4 -42.78,196.8 -55.62,269.51 -12.83,72.73 -21.4,295.19 -21.4,295.19l17.12 487.68"/>
  <path class="fil1 str0" d="M2448.4 3926.89c-74.56,66.02 -61.49,33.95 -108.79,108.8 -47.31,74.88 -80.86,234.29 -80.86,234.29"/>
  <path class="fil1 str0" d="M2285.26 3773.62c11.56,82.42 20.82,121.34 16.19,183.17"/>
  <path class="fil1 str0" d="M2485.81 3662.95c-69.18,56.17 -116.54,45.95 -137.63,107.52 -21.09,61.57 -28.66,103.72 -28.66,103.72"/>
  <path class="fil1 str0" d="M2548.44 3541.74c-80.48,40.51 -63.37,31.94 -89.06,49.05 -25.66,17.12 -98.82,94.96 -98.82,94.96"/>
  <path class="fil1 str0" d="M2370.54 3449.4c11.85,64.4 3.3,158.51 3.3,158.51l-13.28 77.84"/>
  <path class="fil1 str0" d="M2425.62 3284.54c17.97,22.86 34.21,97.1 34.21,97.1l-6.85 67.97"/>
  <path class="fil1 str0" d="M2467.96 3180.11c8.54,59.9 8.54,102.68 8.54,102.68l-4.92 119.94"/>
  <path class="fil1 str0" d="M2576.3 3035.78c6.88,124.4 -51.67,241.64 -51.67,241.64"/>
  <path class="fil1 str0" d="M2651.89 2846.44c23.23,52.52 23.23,52.52 23.23,52.52l-1.82 75.8"/>
  <path class="fil1 str0" d="M2711.8 2769.42c0,47.07 0,98.4 0,98.4l-38.1 90.22 -0.4 16.72"/>
  <path class="fil0 str0" d="M2862.37 5385.6c130.92,50.93 279.29,93.34 375.31,152.77 95.99,59.39 218.2,76.38 296.76,76.38 78.55,0 305.49,0 384.04,-25.48 78.56,-25.45 174.57,-42.44 174.57,-42.44 0,0 -91.65,-46.67 -192.03,-84.85 -100.38,-38.21 -187.64,-63.66 -296.76,-93.37 -109.11,-29.69 -235.66,-42.41 -357.85,-42.41 -122.21,0 -148.4,-8.5 -235.66,8.49 -87.29,16.96 -148.38,50.91 -148.38,50.91z"/>
  <path class="fil0 str0" d="M3498.85 5938.02c51.09,8.52 170.23,25.53 323.43,-8.52 153.22,-34.03 170.23,-25.53 221.32,-42.55 51.07,-17.01 93.61,-25.53 136.16,-85.11 42.57,-59.59 148.96,-225.56 178.75,-263.84 100.67,-129.44 -22.99,-4.53 -153.22,8.49 -85.09,8.52 -102.13,42.57 -204.26,93.63 -102.13,51.07 -76.6,68.11 -161.71,119.17 -85.12,51.07 -51.07,42.55 -119.17,59.56 -68.08,17.04 -221.3,119.17 -221.3,119.17z"/>
  <path class="fil1 str0" d="M3498.85 5938.02c0,0 229.16,-8.44 288.56,-25.43 59.42,-16.98 169.75,-59.4 229.15,-93.34 59.4,-33.95 101.84,-76.39 135.79,-118.83 33.94,-42.41 242.43,-219.81 242.43,-219.81 0,0 -140.6,75.54 -225.45,126.47 -84.88,50.93 -140.04,80.62 -195.21,135.78 -55.16,55.17 -67.89,50.91 -118.82,76.39 -50.91,25.45 -110.33,76.36 -178.23,84.85 -67.89,8.49 -178.22,33.92 -178.22,33.92l0 0z"/>
  <path class="fil0 str0" d="M4228.73 5904.1c110.33,-42.41 161.24,-50.91 229.13,-84.85 132.95,-66.47 247.57,-112.53 330.99,-237.62 33.95,-50.94 76.39,-93.38 93.35,-169.76 16.99,-76.36 72.15,-173.97 84.88,-212.17 12.72,-38.18 16.96,-67.89 16.96,-67.89l-152.75 144.27c-127.31,135.79 -152.77,161.27 -152.77,161.27 0,0 -33.94,42.41 -127.29,144.28 -93.37,101.83 -178.22,178.22 -178.22,178.22l-144.28 144.25z"/>
  <path class="fil0 str0" d="M4228.73 5904.1c74.14,-26.06 157.56,-71.94 220.64,-118.8 0,0 118.82,-76.38 152.77,-110.33 33.94,-33.95 80.62,-55.17 101.84,-93.34 21.22,-38.21 67.89,-76.39 93.37,-110.34 25.45,-33.94 42.41,-59.42 50.9,-93.37 8.5,-33.94 33.95,-59.4 46.7,-89.11 12.73,-29.69 73.32,-142.08 73.32,-142.08 0,0 -103.03,112.39 -153.96,171.79 -50.91,59.4 -93.35,127.32 -93.35,127.32 0,0 -59.42,84.85 -110.33,127.29 -50.93,42.44 -33.95,33.95 -84.88,93.35 -50.9,59.4 -101.84,101.84 -101.84,101.84l-195.18 135.78z"/>
  <path class="fil1 str0" d="M4933.13 5590.09c152.77,-84.85 135.79,-76.38 169.73,-110.33 33.95,-33.92 135.79,-101.84 169.73,-169.73 33.95,-67.89 76.39,-110.33 76.39,-152.74"/>
  <path class="fil0 str0" d="M4933.13 5590.09c28.1,-15.61 119.91,-42.97 157.56,-97.87 37.62,-54.87 120.39,-84.43 157.9,-145.89 37.52,-61.46 91.89,-129.64 100.39,-189.04 8.49,-59.43 33.94,-76.39 33.94,-152.77 0,-76.39 0,-118.83 -8.49,-152.77 -8.49,-33.95 -42.41,-152.75 -42.41,-152.75 0,0 -76.39,110.31 -118.83,186.69 -42.44,76.39 -59.42,76.39 -110.33,203.68 -50.93,127.32 -38.18,106.1 -59.42,195.21 -21.2,89.11 -33.92,110.33 -59.4,186.71 -25.46,76.39 -50.91,118.8 -50.91,118.8z"/>
  <path class="fil1 str0" d="M4933.13 5590.09c89.11,-89.11 186.69,-161.24 207.91,-216.4 21.22,-55.17 106.1,-140.02 131.55,-216.4 25.48,-76.39 50.93,-101.87 59.43,-169.76 8.46,-67.89 4.23,-273.63 4.23,-273.63 0,0 -72.15,146.34 -97.6,248.18 -25.46,101.83 -55.17,182.48 -93.35,254.61 -38.18,72.12 -67.89,152.77 -101.86,212.16 -33.92,59.4 -110.31,161.24 -110.31,161.24l0 0z"/>
  <path class="fil1 str0" d="M2915.23 5388.43c118.83,16.96 297.02,50.93 330.97,76.38 33.97,25.45 118.83,50.93 186.72,67.89 67.89,16.99 186.71,42.44 246.11,42.44 59.43,0 337.24,-4.63 355.5,-8.89 18.23,-4.26 43.39,-16.56 43.39,-16.56 0,0 -118.83,-16.99 -186.72,-16.99 -67.89,0 -127.29,-50.9 -161.23,-50.9 -33.95,0 -127.32,-25.48 -195.21,-25.48 -67.9,0 -101.84,-8.47 -178.23,-25.45 -76.36,-16.99 -76.36,-33.95 -144.28,-42.44 -67.89,-8.5 -297.02,0 -297.02,0l0 0z"/>
  <path class="fil1 str0" d="M4075.96 5539.19c118.83,-16.99 139.46,-9.32 229.16,-33.95 89.66,-24.63 178.22,-59.4 178.22,-59.4 0,0 101.84,-33.97 135.78,-59.42 33.95,-25.46 196.35,-114.73 233.37,-140.02 37.04,-25.32 124.27,-107.71 124.27,-107.71 0,0 134.59,-117.21 143.09,-142.67 8.46,-25.45 186.69,-237.62 212.17,-297.02 25.45,-59.42 110.3,-212.17 127.29,-288.55 16.96,-76.39 33.94,-152.77 33.94,-152.77 0,0 33.95,-84.88 38.18,-114.57 4.26,-29.71 12.73,-182.48 12.73,-241.88 0,-59.4 -8.47,-280.06 -16.96,-339.46 -8.49,-59.43 -67.89,-212.17 -67.89,-229.16 0,-16.96 -55.17,-157 -76.39,-203.67 -21.22,-46.67 -72.12,-165.5 -110.33,-212.17 -38.18,-46.67 -178.22,-220.66 -178.22,-220.66"/>
  <path class="fil0 str0" d="M3694.06 5276.08c101.84,25.46 220.66,67.9 271.57,76.39 50.93,8.49 110.33,50.93 203.7,50.93 93.35,0 169.73,8.47 220.64,0 50.93,-8.49 178.22,-42.46 212.17,-59.42 33.94,-16.96 220.66,-84.86 263.1,-127.29 42.44,-42.44 42.44,-12.73 42.44,-12.73 0,0 -161.27,12.73 -263.1,-12.75 -101.84,-25.46 -220.67,-33.92 -347.96,-25.46 -127.29,8.5 -195.21,0 -288.55,33.95 -93.35,33.95 -314.01,76.38 -314.01,76.38z"/>
  <path class="fil0 str0" d="M3694.06 5276.08c8.15,0 16.27,0.03 24.34,0.06 167.75,0.71 310.94,8.83 400,16.93 93.34,8.47 161.24,8.47 246.12,8.47 84.85,0 101.83,0 169.73,-8.47 67.89,-8.49 152.77,-33.95 195.21,-42.44 42.41,-8.49 128.08,-27.17 128.08,-27.17l-306.31 18.68 -220.66 0 -246.12 0 -246.11 16.98 -144.28 16.96z"/>
  <path class="fil0 str0" d="M4356.02 5123.34c144.28,-42.44 220.66,-33.97 356.45,-84.88 135.78,-50.93 212.17,-84.88 271.57,-110.33 59.4,-25.45 93.37,-42.44 127.31,-76.38 33.95,-33.95 127.3,-84.86 169.73,-135.79 42.44,-50.93 99.17,-116.79 99.17,-116.79 0,0 -158.56,65.86 -243.44,82.85 -84.88,16.98 -246.12,59.42 -305.52,84.87 -59.42,25.46 -212.17,59.4 -271.59,110.31 -59.4,50.93 -152.75,169.76 -152.75,169.76l-50.93 76.38z"/>
  <path class="fil1 str0" d="M4356.02 5123.34c127.32,-67.89 169.73,-76.38 178.23,-84.88 8.49,-8.49 169.73,-93.37 220.66,-101.84 50.93,-8.49 135.78,-59.42 161.26,-59.42 25.43,0 271.57,-118.8 271.57,-118.8l181.98 -146.95 -165.02 79.06 -195.18 76.38 -199.47 97.58c0,0 -123.03,29.71 -182.43,55.17 -59.43,25.45 -144.28,101.86 -144.28,101.86l-127.32 101.84 0 0z"/>
  <path class="fil0 str0" d="M4788.85 4741.41c84.86,-67.89 127.32,-84.85 127.32,-84.85l148.51 -89.11 140.02 -106.1c0,0 84.88,-59.4 101.84,-93.34 16.98,-33.95 76.38,-67.89 93.37,-101.84 16.96,-33.95 93.34,-161.24 93.34,-161.24l48.9 -129.22 2.01 -74.48 -76.36 110.33 -135.78 127.29 -110.33 67.92 -152.77 127.29c0,0 -144.28,101.84 -161.24,135.79 -16.99,33.94 -50.93,59.4 -84.88,118.82 -33.95,59.4 -49.93,198.81 -33.95,152.74z"/>
  <path class="fil1 str0" d="M4788.85 4741.41c76.39,-84.85 135.79,-169.73 178.23,-186.69 42.44,-16.98 152.74,-93.37 186.69,-127.31 33.97,-33.95 135.81,-127.29 135.81,-127.29l93.34 -93.35 84.88 -118.82 59.4 -144.28 16.56 -27.2 -75.96 120.54c0,0 -84.88,76.39 -127.32,118.83 -42.41,42.44 -152.74,144.28 -152.74,144.28l-101.84 76.38 -110.33 93.35 -59.4 76.38 -76.41 110.33 -50.91 84.85 0 0z"/>
  <path class="fil2 str0" d="M5654.49 5165.75c50.93,-76.38 76.39,-178.22 84.88,-220.66 8.49,-42.41 42.44,-76.36 42.44,-152.74 0,-76.39 0,-118.83 -25.48,-186.72 -25.45,-67.89 -12.73,-38.18 -12.73,-38.18 0,0 -25.45,42.44 -55.16,106.07 -29.69,63.66 -42.42,93.35 -42.42,169.76 0,76.36 -8.49,178.22 -8.49,212.17 0,33.92 16.96,110.3 16.96,110.3z"/>
  <path class="fil2 str0" d="M5909.1 4834.79c16.99,-76.39 25.48,-135.79 16.99,-203.71 -8.5,-67.89 -25.48,-152.74 -50.94,-203.67 -25.45,-50.91 -50.9,-110.31 -84.87,-152.77 -33.95,-42.42 -50.91,-76.36 -50.91,-76.36l16.96 144.25c0,0 0,59.42 29.71,140.04 29.71,80.62 55.17,173.99 55.17,173.99l67.89 178.23z"/>
  <path class="fil0 str0" d="M5484.76 5013.01c16.99,-33.97 84.88,-152.77 101.84,-195.21 16.99,-42.44 59.42,-152.77 59.42,-212.17 0,-59.4 8.47,-144.28 0,-178.22 -8.49,-33.95 -25.47,-169.73 -42.43,-195.19 -16.99,-25.45 -63.61,-209.94 -63.61,-209.94l-38.23 337.23 -16.99 229.16 0 246.12 0 178.22z"/>
  <path class="fil0 str0" d="M5484.76 5013.01c0,0 2.91,-8.26 7.49,-21.67 7.12,-20.8 18.36,-54.03 29.29,-88.13 13.94,-43.58 27.41,-88.61 31.11,-110.86 8.5,-50.94 33.95,-135.79 33.95,-186.72 0,-50.91 12.73,-140.02 0,-195.18 -12.73,-55.17 0,-101.84 -12.73,-140.05 -12.72,-38.18 -20.11,-195.34 -20.11,-195.34l-22.33 195.34 -4.23 173.99 0 186.69c0,0 -8.49,67.92 -8.49,118.83 0,50.93 -33.95,263.1 -33.95,263.1z"/>
  <path class="fil2 str0" d="M5589.06 3968.43c33.95,-33.94 50.93,-50.93 50.93,-76.38 0,-25.45 8.47,-84.88 0,-118.83 -8.49,-33.94 -25.48,-127.29 -25.48,-127.29l-25.45 -93.34 -8.49 101.84c0,0 -8.47,93.34 -8.47,144.27 0,50.91 16.96,169.73 16.96,169.73z"/>
  <path class="fil2 str0" d="M5858.17 3833.34c-50.91,-16.99 -29.69,12.72 -93.35,-50.91 -63.63,-63.66 -59.4,-50.93 -101.84,-118.82 -42.43,-67.89 -50.9,-84.88 -76.38,-118.83 -25.45,-33.94 -12.73,-38.18 -12.73,-38.18 0,0 38.21,12.73 63.66,38.18 25.45,25.48 106.07,89.11 106.07,89.11 0,0 46.68,63.66 63.66,114.57 16.99,50.93 50.91,84.88 50.91,84.88z"/>
  <path class="fil1 str0" d="M5743.6 4567.45c12.73,-224.92 -4.23,-369.17 -4.23,-369.17l-25.45 -263.1 -102.66 -355.02c0,0 -90.12,-238.18 -143.46,-306.95 -53.34,-68.76 -135.78,-237.62 -229.15,-330.99 -93.35,-93.34 -212.17,-229.13 -212.17,-229.13"/>
  <path class="fil3 str0" d="M4823.67 5080.9c-18.25,0 -33.04,-16.22 -33.04,-36.19 0,-19.98 14.79,-36.2 33.04,-36.2 18.26,0 33.08,16.22 33.08,36.2 0,19.97 -14.82,36.19 -33.08,36.19z"/>
  <path class="fil3 str0" d="M4971.31 5029.97c-16.4,0 -29.71,-13.31 -29.71,-29.71 0,-16.38 13.31,-29.69 29.71,-29.69 16.41,0 29.71,13.31 29.71,29.69 0,16.4 -13.3,29.71 -29.71,29.71z"/>
  <path class="fil3 str0" d="M4834.34 4867.38c-15.75,0 -28.5,-12.75 -28.5,-28.52 0,-15.74 12.75,-28.52 28.5,-28.52 15.77,0 28.52,12.78 28.52,28.52 0,15.77 -12.75,28.52 -28.52,28.52z"/>
  <path class="fil3 str0" d="M5030.74 4953.58c-16.41,0 -29.72,-13.28 -29.72,-29.68 0,-16.41 13.31,-29.72 29.72,-29.72 16.4,0 29.68,13.31 29.68,29.72 0,16.4 -13.28,29.68 -29.68,29.68z"/>
  <path class="fil3 str0" d="M5105.72 4779.99c-20.32,0 -36.8,-16.48 -36.8,-36.83 0,-20.32 16.48,-36.8 36.8,-36.8 20.32,0 36.8,16.48 36.8,36.8 0,20.35 -16.48,36.83 -36.8,36.83z"/>
  <path class="fil3 str0" d="M4984.04 4673.52c-18.74,0 -33.95,-15.18 -33.95,-33.94 0,-18.76 15.21,-33.95 33.95,-33.95 18.76,0 33.94,15.19 33.94,33.95 0,18.76 -15.18,33.94 -33.94,33.94z"/>
  <path class="fil3 str0" d="M5213.19 4631.08c-18.76,0 -33.94,-15.18 -33.94,-33.94 0,-18.74 15.18,-33.95 33.94,-33.95 18.76,0 33.95,15.21 33.95,33.95 0,18.76 -15.19,33.94 -33.95,33.94z"/>
  <path class="fil3 str0" d="M5276.85 4529.25c-21.11,0 -38.2,-17.1 -38.2,-38.18 0,-21.09 17.09,-38.18 38.2,-38.18 21.09,0 38.18,17.09 38.18,38.18 0,21.08 -17.09,38.18 -38.18,38.18z"/>
  <path class="fil3 str0" d="M5107.12 4270.4c-21.11,0 -38.2,-17.09 -38.2,-38.18 0,-21.08 17.09,-38.2 38.2,-38.2 21.09,0 38.18,17.12 38.18,38.2 0,21.09 -17.09,38.18 -38.18,38.18z"/>
  <path class="fil3 str0" d="M5327.76 4368.01c-21.09,0 -38.18,-17.09 -38.18,-38.18 0,-21.12 17.09,-38.21 38.18,-38.21 21.08,0 38.18,17.09 38.18,38.21 0,21.09 -17.1,38.18 -38.18,38.18z"/>
  <path class="fil3 str0" d="M5166.52 4147.35c-21.11,0 -38.21,-17.1 -38.21,-38.18 0,-21.09 17.1,-38.21 38.21,-38.21 21.09,0 38.18,17.12 38.18,38.21 0,21.08 -17.09,38.18 -38.18,38.18z"/>
  <path class="fil3 str0" d="M5407.26 4037.52c-18.12,0 -32.83,-14.69 -32.83,-32.81 0,-18.15 14.71,-32.84 32.83,-32.84 18.13,0 32.84,14.69 32.84,32.84 0,18.12 -14.71,32.81 -32.84,32.81z"/>
  <path class="fil3 str0" d="M5213.19 3884.27c-18.76,0 -33.94,-15.21 -33.94,-33.97 0,-18.73 15.18,-33.92 33.94,-33.92 18.76,0 33.95,15.19 33.95,33.92 0,18.76 -15.19,33.97 -33.95,33.97z"/>
  <path class="fil3 str0" d="M5858.19 4147.35c-18.75,0 -33.94,-15.19 -33.94,-33.95 0,-18.73 15.19,-33.95 33.94,-33.95 18.74,0 33.95,15.22 33.95,33.95 0,18.76 -15.21,33.95 -33.95,33.95z"/>
  <path class="fil3 str0" d="M5616.31 4198.28c-16.4,0 -29.71,-13.31 -29.71,-29.71 0,-16.41 13.31,-29.69 29.71,-29.69 16.41,0 29.71,13.28 29.71,29.69 0,16.4 -13.3,29.71 -29.71,29.71z"/>
  <path class="fil3 str0" d="M5629.04 4359.51c-18.76,0 -33.95,-15.18 -33.95,-33.94 0,-18.73 15.19,-33.95 33.95,-33.95 18.76,0 33.94,15.22 33.94,33.95 0,18.76 -15.18,33.94 -33.94,33.94z"/>
  <path class="fil1 str0" d="M5629.04 4291.62c25.45,-42.44 59.4,-110.33 59.4,-110.33 0,0 17.41,-23.76 25.48,-93.34 8.04,-69.59 0,-152.77 0,-152.77 0,0 15.16,67.89 -12.73,123.05 -27.91,55.17 -66.78,86.79 -66.78,86.79"/>
  <path class="fil1 str0" d="M5830.17 4094.22c-48.36,-48.71 -17.78,-0.9 -65.35,-48.71 -47.54,-47.81 -50.9,-110.33 -50.9,-110.33"/>
  <path class="fil1 str0" d="M4846.11 5018.14c103.98,-132.45 146.42,-225.79 146.42,-225.79 0,0 59.4,-110.33 72.15,-140.05 12.73,-29.68 70.01,-137.9 70.01,-137.9l44.56 -95.49 97.6 -246.11c0,0 59.4,-131.53 72.13,-229.13 12.72,-97.61 42.44,-195.21 55.16,-267.34 12.73,-72.12 21.22,-292.78 21.22,-292.78l-16.98 -483.74"/>
  <path class="fil1 str0" d="M5232.59 3822.44c73.95,-65.49 60.98,-33.66 107.89,-107.9 46.94,-74.27 80.2,-232.41 80.2,-232.41"/>
  <path class="fil1 str0" d="M5394.41 3974.49c-11.49,-81.75 -20.64,-120.38 -16.06,-181.69"/>
  <path class="fil1 str0" d="M5195.47 4084.27c68.63,-55.72 115.62,-45.59 136.55,-106.65 20.9,-61.07 28.39,-102.9 28.39,-102.9"/>
  <path class="fil1 str0" d="M5133.37 4204.5c79.82,-40.17 62.84,-31.7 88.32,-48.66 25.45,-16.99 98,-94.19 98,-94.19"/>
  <path class="fil1 str0" d="M5309.82 4296.09c-11.75,-63.87 -3.28,-157.24 -3.28,-157.24l13.15 -77.2"/>
  <path class="fil1 str0" d="M5255.16 4459.61c-17.81,-22.68 -33.92,-96.31 -33.92,-96.31l6.8 -67.42"/>
  <path class="fil1 str0" d="M5213.19 4563.19c-8.49,-59.4 -8.49,-101.84 -8.49,-101.84l4.89 -118.95"/>
  <path class="fil1 str0" d="M5105.72 4706.36c-6.83,-123.38 51.25,-239.69 51.25,-239.69"/>
  <path class="fil1 str0" d="M5030.74 4894.18c-23.05,-52.09 -23.05,-52.09 -23.05,-52.09l1.83 -75.2"/>
  <path class="fil1 str0" d="M4971.31 4970.57c0,-46.67 0,-97.6 0,-97.6l37.81 -89.49 0.4 -16.59"/>
  <path class="fil3" d="M2828.5 3788.86c-5.69,0 -10.21,-2.27 -13.62,-6.8 -3.42,-4.55 -5.11,-10.21 -5.11,-16.46 0,-14.18 7.38,-28.94 21.56,-44.26 14.77,-15.32 34.61,-23.26 60.14,-23.26 14.21,0 34.64,3.97 60.73,11.91 22.7,6.24 38.57,9.66 49.37,9.66 5.66,0 12.46,-2.28 19.84,-7.39 7.94,-5.1 11.35,-17.59 11.35,-38.02 -3.97,0 -15.87,-0.58 -35.74,-1.69 -25.54,-1.14 -47.1,-1.72 -64.69,-1.72l-149.23 -1.14c-19.87,0 -36.88,1.72 -50.51,4.55l4.55 -15.32c18.15,-0.58 31.22,-5.1 39.72,-13.62 8.52,-8.52 19.87,-35.19 32.91,-81.15l28.36 -102.13 27.26 -101.57c-36.33,0.58 -63.56,6.24 -82.29,18.15 -18.73,11.93 -28.36,25.56 -28.36,41.43 0,5.11 2.27,11.91 7.38,19.87 3.97,7.36 6.24,13.05 6.24,18.15 0,4.53 -1.72,9.08 -5.13,12.49 -3.39,3.97 -7.35,5.66 -12.46,5.66 -6.83,0 -12.49,-3.38 -17.04,-9.63 -4.52,-6.24 -6.8,-15.32 -6.8,-26.67 0,-18.15 5.66,-34.63 16.46,-48.79 11.35,-14.76 24.97,-24.97 41.4,-31.8 15.91,-6.8 31.22,-11.35 45.99,-13.6 14.18,-2.27 44.26,-3.41 89.64,-3.41 -6.8,13.6 -11.35,24.97 -14.74,33.47 -2.86,9.07 -9.66,32.91 -20.45,71.49 -22.7,83.42 -38.58,136.18 -46.51,158.32 -8.52,21.57 -15.91,36.33 -22.71,43.69 14.77,2.27 30.09,3.41 47.1,3.41 22.12,0 49.37,-2.28 82.29,-6.8 0.55,0 11.9,-42.57 34.02,-126.55 15.32,-59 28.39,-102.13 40.3,-129.38 11.35,-27.23 25.53,-47.65 43.12,-61.83 17.6,-14.77 38.03,-21.57 61.28,-21.57 15.32,0 27.81,2.83 36.89,9.08 9.07,6.24 13.62,13.62 13.62,22.14 0,10.77 -5.69,16.43 -16.46,16.43 -6.82,0 -14.18,-4.52 -22.14,-14.18 -8.49,-9.63 -15.88,-14.18 -22.68,-14.18 -18.73,0 -38.02,24.98 -56.75,75.46 -19.29,49.95 -41.41,134.49 -67.52,254.21 1.69,0 6.24,0.56 13.62,1.72 10.22,1.69 18.71,2.83 24.96,2.83 7.96,0 17.03,-1.14 26.11,-2.83l-6.8 34.03c-3.41,14.18 -7.38,25.53 -12.49,33.49 -5.13,7.94 -13.62,14.18 -25.53,18.71 -11.35,3.97 -26.67,6.24 -45.4,6.24 -14.19,0 -32.92,-3.97 -56.17,-11.35 -19.29,-6.8 -35.19,-10.21 -47.68,-10.21 -16.46,0 -24.4,6.24 -24.4,18.73 0,3.42 1.72,7.94 4.55,13.63 2.83,5.66 3.97,9.63 3.97,12.46 0,10.79 -5.1,15.9 -15.32,15.9zm402.86 -250.24l13.62 -0.56c24.4,0 36.89,12.49 36.89,36.89 0,24.97 -14.18,48.23 -43.13,69.79 -28.92,22.12 -56.73,32.92 -84.53,32.92 -34.06,0 -51.07,-18.18 -51.07,-54.48 0,-43.13 13.04,-85.12 39.71,-125.97 26.67,-40.29 57.31,-60.72 93.06,-60.72 26.67,0 40.27,12.49 40.27,36.88 0,23.84 -14.74,45.96 -44.82,65.25zm-77.15 22.14c55.03,-23.83 82.25,-49.37 82.25,-77.17 0,-17.6 -7.35,-26.12 -21.56,-26.12 -28.36,0 -48.79,34.63 -60.69,103.29zm-2.28 19.85c-1.14,10.21 -2.28,20.42 -2.28,30.08 0,16.46 1.7,28.36 5.69,34.61 3.39,6.8 10.22,10.21 19.29,10.21 13.05,0 26.09,-7.38 40.27,-21.56 13.63,-14.18 20.45,-30.64 20.45,-49.35 0,-19.31 -7.38,-28.94 -21.56,-28.94 -11.93,0 -32.36,8.49 -61.86,24.95zm306.41 19.31l9.08 11.91c-45.4,43.13 -83.98,64.69 -116.31,64.69 -13.07,0 -22.7,-4.55 -30.08,-13.07 -6.83,-9.08 -10.22,-23.26 -10.22,-42.55 0,-39.71 11.91,-78.87 36.3,-118.03 26.67,-44.26 59.03,-66.38 96.47,-66.38 13.07,0 23.26,3.41 30.08,9.66 6.8,6.8 10.22,15.87 10.22,27.22 0,11.91 -3.97,23.84 -12.49,35.19 -8.52,11.91 -23.26,23.84 -44.27,36.3 -10.77,6.25 -34.05,17.04 -69.21,32.92 -1.14,9.63 -2.28,19.28 -2.28,28.36 0,13.07 2.28,22.15 6.25,27.25 3.97,5.11 10.21,7.94 18.15,7.94 7.38,0 15.9,-2.28 24.97,-6.24 11.91,-5.69 30.06,-17.6 53.34,-35.17zm-97.02 -39.74c30.06,-13.04 52.2,-27.78 66.94,-42.54 10.21,-10.8 15.32,-21.57 15.32,-31.78 0,-7.94 -2.28,-14.18 -6.24,-19.29 -3.97,-4.55 -9.63,-6.82 -15.88,-6.82 -6.8,0 -13.63,2.27 -19.87,7.96 -9.07,6.8 -16.46,17.01 -22.12,30.64 -8.52,20.42 -14.76,40.85 -18.15,61.83zm152.06 -59l-7.94 -11.35c18.15,-18.15 35.74,-31.78 52.2,-40.3 16.46,-8.49 29.5,-13.04 38.58,-13.04 3.97,0 6.8,0.58 9.07,2.27 1.72,1.7 2.86,4.53 2.86,7.39 0,3.38 -1.72,10.21 -4.55,20.42 -4.55,15.32 -7.38,27.81 -9.08,36.89 44.83,-44.85 78.88,-66.97 102.13,-66.97 6.25,0 10.8,1.69 13.63,5.11 3.39,3.41 5.11,9.07 5.11,16.45 0,7.94 -2.83,21.01 -8.52,39.16 21,-22.12 39.16,-37.46 54.47,-47.09 15.88,-9.08 27.81,-13.63 36.33,-13.63 7.94,0 13.6,2.27 18.15,6.8 3.97,3.97 6.25,10.79 6.25,20.45 0,5.08 -1.14,11.91 -2.86,19.29 -1.69,7.94 -8.49,30.64 -19.84,69.21 -14.77,47.68 -22.15,76.05 -22.15,85.12 0,6.25 2.86,9.63 7.96,9.63 3.39,0 6.8,-1.11 10.22,-3.38 10.77,-7.94 22.12,-17.6 33.47,-28.95l9.07 10.21c-3.97,2.83 -11.35,9.66 -22.12,19.29 -14.76,13.63 -24.39,21.56 -30.08,24.98 -10.77,6.8 -19.87,9.63 -27.23,9.63 -5.68,0 -10.21,-2.83 -14.76,-7.94 -3.97,-5.66 -6.24,-13.04 -6.24,-22.7 0,-8.49 1.13,-19.29 3.96,-31.19 2.28,-11.36 10.22,-38.03 22.15,-79.46 9.63,-31.19 14.18,-49.93 14.18,-56.73 0,-6.24 -2.83,-9.07 -8.52,-9.07 -4.52,0 -10.21,2.25 -18.15,6.8 -15.9,9.66 -28.94,20.98 -39.71,35.19 -7.38,9.07 -13.63,24.39 -19.29,45.37 -12.49,44.85 -21.56,82.29 -27.81,110.65l-39.74 0 41.44 -169.09c2.83,-12.46 4.55,-19.29 4.55,-21.54 0,-2.27 -0.59,-3.97 -2.28,-5.69 -1.72,-1.14 -3.41,-1.69 -6.24,-1.69 -5.11,0 -13.05,3.97 -23.26,11.35 -18.73,13.04 -31.78,25.53 -39.74,38.02 -7.94,11.91 -14.74,30.64 -20.43,55.59l-21.56 93.05 -39.71 0 31.22 -132.21c9.63,-38.02 14.18,-59 14.18,-62.39 0,-3.99 -1.72,-5.69 -5.11,-5.69 -7.38,0 -22.12,10.77 -44.26,31.78zm482.31 -64.69c18.15,0 32.91,7.38 44.82,21.56 11.93,14.18 18.15,34.61 18.15,60.14 0,40.85 -14.16,77.74 -43.1,110.65 -28.95,32.36 -59.59,48.82 -91.92,48.82 -19.31,0 -35.77,-6.25 -47.68,-19.32 -11.9,-13.04 -18.15,-30.64 -18.15,-53.34 0,-38.57 11.35,-74.32 33.47,-107.23 27.81,-40.85 62.42,-61.28 104.41,-61.28zm-23.84 20.98c-15.88,0 -30.64,11.35 -45.38,33.5 -14.76,22.7 -22.14,53.34 -22.14,93.05 0,23.84 4.55,43.13 13.62,56.73 6.8,10.24 15.32,15.32 26.67,15.32 15.32,0 29.5,-9.63 41.99,-28.92 16.46,-24.98 24.4,-55.62 24.4,-92.5 0,-27.81 -3.42,-47.65 -11.35,-59.56 -7.36,-11.93 -16.46,-17.62 -27.81,-17.62zm107.26 42.57l-11.93 -9.63c38.6,-35.77 68.1,-53.92 87.97,-53.92 9.63,0 14.74,6.8 14.74,19.87 0,9.63 -2.83,27.23 -9.66,52.76l-10.21 41.43c-0.56,3.97 -1.11,7.38 -1.11,9.08 0,7.38 4.52,10.76 14.18,10.76 9.07,0 21.56,-5.66 37.44,-17.59 15.9,-11.91 26.67,-24.39 33.49,-37.99 6.22,-13.63 13.6,-37.47 20.98,-71.52l39.72 0 -25.53 97.05c-15.32,56.17 -23.26,87.95 -23.26,95.88 0,7.39 2.83,10.77 7.94,10.77 6.8,0 22.14,-11.9 45.95,-35.72l9.08 10.19c-37.44,38.6 -65.25,57.89 -82.84,57.89 -5.11,0 -10.21,-2.28 -14.74,-6.8 -4.55,-5.13 -6.82,-11.35 -6.82,-19.29 0,-9.65 1.72,-22.14 5.68,-38.02l15.88 -62.44c-40.85,33.5 -72.05,50.51 -94.19,50.51 -17.6,0 -26.09,-7.94 -26.09,-23.84 0,-7.94 5.11,-30.64 15.32,-68.66 4.52,-17.57 6.8,-28.36 6.8,-32.33 0,-5.66 -2.28,-7.94 -6.25,-7.94 -7.93,0 -21.56,9.63 -42.54,29.5zm490.8 120.86c-37.44,39.16 -65.24,58.45 -82.84,58.45 -5.11,0 -10.21,-2.28 -14.74,-6.8 -4.55,-4.55 -6.82,-11.35 -6.82,-19.29 0,-9.65 1.72,-21.59 5.69,-36.91l13.62 -54.45 -76.04 0 -26.11 107.79 -41.41 0c0.55,-2.27 2.25,-9.63 5.66,-22.7 2.83,-9.05 7.94,-28.36 14.76,-56.72l24.98 -99.3c1.11,-5.11 1.69,-9.08 1.69,-11.91 0,-5.69 -1.69,-8.52 -5.68,-8.52 -7.94,0 -22.68,9.63 -42.55,29.5l-12.49 -9.63c39.16,-35.77 68.66,-53.92 88.53,-53.92 10.22,0 15.32,6.8 15.32,20.43 0,13.04 -6.24,41.98 -18.15,87.94l75.46 0 27.23 -101.57 40.29 0 -26.11 97.05c-15.32,56.17 -23.26,87.95 -23.26,95.88 0,7.39 2.83,10.77 7.94,10.77 6.8,0 22.12,-11.9 45.96,-36.3l9.07 10.21zm209.39 -188.96l18.74 -3.97 -21.01 70.38c-7.94,27.78 -15.88,59.58 -23.26,96.44 -3.97,19.29 -6.24,32.36 -6.24,38.02 0,5.69 2.27,8.52 6.82,8.52 2.81,0 7.94,-1.69 14.16,-5.66 11.35,-6.83 22.14,-15.35 32.36,-24.98l9.07 10.77c-20.98,18.73 -34.61,30.64 -40.27,34.61 -11.93,7.96 -23.28,14.21 -33.49,17.59 -7.39,2.86 -14.19,4 -21.01,4 -4.53,0 -7.94,-1.14 -10.77,-3.42 -2.28,-2.27 -3.39,-5.66 -3.39,-9.65 0,-2.83 0.56,-6.25 2.25,-11.33l11.35 -37.46c-15.87,19.29 -35.19,35.74 -57.31,49.37 -13.04,8.49 -25.53,12.49 -36.88,12.49 -10.77,0 -18.73,-4 -24.39,-11.35 -7.94,-10.24 -11.91,-23.84 -11.91,-40.3 0,-19.29 5.11,-41.41 15.87,-65.25 10.22,-23.83 24.4,-45.95 41.99,-65.27 17.02,-19.84 35.75,-34.02 55.04,-43.68 14.76,-6.8 34.05,-10.21 57.89,-10.21 5.66,0 11.9,0.55 17.57,1.13l6.82 -10.79zm-34.05 42.57c-10.21,-1.69 -18.73,-2.83 -25.53,-2.83 -16.46,0 -30.64,4.52 -43.13,13.6 -12.49,9.1 -23.81,25.53 -34.61,49.37 -10.76,23.84 -15.87,47.68 -15.87,70.93 0,13.05 2.25,21.57 6.22,27.23 4.55,5.69 10.21,8.52 17.04,8.52 12.46,0 26.08,-6.8 40.85,-20.43 14.18,-14.18 24.95,-34.05 31.77,-59.58l23.26 -86.81zm78.87 139.57c5.11,17.04 8.52,27.25 10.8,30.66 1.69,3.97 5.1,5.66 10.21,5.66 8.49,0 18.71,-9.65 30.06,-28.36 11.35,-19.31 21.56,-32.33 30.08,-39.16 8.52,-6.8 22.7,-13.04 42.57,-18.15l0 -3.41 -7.38 0c-23.28,0 -40.88,-4.52 -52.78,-13.6 -11.91,-8.52 -17.6,-19.87 -17.6,-32.91 0,-21.01 13.07,-38.02 38.58,-51.07 25.56,-13.62 59.03,-20.45 101.57,-20.45l49.37 1.14 -26.09 96.46c-15.32,55.62 -22.7,87.4 -22.7,95.33 0,7.39 2.83,10.77 7.94,10.77 6.24,0 21.56,-11.9 45.4,-35.72l9.08 10.19c-36.88,38.6 -64.11,57.89 -81.7,57.89 -6.25,0 -11.36,-2.28 -15.32,-7.38 -3.97,-5.11 -6.25,-12.49 -6.25,-22.12 0,-10.21 1.69,-21.56 5.66,-35.77l12.49 -47.65c-15.32,0 -27.81,4.55 -37.46,13.04 -9.63,9.1 -22.12,26.67 -37.44,53.92 -17.6,30.64 -36.88,45.96 -59,45.96 -8.52,0 -16.46,-2.83 -23.26,-9.07 -6.83,-5.69 -13.63,-23.29 -20.45,-51.65l13.62 -4.55zm190.11 -145.26c-10.8,-2.83 -23.29,-4.52 -36.33,-4.52 -15.32,0 -29.5,4.52 -42.57,13.62 -12.46,9.08 -18.71,20.98 -18.71,35.75 0,25.53 17.01,38.02 51.07,38.02 5.66,0 14.18,-0.58 24.95,-1.72l21.59 -81.15z"/>
  <path class="fil3" d="M3731.37 3956.05c9.07,34.61 20.98,85.12 36.88,152.08 15.32,66.94 24.39,104.41 27.23,111.79 1.13,-2.86 6.8,-25.53 16.45,-67.52 13.05,-54.48 24.4,-95.91 34.61,-124.86 10.77,-29.5 22.7,-50.48 37.44,-62.41 14.76,-12.49 31.8,-18.71 51.65,-18.71 11.9,0 20.98,2.25 27.22,6.8 6.27,5.11 9.66,10.77 9.66,17.01 0,4.55 -1.69,8.52 -5.11,12.49 -3.41,3.41 -7.38,5.11 -11.9,5.11 -3.42,0 -6.83,-1.14 -11.35,-2.83 -12.49,-5.11 -21.57,-7.94 -27.81,-7.94 -7.94,0 -15.32,2.83 -22.12,7.94 -6.83,5.1 -15.35,19.87 -24.98,43.68 -10.21,23.84 -20.42,57.31 -31.77,101.57 -11.36,43.71 -22.71,91.36 -34.06,142.43l-9.63 41.43c-2.27,-4.55 -7.38,-14.76 -15.9,-31.77 -9.63,-18.18 -17.01,-35.19 -22.12,-51.65 -5.1,-15.9 -14.76,-53.9 -28.39,-112.92l-22.12 -96.47c-3.97,24.42 -14.76,70.93 -32.33,139.59 -17.59,68.66 -35.19,112.37 -52.78,131.08 -18.15,18.73 -38.58,27.8 -62.42,27.8 -17.01,0 -30.64,-3.41 -40.85,-9.65 -9.66,-6.8 -14.74,-14.74 -14.74,-23.82 0,-3.41 1.7,-6.82 4.53,-10.21 2.83,-2.83 6.8,-4.55 11.35,-4.55 6.24,0 12.49,2.83 18.73,9.08 11.91,10.79 22.7,15.9 32.33,15.9 28.37,0 52.2,-30.64 71.49,-91.92 19.29,-61.3 36.89,-136.18 52.79,-224.13 -13.05,0 -31.22,3.39 -53.93,9.63 -23.25,6.25 -40.29,15.88 -51.06,28.37 -11.35,12.49 -17.01,26.67 -17.01,43.12 0,11.35 3.38,22.71 9.63,32.92 3.97,6.8 6.24,11.9 6.24,15.9 0,3.97 -1.69,7.94 -4.52,11.32 -3.42,2.86 -7.38,4.55 -11.93,4.55 -7.36,0 -13.6,-3.96 -18.15,-11.35 -4.53,-7.93 -6.8,-18.73 -6.8,-32.91 0,-24.95 6.24,-45.96 18.7,-63.55 12.49,-17.6 27.25,-29.5 44.27,-36.89 17.01,-6.8 44.84,-13.04 82.84,-18.15 14.76,-2.27 28.39,-4.55 39.74,-7.38zm270.64 174.76c0,26.67 -7.94,51.65 -23.26,74.35 -15.9,23.25 -35.19,34.6 -57.89,34.6 -15.32,0 -27.22,-5.66 -35.74,-16.45 -8.52,-10.77 -13.05,-23.84 -13.05,-38.58 0,-26.67 7.38,-51.65 22.7,-75.46 15.32,-23.84 34.61,-35.74 58.45,-35.74 14.18,0 25.53,4.52 34.61,14.18 9.66,9.63 14.18,23.81 14.18,43.1zm-32.89 -7.36c0,-26.11 -6.27,-39.15 -19.31,-39.15 -11.91,0 -22.12,11.9 -31.2,35.16 -8.52,23.28 -13.07,46.54 -13.07,69.82 0,26.67 6.83,39.72 19.87,39.72 11.35,0 21.01,-11.35 30.09,-33.5 9.07,-22.12 13.62,-46.51 13.62,-72.05zm-114.64 146.95l120.86 0 0 19.29 -120.86 0 0 -19.29zm253.63 -248.52l-11.33 -7.94c18.71,-21.56 32.92,-35.19 41.41,-40.85 16.46,-10.21 32.36,-15.32 49.37,-15.32 16.46,0 30.09,4.53 39.72,13.05 9.65,8.49 14.76,19.84 14.76,33.47 0,28.94 -22.12,59.58 -65.83,91.91 14.77,0.58 26.12,3.41 34.05,7.94 7.39,4.55 14.19,11.93 18.71,21.59 5.13,9.07 7.38,20.4 7.38,34.02 0,35.75 -18.15,68.66 -53.89,99.3 -30.64,26.67 -62.42,39.72 -94.75,39.72 -14.21,0 -27.25,-3.39 -39.16,-10.19 -11.93,-6.24 -17.59,-14.76 -17.59,-24.42 0,-3.97 1.69,-7.94 4.52,-10.77 2.86,-2.83 6.83,-4.55 10.79,-4.55 5.67,0 11.91,3.41 18.74,10.21 9.63,9.08 16.45,14.77 20.98,17.04 6.8,2.83 12.49,4.53 17.04,4.53 14.74,0 30.64,-8.52 48.23,-25.54 26.09,-24.97 39.13,-52.2 39.13,-82.28 0,-14.74 -3.97,-27.23 -12.46,-35.75 -7.96,-9.07 -18.73,-13.6 -31.22,-13.6 -9.66,0 -20.43,2.28 -32.33,6.25l2.25 -17.04c23.84,-8.52 44.82,-23.26 64.13,-44.24 13.05,-14.76 19.87,-30.08 19.87,-44.85 0,-11.9 -2.85,-20.98 -8.52,-27.22 -6.24,-6.25 -13.62,-9.66 -23.84,-9.66 -20.98,0 -40.85,11.91 -60.16,35.19z"/>
 </g>
</svg>
