<svg width="170" height="170" viewBox="0 0 170 170" fill="none" xmlns="http://www.w3.org/2000/svg">
<path fill-rule="evenodd" clip-rule="evenodd" d="M122.851 28.857C117.862 26.917 112.208 25.3 108.55 23.037C104.892 20.773 100.236 20.126 97.243 20.126C94.25 20.126 85.602 20.126 82.609 21.097C79.616 22.067 75.958 22.713 75.958 22.713C75.958 22.713 79.45 24.492 83.275 25.947C87.099 27.402 90.425 28.373 94.582 29.504C98.739 30.636 103.561 31.121 108.218 31.121C112.874 31.121 113.871 31.445 117.197 30.798C120.523 30.151 122.851 28.857 122.851 28.857Z" fill="#86AC41" stroke="#34675C" stroke-miterlimit="22.9256"/>
<path fill-rule="evenodd" clip-rule="evenodd" d="M98.598 7.80801C96.652 7.48401 92.112 6.83501 86.274 8.13301C80.437 9.43001 79.788 9.10501 77.842 9.75401C75.896 10.403 74.275 10.727 72.653 12.997C71.032 15.267 66.978 21.591 65.843 23.051C62.007 27.983 66.719 23.223 71.68 22.727C74.923 22.402 75.572 21.105 79.464 19.159C83.356 17.213 82.383 16.565 85.626 14.619C88.869 12.673 87.572 12.997 90.166 12.348C92.76 11.7 98.598 7.80801 98.598 7.80801Z" fill="#86AC41" stroke="#34675C" stroke-miterlimit="22.9256"/>
<path fill-rule="evenodd" clip-rule="evenodd" d="M98.598 7.80801C98.598 7.80801 89.867 8.13001 87.603 8.77701C85.34 9.42401 81.136 11.041 78.872 12.334C76.609 13.627 74.992 15.245 73.698 16.861C72.405 18.478 64.461 25.237 64.461 25.237C64.461 25.237 69.818 22.359 73.051 20.419C76.285 18.478 78.387 17.347 80.489 15.245C82.591 13.143 83.076 13.304 85.016 12.334C86.956 11.364 89.22 9.42401 91.807 9.10001C94.394 8.77701 98.598 7.80801 98.598 7.80801V7.80801Z" stroke="#34675C" stroke-miterlimit="22.9256"/>
<path fill-rule="evenodd" clip-rule="evenodd" d="M70.788 9.10001C66.584 10.717 64.644 11.041 62.057 12.334C56.991 14.867 52.624 16.621 49.446 21.388C48.152 23.329 46.535 24.946 45.888 27.856C45.242 30.766 43.139 34.485 42.655 35.94C42.17 37.395 42.008 38.527 42.008 38.527L47.829 33.03C52.679 27.856 53.649 26.886 53.649 26.886C53.649 26.886 54.943 25.269 58.5 21.388C62.057 17.508 65.291 14.598 65.291 14.598L70.788 9.10001Z" fill="#86AC41" stroke="#34675C" stroke-miterlimit="22.9256"/>
<path fill-rule="evenodd" clip-rule="evenodd" d="M70.788 9.10001C67.963 10.094 64.784 11.842 62.38 13.627C62.38 13.627 57.853 16.538 56.559 17.831C55.266 19.125 53.487 19.933 52.679 21.388C51.871 22.844 50.092 24.299 49.122 25.592C48.152 26.886 47.505 27.856 47.182 29.15C46.859 30.443 45.888 31.413 45.403 32.545C44.918 33.677 42.609 37.959 42.609 37.959C42.609 37.959 46.535 33.677 48.475 31.413C50.415 29.15 52.032 26.563 52.032 26.563C52.032 26.563 54.296 23.329 56.236 21.712C58.176 20.095 57.53 20.419 59.47 18.155C61.41 15.891 63.351 14.275 63.351 14.275L70.788 9.10001Z" fill="#86AC41" stroke="#34675C" stroke-miterlimit="22.9256"/>
<path d="M43.948 21.065C38.127 24.299 38.774 23.975 37.481 25.269C36.187 26.563 32.307 29.15 31.013 31.737C29.72 34.323 28.103 35.94 28.103 37.557" stroke="#34675C" stroke-miterlimit="22.9256"/>
<path fill-rule="evenodd" clip-rule="evenodd" d="M43.948 21.065C42.877 21.661 39.379 22.703 37.945 24.794C36.511 26.886 33.357 28.012 31.928 30.353C30.498 32.696 28.427 35.294 28.103 37.557C27.78 39.821 26.809 40.467 26.809 43.378C26.809 46.288 26.809 47.905 27.133 49.198C27.456 50.492 28.75 55.019 28.75 55.019C28.75 55.019 31.66 50.816 33.277 47.905C34.894 44.995 35.54 44.995 37.481 40.144C39.421 35.294 38.936 36.102 39.744 32.706C40.553 29.311 41.038 28.503 42.008 25.592C42.978 22.682 43.948 21.065 43.948 21.065Z" fill="#86AC41" stroke="#34675C" stroke-miterlimit="22.9256"/>
<path fill-rule="evenodd" clip-rule="evenodd" d="M43.948 21.065C40.553 24.461 36.834 27.21 36.026 29.311C35.217 31.413 31.983 34.647 31.013 37.557C30.043 40.467 29.073 41.438 28.75 44.025C28.426 46.611 28.588 54.452 28.588 54.452C28.588 54.452 31.336 48.875 32.307 44.995C33.277 41.114 34.409 38.042 35.864 35.294C37.319 32.545 38.451 29.473 39.744 27.209C41.038 24.946 43.948 21.065 43.948 21.065V21.065Z" stroke="#34675C" stroke-miterlimit="22.9256"/>
<path fill-rule="evenodd" clip-rule="evenodd" d="M120.836 28.749C116.309 28.103 109.518 26.809 108.225 25.839C106.931 24.869 103.697 23.899 101.111 23.252C98.524 22.605 93.996 21.636 91.733 21.636C89.469 21.636 78.883 21.811 78.188 21.974C77.493 22.136 76.534 22.605 76.534 22.605C76.534 22.605 81.061 23.252 83.648 23.252C86.236 23.252 88.499 25.192 89.792 25.192C91.086 25.192 94.643 26.163 97.23 26.163C99.817 26.163 101.111 26.486 104.021 27.132C106.931 27.78 106.931 28.426 109.518 28.749C112.105 29.073 120.836 28.749 120.836 28.749V28.749Z" stroke="#34675C" stroke-miterlimit="22.9256"/>
<path d="M76.609 23.006C72.082 23.652 71.294 23.36 67.878 24.299C64.461 25.237 61.087 26.563 61.087 26.563C61.087 26.563 57.206 27.856 55.913 28.826C54.619 29.796 48.431 33.197 47.02 34.162C45.609 35.126 42.286 38.265 42.286 38.265C42.286 38.265 37.157 42.731 36.834 43.701C36.511 44.671 29.72 52.756 28.75 55.019C27.78 57.283 24.546 63.103 23.899 66.014C23.252 68.924 22.606 71.834 22.606 71.834C22.606 71.834 21.312 75.068 21.151 76.2C20.989 77.332 20.665 83.153 20.665 85.416C20.665 87.68 20.989 96.087 21.312 98.351C21.636 100.615 23.899 106.435 23.899 107.082C23.899 107.729 26.001 113.064 26.809 114.843C27.618 116.621 29.558 121.149 31.013 122.927C32.468 124.706 37.804 131.335 37.804 131.335" stroke="#34675C" stroke-miterlimit="22.9256"/>
<path fill-rule="evenodd" clip-rule="evenodd" d="M91.16 33.03C87.28 32.06 82.753 30.443 80.812 30.12C78.872 29.796 76.609 28.179 73.051 28.179C69.494 28.179 66.584 27.856 64.644 28.179C62.704 28.503 57.853 29.796 56.559 30.443C55.266 31.09 48.152 33.677 46.535 35.294C44.918 36.91 44.918 35.778 44.918 35.778C44.918 35.778 51.063 35.294 54.943 36.264C58.823 37.234 63.351 37.557 68.201 37.234C73.051 36.91 75.638 37.234 79.195 35.94C82.753 34.647 91.16 33.03 91.16 33.03Z" fill="#86AC41" stroke="#34675C" stroke-miterlimit="22.9256"/>
<path fill-rule="evenodd" clip-rule="evenodd" d="M91.16 33.03C90.849 33.03 90.54 33.029 90.233 33.028C83.841 33.001 78.386 32.692 74.992 32.383C71.435 32.06 68.848 32.06 65.614 32.06C62.38 32.06 61.734 32.06 59.147 32.383C56.559 32.706 53.326 33.677 51.709 34C50.092 34.323 46.828 35.035 46.828 35.035L58.5 34.323H66.907H76.285L85.663 33.677L91.16 33.03Z" fill="#86AC41" stroke="#34675C" stroke-miterlimit="22.9256"/>
<path fill-rule="evenodd" clip-rule="evenodd" d="M65.937 38.85C60.44 40.467 57.53 40.144 52.356 42.084C47.182 44.025 44.271 45.318 42.008 46.288C39.744 47.258 38.451 47.905 37.157 49.198C35.864 50.492 32.307 52.432 30.69 54.372C29.073 56.313 26.911 58.823 26.911 58.823C26.911 58.823 32.953 56.313 36.187 55.666C39.421 55.019 45.565 53.402 47.829 52.432C50.092 51.462 55.913 50.169 58.176 48.229C60.44 46.288 63.997 41.761 63.997 41.761L65.937 38.85Z" fill="#86AC41" stroke="#34675C" stroke-miterlimit="22.9256"/>
<path fill-rule="evenodd" clip-rule="evenodd" d="M65.937 38.85C61.087 41.438 59.47 41.761 59.147 42.084C58.823 42.408 52.679 45.642 50.739 45.965C48.799 46.288 45.565 48.229 44.595 48.229C43.625 48.229 34.247 52.756 34.247 52.756L27.313 58.355L33.6 55.342L41.038 52.432L48.637 48.714C48.637 48.714 53.326 47.582 55.59 46.611C57.853 45.642 61.087 42.731 61.087 42.731L65.937 38.85V38.85Z" stroke="#34675C" stroke-miterlimit="22.9256"/>
<path fill-rule="evenodd" clip-rule="evenodd" d="M49.446 53.402C46.212 55.99 44.595 56.636 44.595 56.636L38.936 60.032L33.6 64.074C33.6 64.074 30.367 66.337 29.72 67.631C29.073 68.924 26.809 70.218 26.163 71.511C25.516 72.805 22.606 77.655 22.606 77.655L20.742 82.579L20.665 85.416L23.576 81.213L28.75 76.362L32.953 73.775L38.774 68.924C38.774 68.924 44.271 65.044 44.918 63.75C45.565 62.457 46.858 61.487 48.152 59.223C49.446 56.959 50.055 51.648 49.446 53.402Z" fill="#86AC41" stroke="#34675C" stroke-miterlimit="22.9256"/>
<path fill-rule="evenodd" clip-rule="evenodd" d="M49.446 53.402C46.535 56.636 44.271 59.87 42.655 60.517C41.038 61.163 36.834 64.074 35.54 65.367C34.247 66.661 30.367 70.218 30.367 70.218L26.809 73.775L23.576 78.302L21.312 83.799L20.681 84.836L23.576 80.242C23.576 80.242 26.809 77.332 28.426 75.715C30.043 74.098 34.247 70.218 34.247 70.218L38.127 67.307L42.331 63.75L44.595 60.84L47.505 56.636L49.446 53.402V53.402Z" stroke="#34675C" stroke-miterlimit="22.9256"/>
<path fill-rule="evenodd" clip-rule="evenodd" d="M16.462 37.234C14.521 40.144 13.551 44.025 13.228 45.642C12.904 47.258 11.611 48.552 11.611 51.462C11.611 54.372 11.611 55.989 12.581 58.576C13.551 61.163 13.066 60.032 13.066 60.032C13.066 60.032 14.036 58.415 15.168 55.99C16.3 53.564 16.785 52.432 16.785 49.522C16.785 46.611 17.108 42.731 17.108 41.438C17.108 40.144 16.462 37.234 16.462 37.234Z" fill="#7DA3A1" stroke="#34675C" stroke-miterlimit="22.9256"/>
<path fill-rule="evenodd" clip-rule="evenodd" d="M6.76002 49.845C6.11402 52.756 5.79002 55.019 6.11402 57.606C6.43702 60.193 7.08402 63.427 8.05402 65.367C9.02402 67.307 9.99402 69.571 11.288 71.188C12.581 72.805 13.228 74.098 13.228 74.098L12.581 68.601C12.581 68.601 12.581 66.337 11.449 63.265C10.317 60.193 9.34802 56.636 9.34802 56.636L6.76002 49.845Z" fill="#7DA3A1" stroke="#34675C" stroke-miterlimit="22.9256"/>
<path fill-rule="evenodd" clip-rule="evenodd" d="M22.9291 43.054C22.2821 44.348 19.6951 48.875 19.0481 50.492C18.4021 52.109 16.7851 56.313 16.7851 58.576C16.7851 60.84 16.4611 64.074 16.7851 65.367C17.1081 66.661 17.7551 71.835 18.4021 72.805C19.0481 73.775 20.8251 80.804 20.8251 80.804L22.2821 67.954L22.9291 59.223V49.845V43.054Z" fill="#86AC41" stroke="#34675C" stroke-miterlimit="22.9256"/>
<path fill-rule="evenodd" clip-rule="evenodd" d="M22.929 43.054C22.929 43.054 22.819 43.369 22.644 43.879C22.373 44.672 21.944 45.938 21.528 47.238C20.996 48.898 20.484 50.614 20.342 51.462C20.019 53.402 19.048 56.636 19.048 58.576C19.048 60.517 18.563 63.912 19.048 66.014C19.534 68.116 19.049 69.894 19.534 71.349C20.019 72.805 20.3 78.793 20.3 78.793L21.151 71.349L21.312 64.721V57.606C21.312 57.606 21.636 55.019 21.636 53.079C21.636 51.139 22.929 43.054 22.929 43.054Z" fill="#86AC41" stroke="#34675C" stroke-miterlimit="22.9256"/>
<path fill-rule="evenodd" clip-rule="evenodd" d="M18.955 82.856C17.661 84.149 17.015 84.796 17.015 85.766C17.015 86.736 16.691 89 17.015 90.293C17.338 91.587 17.985 95.144 17.985 95.144L18.955 98.701L19.278 94.821C19.278 94.821 19.602 91.263 19.602 89.323C19.602 87.383 18.955 82.856 18.955 82.856Z" fill="#7DA3A1" stroke="#34675C" stroke-miterlimit="22.9256"/>
<path fill-rule="evenodd" clip-rule="evenodd" d="M8.70105 88.003C10.641 88.65 9.83205 87.518 12.258 89.943C14.683 92.369 14.521 91.884 16.138 94.471C17.755 97.057 18.078 97.704 19.048 98.998C20.019 100.291 19.534 100.453 19.534 100.453C19.534 100.453 18.078 99.968 17.108 98.998C16.138 98.028 13.066 95.602 13.066 95.602C13.066 95.602 11.288 93.177 10.641 91.237C9.99405 89.297 8.70105 88.003 8.70105 88.003Z" fill="#7DA3A1" stroke="#34675C" stroke-miterlimit="22.9256"/>
<path d="M13.0661 60.032C12.5811 68.601 13.2281 74.098 13.2281 74.098L14.1981 84.123L18.1081 97.65C18.1081 97.65 21.5431 106.725 23.5761 109.345C25.6091 111.966 28.7501 118.4 32.3071 121.957C35.8641 125.514 40.3911 130.688 40.3911 130.688" stroke="#34675C" stroke-miterlimit="22.9256"/>
<path fill-rule="evenodd" clip-rule="evenodd" d="M48.118 40.467C48.814 40.467 49.378 41.085 49.378 41.846C49.378 42.608 48.814 43.225 48.118 43.225C47.422 43.225 46.859 42.608 46.859 41.846C46.859 41.085 47.422 40.467 48.118 40.467Z" fill="#34675C" stroke="#34675C" stroke-miterlimit="22.9256"/>
<path fill-rule="evenodd" clip-rule="evenodd" d="M42.493 42.408C43.118 42.408 43.625 42.915 43.625 43.54C43.625 44.165 43.118 44.671 42.493 44.671C41.868 44.671 41.361 44.165 41.361 43.54C41.361 42.915 41.868 42.408 42.493 42.408Z" fill="#34675C" stroke="#34675C" stroke-miterlimit="22.9256"/>
<path fill-rule="evenodd" clip-rule="evenodd" d="M47.712 48.603C48.312 48.603 48.799 49.089 48.799 49.69C48.799 50.29 48.312 50.776 47.712 50.776C47.112 50.776 46.625 50.29 46.625 49.69C46.625 49.089 47.112 48.603 47.712 48.603Z" fill="#34675C" stroke="#34675C" stroke-miterlimit="22.9256"/>
<path fill-rule="evenodd" clip-rule="evenodd" d="M40.229 45.318C40.854 45.318 41.361 45.825 41.361 46.45C41.361 47.075 40.854 47.582 40.229 47.582C39.604 47.582 39.098 47.075 39.098 46.45C39.098 45.825 39.604 45.318 40.229 45.318Z" fill="#34675C" stroke="#34675C" stroke-miterlimit="22.9256"/>
<path fill-rule="evenodd" clip-rule="evenodd" d="M37.372 51.933C38.146 51.933 38.774 52.561 38.774 53.336C38.774 54.11 38.146 54.738 37.372 54.738C36.597 54.738 35.969 54.11 35.969 53.336C35.969 52.561 36.597 51.933 37.372 51.933Z" fill="#34675C" stroke="#34675C" stroke-miterlimit="22.9256"/>
<path fill-rule="evenodd" clip-rule="evenodd" d="M42.008 55.99C42.722 55.99 43.301 56.569 43.301 57.283C43.301 57.997 42.722 58.576 42.008 58.576C41.294 58.576 40.714 57.997 40.714 57.283C40.714 56.569 41.294 55.99 42.008 55.99Z" fill="#34675C" stroke="#34675C" stroke-miterlimit="22.9256"/>
<path fill-rule="evenodd" clip-rule="evenodd" d="M33.277 57.606C33.991 57.606 34.57 58.185 34.57 58.9C34.57 59.614 33.991 60.193 33.277 60.193C32.562 60.193 31.983 59.614 31.983 58.9C31.983 58.185 32.562 57.606 33.277 57.606Z" fill="#34675C" stroke="#34675C" stroke-miterlimit="22.9256"/>
<path fill-rule="evenodd" clip-rule="evenodd" d="M30.852 61.487C31.655 61.487 32.307 62.138 32.307 62.942C32.307 63.745 31.655 64.397 30.852 64.397C30.048 64.397 29.396 63.745 29.396 62.942C29.396 62.138 30.048 61.487 30.852 61.487Z" fill="#34675C" stroke="#34675C" stroke-miterlimit="22.9256"/>
<path fill-rule="evenodd" clip-rule="evenodd" d="M37.319 71.349C38.123 71.349 38.774 72.001 38.774 72.805C38.774 73.609 38.123 74.26 37.319 74.26C36.516 74.26 35.864 73.609 35.864 72.805C35.864 72.001 36.516 71.349 37.319 71.349Z" fill="#34675C" stroke="#34675C" stroke-miterlimit="22.9256"/>
<path fill-rule="evenodd" clip-rule="evenodd" d="M28.911 67.631C29.715 67.631 30.367 68.282 30.367 69.086C30.367 69.89 29.715 70.541 28.911 70.541C28.108 70.541 27.456 69.89 27.456 69.086C27.456 68.282 28.108 67.631 28.911 67.631Z" fill="#34675C" stroke="#34675C" stroke-miterlimit="22.9256"/>
<path fill-rule="evenodd" clip-rule="evenodd" d="M35.055 76.038C35.859 76.038 36.511 76.69 36.511 77.493C36.511 78.297 35.859 78.949 35.055 78.949C34.252 78.949 33.6 78.297 33.6 77.493C33.6 76.69 34.252 76.038 35.055 76.038Z" fill="#34675C" stroke="#34675C" stroke-miterlimit="22.9256"/>
<path fill-rule="evenodd" clip-rule="evenodd" d="M25.882 80.223C26.573 80.223 27.133 80.783 27.133 81.474C27.133 82.165 26.573 82.725 25.882 82.725C25.191 82.725 24.631 82.165 24.631 81.474C24.631 80.783 25.191 80.223 25.882 80.223Z" fill="#34675C" stroke="#34675C" stroke-miterlimit="22.9256"/>
<path fill-rule="evenodd" clip-rule="evenodd" d="M33.277 86.063C33.991 86.063 34.57 86.642 34.57 87.356C34.57 88.071 33.991 88.65 33.277 88.65C32.562 88.65 31.983 88.071 31.983 87.356C31.983 86.642 32.562 86.063 33.277 86.063Z" fill="#34675C" stroke="#34675C" stroke-miterlimit="22.9256"/>
<path fill-rule="evenodd" clip-rule="evenodd" d="M8.70004 76.038C9.41504 76.038 9.99404 76.617 9.99404 77.332C9.99404 78.046 9.41504 78.625 8.70004 78.625C7.98604 78.625 7.40704 78.046 7.40704 77.332C7.40704 76.617 7.98604 76.038 8.70004 76.038Z" fill="#34675C" stroke="#34675C" stroke-miterlimit="22.9256"/>
<path fill-rule="evenodd" clip-rule="evenodd" d="M17.916 74.098C18.542 74.098 19.048 74.605 19.048 75.23C19.048 75.855 18.542 76.362 17.916 76.362C17.292 76.362 16.785 75.855 16.785 75.23C16.785 74.605 17.292 74.098 17.916 74.098Z" fill="#34675C" stroke="#34675C" stroke-miterlimit="22.9256"/>
<path fill-rule="evenodd" clip-rule="evenodd" d="M17.432 67.954C18.146 67.954 18.725 68.533 18.725 69.247C18.725 69.962 18.146 70.541 17.432 70.541C16.717 70.541 16.138 69.962 16.138 69.247C16.138 68.533 16.717 67.954 17.432 67.954Z" fill="#34675C" stroke="#34675C" stroke-miterlimit="22.9256"/>
<path d="M17.432 70.541C16.462 72.158 15.168 74.745 15.168 74.745C15.168 74.745 14.505 75.651 14.198 78.302C13.891 80.953 14.198 84.123 14.198 84.123C14.198 84.123 13.62 81.536 14.683 79.434C15.747 77.332 17.227 76.127 17.227 76.127" stroke="#34675C" stroke-miterlimit="22.9256"/>
<path d="M9.76801 78.063C11.611 79.919 10.445 78.097 12.258 79.919C14.07 81.741 14.198 84.123 14.198 84.123" stroke="#34675C" stroke-miterlimit="22.9256"/>
<path d="M47.263 42.859C43.301 47.905 41.685 51.462 41.685 51.462C41.685 51.462 39.421 55.666 38.936 56.798C38.451 57.93 36.268 62.053 36.268 62.053L34.57 65.69L30.852 75.068C30.852 75.068 28.588 80.081 28.103 83.799C27.618 87.518 26.486 91.237 26.001 93.985C25.516 96.734 25.192 105.142 25.192 105.142L25.839 123.574" stroke="#34675C" stroke-miterlimit="22.9256"/>
<path d="M32.538 88.418C29.72 90.913 30.214 89.701 28.426 92.53C26.638 95.36 25.37 101.385 25.37 101.385" stroke="#34675C" stroke-miterlimit="22.9256"/>
<path d="M26.372 82.625C26.809 85.74 27.159 87.211 26.984 89.548" stroke="#34675C" stroke-miterlimit="22.9256"/>
<path d="M33.952 78.442C31.337 80.565 29.547 80.179 28.75 82.506C27.953 84.833 27.667 86.426 27.667 86.426" stroke="#34675C" stroke-miterlimit="22.9256"/>
<path d="M36.319 73.861C33.277 75.392 33.924 75.068 32.953 75.715C31.983 76.362 29.218 79.304 29.218 79.304" stroke="#34675C" stroke-miterlimit="22.9256"/>
<path d="M29.595 70.371C30.043 72.805 29.72 76.362 29.72 76.362L29.218 79.304" stroke="#34675C" stroke-miterlimit="22.9256"/>
<path d="M31.677 64.14C32.356 65.004 32.97 67.81 32.97 67.81L32.711 70.379" stroke="#34675C" stroke-miterlimit="22.9256"/>
<path d="M33.277 60.193C33.6 62.457 33.6 64.074 33.6 64.074L33.414 68.607" stroke="#34675C" stroke-miterlimit="22.9256"/>
<path d="M37.372 54.738C37.632 59.44 35.419 63.871 35.419 63.871" stroke="#34675C" stroke-miterlimit="22.9256"/>
<path d="M40.229 47.582C41.107 49.567 41.107 49.567 41.107 49.567L41.038 52.432" stroke="#34675C" stroke-miterlimit="22.9256"/>
<path d="M42.493 44.671C42.493 46.45 42.493 48.39 42.493 48.39L41.053 51.8L41.038 52.432" stroke="#34675C" stroke-miterlimit="22.9256"/>
<path fill-rule="evenodd" clip-rule="evenodd" d="M48.184 143.55C53.132 145.475 58.74 147.078 62.369 149.324C65.997 151.569 70.616 152.211 73.585 152.211C76.554 152.211 85.131 152.211 88.1 151.248C91.069 150.286 94.698 149.644 94.698 149.644C94.698 149.644 91.234 147.88 87.44 146.437C83.646 144.993 80.348 144.031 76.224 142.908C72.1 141.786 67.317 141.305 62.699 141.305C58.08 141.305 57.09 140.984 53.792 141.626C50.493 142.267 48.184 143.55 48.184 143.55Z" fill="#86AC41" stroke="#34675C" stroke-miterlimit="22.9256"/>
<path fill-rule="evenodd" clip-rule="evenodd" d="M72.24 164.429C74.171 164.751 78.674 165.394 84.464 164.107C90.255 162.821 90.898 163.142 92.829 162.499C94.759 161.856 96.367 161.534 97.975 159.282C99.584 157.03 103.605 150.757 104.731 149.31C108.536 144.418 103.862 149.139 98.94 149.631C95.724 149.953 95.08 151.24 91.22 153.17C87.36 155.1 88.325 155.744 85.108 157.674C81.891 159.604 83.178 159.282 80.604 159.925C78.031 160.569 72.24 164.429 72.24 164.429Z" fill="#86AC41" stroke="#34675C" stroke-miterlimit="22.9256"/>
<path fill-rule="evenodd" clip-rule="evenodd" d="M72.24 164.429C72.24 164.429 80.901 164.11 83.146 163.468C85.392 162.826 89.562 161.223 91.807 159.94C94.052 158.657 95.656 157.053 96.939 155.449C98.222 153.846 106.102 147.141 106.102 147.141C106.102 147.141 100.788 149.996 97.581 151.921C94.373 153.846 92.288 154.968 90.203 157.053C88.118 159.138 87.637 158.977 85.712 159.94C83.788 160.902 81.542 162.826 78.976 163.147C76.41 163.468 72.24 164.429 72.24 164.429V164.429Z" stroke="#34675C" stroke-miterlimit="22.9256"/>
<path fill-rule="evenodd" clip-rule="evenodd" d="M99.826 163.147C103.996 161.544 105.92 161.223 108.486 159.94C113.511 157.428 117.843 155.687 120.996 150.959C122.279 149.034 123.883 147.43 124.524 144.543C125.166 141.657 127.251 137.968 127.732 136.524C128.213 135.081 128.373 133.958 128.373 133.958L122.6 139.411C117.788 144.543 116.826 145.506 116.826 145.506C116.826 145.506 115.543 147.109 112.015 150.959C108.486 154.808 105.279 157.695 105.279 157.695L99.826 163.147Z" fill="#86AC41" stroke="#34675C" stroke-miterlimit="22.9256"/>
<path fill-rule="evenodd" clip-rule="evenodd" d="M99.826 163.147C102.628 162.162 105.781 160.428 108.165 158.657C108.165 158.657 112.656 155.77 113.939 154.487C115.222 153.204 116.986 152.402 117.788 150.959C118.59 149.515 120.354 148.072 121.317 146.789C122.279 145.506 122.92 144.543 123.241 143.26C123.562 141.977 124.524 141.015 125.006 139.892C125.487 138.77 127.777 134.522 127.777 134.522C127.777 134.522 123.883 138.77 121.958 141.015C120.034 143.26 118.43 145.827 118.43 145.827C118.43 145.827 116.184 149.034 114.26 150.638C112.335 152.242 112.977 151.921 111.052 154.166C109.128 156.411 107.203 158.015 107.203 158.015L99.826 163.147Z" fill="#86AC41" stroke="#34675C" stroke-miterlimit="22.9256"/>
<path d="M126.449 151.279C132.223 148.072 131.581 148.392 132.864 147.109C134.147 145.827 137.996 143.26 139.279 140.694C140.562 138.128 142.166 136.524 142.166 134.921" stroke="#34675C" stroke-miterlimit="22.9256"/>
<path fill-rule="evenodd" clip-rule="evenodd" d="M126.449 151.279C127.511 150.689 130.981 149.655 132.404 147.58C133.826 145.506 136.954 144.389 138.372 142.066C139.79 139.743 141.845 137.166 142.166 134.921C142.487 132.675 143.449 132.034 143.449 129.147C143.449 126.26 143.449 124.656 143.128 123.373C142.807 122.09 141.525 117.6 141.525 117.6C141.525 117.6 138.638 121.769 137.034 124.656C135.43 127.543 134.788 127.543 132.864 132.354C130.939 137.166 131.421 136.364 130.618 139.732C129.817 143.1 129.336 143.902 128.373 146.789C127.411 149.676 126.449 151.279 126.449 151.279Z" fill="#86AC41" stroke="#34675C" stroke-miterlimit="22.9256"/>
<path fill-rule="evenodd" clip-rule="evenodd" d="M126.449 151.279C129.817 147.911 133.505 145.185 134.307 143.1C135.109 141.015 138.317 137.808 139.279 134.921C140.242 132.034 141.204 131.071 141.525 128.505C141.845 125.939 141.685 118.163 141.685 118.163C141.685 118.163 138.958 123.694 137.996 127.543C137.034 131.392 135.911 134.44 134.468 137.166C133.025 139.892 131.902 142.94 130.618 145.185C129.336 147.43 126.449 151.279 126.449 151.279V151.279Z" stroke="#34675C" stroke-miterlimit="22.9256"/>
<path fill-rule="evenodd" clip-rule="evenodd" d="M50.182 143.657C54.673 144.298 61.408 145.582 62.691 146.544C63.975 147.506 67.182 148.469 69.748 149.11C72.314 149.752 76.805 150.714 79.05 150.714C81.296 150.714 91.796 150.539 92.486 150.378C93.175 150.217 94.126 149.752 94.126 149.752C94.126 149.752 89.635 149.11 87.069 149.11C84.503 149.11 82.258 147.186 80.975 147.186C79.692 147.186 76.163 146.223 73.597 146.223C71.031 146.223 69.748 145.903 66.861 145.261C63.975 144.619 63.975 143.978 61.408 143.657C58.842 143.336 50.182 143.657 50.182 143.657V143.657Z" stroke="#34675C" stroke-miterlimit="22.9256"/>
<path d="M94.052 149.355C98.543 148.713 99.323 149.003 102.713 148.072C106.102 147.141 109.449 145.827 109.449 145.827C109.449 145.827 113.298 144.543 114.581 143.581C115.864 142.619 122.002 139.245 123.401 138.289C124.801 137.332 128.098 134.218 128.098 134.218C128.098 134.218 133.185 129.788 133.506 128.826C133.826 127.864 140.562 119.845 141.525 117.6C142.487 115.354 145.694 109.581 146.336 106.694C146.977 103.807 147.619 100.92 147.619 100.92C147.619 100.92 148.902 97.712 149.062 96.59C149.223 95.467 149.543 89.693 149.543 87.448C149.543 85.203 149.223 76.863 148.902 74.618C148.581 72.372 146.336 66.599 146.336 65.957C146.336 65.316 144.251 60.023 143.449 58.259C142.647 56.495 140.723 52.004 139.279 50.24C137.836 48.476 132.543 41.9 132.543 41.9" stroke="#34675C" stroke-miterlimit="22.9256"/>
<path fill-rule="evenodd" clip-rule="evenodd" d="M79.618 139.411C83.467 140.373 87.958 141.977 89.882 142.298C91.807 142.619 94.052 144.223 97.581 144.223C101.109 144.223 103.996 144.543 105.92 144.223C107.845 143.902 112.656 142.618 113.939 141.977C115.222 141.336 122.279 138.77 123.883 137.166C125.487 135.562 125.487 136.685 125.487 136.685C125.487 136.685 119.392 137.166 115.543 136.203C111.694 135.241 107.203 134.921 102.392 135.241C97.581 135.562 95.014 135.241 91.486 136.524C87.958 137.807 79.618 139.411 79.618 139.411Z" fill="#86AC41" stroke="#34675C" stroke-miterlimit="22.9256"/>
<path fill-rule="evenodd" clip-rule="evenodd" d="M79.618 139.411C79.926 139.411 80.233 139.412 80.538 139.413C86.878 139.44 92.29 139.747 95.656 140.053C99.184 140.373 101.75 140.373 104.958 140.373C108.165 140.373 108.807 140.373 111.373 140.053C113.939 139.732 117.147 138.77 118.751 138.449C120.354 138.128 123.592 137.422 123.592 137.422L112.015 138.128H103.675H94.373L85.071 138.77L79.618 139.411Z" fill="#86AC41" stroke="#34675C" stroke-miterlimit="22.9256"/>
<path fill-rule="evenodd" clip-rule="evenodd" d="M104.637 133.638C110.09 132.034 112.977 132.354 118.109 130.43C123.241 128.505 126.128 127.222 128.373 126.26C130.618 125.298 131.902 124.656 133.185 123.373C134.468 122.09 137.996 120.166 139.6 118.241C141.204 116.316 143.348 113.827 143.348 113.827C143.348 113.827 137.355 116.316 134.147 116.958C130.939 117.6 124.845 119.204 122.6 120.166C120.354 121.128 114.581 122.411 112.335 124.335C110.09 126.26 106.562 130.751 106.562 130.751L104.637 133.638Z" fill="#86AC41" stroke="#34675C" stroke-miterlimit="22.9256"/>
<path fill-rule="evenodd" clip-rule="evenodd" d="M104.637 133.638C109.449 131.072 111.052 130.751 111.373 130.43C111.694 130.109 117.788 126.901 119.713 126.581C121.638 126.26 124.845 124.335 125.808 124.335C126.769 124.335 136.072 119.845 136.072 119.845L142.95 114.291L136.713 117.279L129.336 120.166L121.797 123.854C121.797 123.854 117.147 124.977 114.902 125.939C112.656 126.901 109.449 129.789 109.449 129.789L104.637 133.638V133.638Z" stroke="#34675C" stroke-miterlimit="22.9256"/>
<path fill-rule="evenodd" clip-rule="evenodd" d="M120.996 119.203C124.203 116.637 125.808 115.996 125.808 115.996L131.421 112.628L136.713 108.618C136.713 108.618 139.921 106.373 140.562 105.09C141.204 103.807 143.449 102.524 144.091 101.241C144.732 99.958 147.619 95.147 147.619 95.147L149.467 90.263L149.543 87.448L146.657 91.618L141.525 96.429L137.355 98.996L131.581 103.807C131.581 103.807 126.128 107.656 125.487 108.939C124.845 110.222 123.562 111.184 122.279 113.43C120.996 115.675 120.392 120.944 120.996 119.203Z" fill="#86AC41" stroke="#34675C" stroke-miterlimit="22.9256"/>
<path fill-rule="evenodd" clip-rule="evenodd" d="M120.996 119.203C123.883 115.996 126.128 112.788 127.732 112.147C129.336 111.505 133.505 108.618 134.788 107.335C136.072 106.052 139.921 102.524 139.921 102.524L143.449 98.996L146.657 94.505L148.902 89.052L149.528 88.024L146.657 92.58C146.657 92.58 143.449 95.467 141.845 97.071C140.242 98.675 136.072 102.524 136.072 102.524L132.223 105.411L128.053 108.939L125.808 111.826L122.92 115.996L120.996 119.203V119.203Z" stroke="#34675C" stroke-miterlimit="22.9256"/>
<path fill-rule="evenodd" clip-rule="evenodd" d="M153.713 135.241C155.638 132.354 156.6 128.505 156.921 126.901C157.242 125.298 158.525 124.015 158.525 121.128C158.525 118.241 158.525 116.637 157.562 114.071C156.6 111.505 157.081 112.628 157.081 112.628C157.081 112.628 156.119 114.232 154.996 116.637C153.874 119.043 153.393 120.165 153.393 123.053C153.393 125.939 153.072 129.789 153.072 131.072C153.072 132.354 153.713 135.241 153.713 135.241Z" fill="#7DA3A1" stroke="#34675C" stroke-miterlimit="22.9256"/>
<path fill-rule="evenodd" clip-rule="evenodd" d="M163.336 122.732C163.978 119.845 164.299 117.6 163.978 115.033C163.657 112.467 163.015 109.26 162.053 107.335C161.091 105.411 160.129 103.166 158.845 101.561C157.562 99.958 156.921 98.675 156.921 98.675L157.562 104.127C157.562 104.127 157.562 106.373 158.685 109.42C159.808 112.467 160.77 115.996 160.77 115.996L163.336 122.732Z" fill="#7DA3A1" stroke="#34675C" stroke-miterlimit="22.9256"/>
<path fill-rule="evenodd" clip-rule="evenodd" d="M147.298 129.468C147.94 128.184 150.506 123.694 151.147 122.09C151.789 120.486 153.393 116.316 153.393 114.071C153.393 111.826 153.713 108.618 153.393 107.335C153.072 106.052 152.43 100.92 151.789 99.958C151.147 98.996 149.385 92.023 149.385 92.023L147.94 104.769L147.298 113.43V122.732V129.468Z" fill="#86AC41" stroke="#34675C" stroke-miterlimit="22.9256"/>
<path fill-rule="evenodd" clip-rule="evenodd" d="M147.298 129.468C147.298 129.468 147.408 129.156 147.581 128.649C147.85 127.863 148.275 126.607 148.688 125.318C149.215 123.671 149.724 121.969 149.864 121.128C150.185 119.203 151.147 115.996 151.147 114.071C151.147 112.147 151.628 108.779 151.147 106.694C150.666 104.609 151.147 102.845 150.666 101.401C150.185 99.958 149.906 94.018 149.906 94.018L149.062 101.401L148.902 107.977V115.033C148.902 115.033 148.581 117.6 148.581 119.524C148.581 121.449 147.298 129.468 147.298 129.468Z" fill="#86AC41" stroke="#34675C" stroke-miterlimit="22.9256"/>
<path fill-rule="evenodd" clip-rule="evenodd" d="M151.24 89.988C152.523 88.705 153.165 88.063 153.165 87.101C153.165 86.139 153.485 83.893 153.165 82.61C152.844 81.327 152.202 77.799 152.202 77.799L151.24 74.271L150.919 78.12C150.919 78.12 150.599 81.648 150.599 83.573C150.599 85.497 151.24 89.988 151.24 89.988Z" fill="#7DA3A1" stroke="#34675C" stroke-miterlimit="22.9256"/>
<path fill-rule="evenodd" clip-rule="evenodd" d="M161.411 84.882C159.487 84.24 160.289 85.363 157.883 82.958C155.478 80.552 155.638 81.033 154.034 78.467C152.43 75.901 152.11 75.259 151.147 73.976C150.185 72.693 150.666 72.533 150.666 72.533C150.666 72.533 152.11 73.014 153.072 73.976C154.034 74.939 157.081 77.344 157.081 77.344C157.081 77.344 158.845 79.75 159.487 81.674C160.129 83.599 161.411 84.882 161.411 84.882Z" fill="#7DA3A1" stroke="#34675C" stroke-miterlimit="22.9256"/>
<path d="M157.081 112.628C157.562 104.127 156.921 98.675 156.921 98.675L155.959 88.731L152.079 75.313C152.079 75.313 148.673 66.311 146.657 63.712C144.641 61.113 141.525 54.731 137.996 51.202C134.468 47.674 129.977 42.542 129.977 42.542" stroke="#34675C" stroke-miterlimit="22.9256"/>
<path fill-rule="evenodd" clip-rule="evenodd" d="M122.312 132.034C121.622 132.034 121.063 131.421 121.063 130.666C121.063 129.911 121.622 129.298 122.312 129.298C123.002 129.298 123.562 129.911 123.562 130.666C123.562 131.421 123.002 132.034 122.312 132.034Z" fill="#34675C" stroke="#34675C" stroke-miterlimit="22.9256"/>
<path fill-rule="evenodd" clip-rule="evenodd" d="M127.892 130.109C127.272 130.109 126.769 129.606 126.769 128.986C126.769 128.367 127.272 127.864 127.892 127.864C128.512 127.864 129.015 128.367 129.015 128.986C129.015 129.606 128.512 130.109 127.892 130.109Z" fill="#34675C" stroke="#34675C" stroke-miterlimit="22.9256"/>
<path fill-rule="evenodd" clip-rule="evenodd" d="M122.715 123.964C122.12 123.964 121.638 123.482 121.638 122.886C121.638 122.291 122.12 121.808 122.715 121.808C123.311 121.808 123.793 122.291 123.793 122.886C123.793 123.482 123.311 123.964 122.715 123.964Z" fill="#34675C" stroke="#34675C" stroke-miterlimit="22.9256"/>
<path fill-rule="evenodd" clip-rule="evenodd" d="M130.138 127.222C129.518 127.222 129.015 126.72 129.015 126.1C129.015 125.48 129.518 124.977 130.138 124.977C130.758 124.977 131.26 125.48 131.26 126.1C131.26 126.72 130.758 127.222 130.138 127.222Z" fill="#34675C" stroke="#34675C" stroke-miterlimit="22.9256"/>
<path fill-rule="evenodd" clip-rule="evenodd" d="M132.972 120.661C132.204 120.661 131.581 120.038 131.581 119.269C131.581 118.501 132.204 117.878 132.972 117.878C133.74 117.878 134.363 118.501 134.363 119.269C134.363 120.038 133.74 120.661 132.972 120.661Z" fill="#34675C" stroke="#34675C" stroke-miterlimit="22.9256"/>
<path fill-rule="evenodd" clip-rule="evenodd" d="M128.373 116.637C127.665 116.637 127.09 116.063 127.09 115.354C127.09 114.645 127.665 114.071 128.373 114.071C129.082 114.071 129.656 114.645 129.656 115.354C129.656 116.063 129.082 116.637 128.373 116.637Z" fill="#34675C" stroke="#34675C" stroke-miterlimit="22.9256"/>
<path fill-rule="evenodd" clip-rule="evenodd" d="M137.034 115.033C136.325 115.033 135.751 114.459 135.751 113.75C135.751 113.042 136.325 112.467 137.034 112.467C137.743 112.467 138.317 113.042 138.317 113.75C138.317 114.459 137.743 115.033 137.034 115.033Z" fill="#34675C" stroke="#34675C" stroke-miterlimit="22.9256"/>
<path fill-rule="evenodd" clip-rule="evenodd" d="M139.44 111.184C138.642 111.184 137.996 110.538 137.996 109.741C137.996 108.944 138.642 108.298 139.44 108.298C140.237 108.298 140.883 108.944 140.883 109.741C140.883 110.538 140.237 111.184 139.44 111.184Z" fill="#34675C" stroke="#34675C" stroke-miterlimit="22.9256"/>
<path fill-rule="evenodd" clip-rule="evenodd" d="M133.025 101.401C132.227 101.401 131.581 100.755 131.581 99.958C131.581 99.161 132.227 98.514 133.025 98.514C133.822 98.514 134.468 99.161 134.468 99.958C134.468 100.755 133.822 101.401 133.025 101.401Z" fill="#34675C" stroke="#34675C" stroke-miterlimit="22.9256"/>
<path fill-rule="evenodd" clip-rule="evenodd" d="M141.364 105.09C140.567 105.09 139.921 104.444 139.921 103.647C139.921 102.849 140.567 102.203 141.364 102.203C142.161 102.203 142.807 102.849 142.807 103.647C142.807 104.444 142.161 105.09 141.364 105.09Z" fill="#34675C" stroke="#34675C" stroke-miterlimit="22.9256"/>
<path fill-rule="evenodd" clip-rule="evenodd" d="M135.27 96.75C134.472 96.75 133.826 96.104 133.826 95.307C133.826 94.51 134.472 93.863 135.27 93.863C136.067 93.863 136.713 94.51 136.713 95.307C136.713 96.104 136.067 96.75 135.27 96.75Z" fill="#34675C" stroke="#34675C" stroke-miterlimit="22.9256"/>
<path fill-rule="evenodd" clip-rule="evenodd" d="M144.369 92.599C143.684 92.599 143.128 92.044 143.128 91.359C143.128 90.673 143.684 90.118 144.369 90.118C145.054 90.118 145.61 90.673 145.61 91.359C145.61 92.044 145.054 92.599 144.369 92.599Z" fill="#34675C" stroke="#34675C" stroke-miterlimit="22.9256"/>
<path fill-rule="evenodd" clip-rule="evenodd" d="M137.034 86.807C136.325 86.807 135.751 86.232 135.751 85.523C135.751 84.815 136.325 84.241 137.034 84.241C137.743 84.241 138.317 84.815 138.317 85.523C138.317 86.232 137.743 86.807 137.034 86.807Z" fill="#34675C" stroke="#34675C" stroke-miterlimit="22.9256"/>
<path fill-rule="evenodd" clip-rule="evenodd" d="M161.412 96.75C160.703 96.75 160.129 96.176 160.129 95.467C160.129 94.759 160.703 94.184 161.412 94.184C162.12 94.184 162.695 94.759 162.695 95.467C162.695 96.176 162.12 96.75 161.412 96.75Z" fill="#34675C" stroke="#34675C" stroke-miterlimit="22.9256"/>
<path fill-rule="evenodd" clip-rule="evenodd" d="M152.27 98.675C151.65 98.675 151.147 98.172 151.147 97.552C151.147 96.932 151.65 96.43 152.27 96.43C152.89 96.43 153.393 96.932 153.393 97.552C153.393 98.172 152.89 98.675 152.27 98.675Z" fill="#34675C" stroke="#34675C" stroke-miterlimit="22.9256"/>
<path fill-rule="evenodd" clip-rule="evenodd" d="M152.751 104.769C152.042 104.769 151.468 104.195 151.468 103.486C151.468 102.778 152.042 102.203 152.751 102.203C153.46 102.203 154.034 102.778 154.034 103.486C154.034 104.195 153.46 104.769 152.751 104.769Z" fill="#34675C" stroke="#34675C" stroke-miterlimit="22.9256"/>
<path d="M152.751 102.203C153.713 100.599 154.996 98.033 154.996 98.033C154.996 98.033 155.654 97.135 155.959 94.505C156.263 91.875 155.959 88.731 155.959 88.731C155.959 88.731 156.532 91.297 155.478 93.382C154.423 95.467 152.954 96.662 152.954 96.662" stroke="#34675C" stroke-miterlimit="22.9256"/>
<path d="M160.353 94.742C158.525 92.901 159.681 94.708 157.883 92.901C156.086 91.094 155.959 88.731 155.959 88.731" stroke="#34675C" stroke-miterlimit="22.9256"/>
<path d="M123.16 129.662C127.09 124.656 128.694 121.128 128.694 121.128C128.694 121.128 130.939 116.958 131.421 115.835C131.902 114.713 134.067 110.623 134.067 110.623L135.751 107.014L139.44 97.712C139.44 97.712 141.685 92.741 142.166 89.052C142.647 85.363 143.77 81.674 144.251 78.948C144.732 76.222 145.053 67.882 145.053 67.882L144.411 49.599" stroke="#34675C" stroke-miterlimit="22.9256"/>
<path d="M137.767 84.47C140.562 81.995 140.072 83.198 141.845 80.392C143.619 77.585 144.876 71.608 144.876 71.608" stroke="#34675C" stroke-miterlimit="22.9256"/>
<path d="M143.883 90.217C143.449 87.127 143.103 85.667 143.276 83.35" stroke="#34675C" stroke-miterlimit="22.9256"/>
<path d="M136.364 94.366C138.958 92.26 140.734 92.643 141.525 90.335C142.315 88.027 142.598 86.446 142.598 86.446" stroke="#34675C" stroke-miterlimit="22.9256"/>
<path d="M134.017 98.91C137.034 97.392 136.392 97.712 137.355 97.071C138.317 96.429 141.059 93.511 141.059 93.511" stroke="#34675C" stroke-miterlimit="22.9256"/>
<path d="M140.686 102.372C140.242 99.958 140.562 96.429 140.562 96.429L141.059 93.511" stroke="#34675C" stroke-miterlimit="22.9256"/>
<path d="M138.62 108.552C137.947 107.695 137.338 104.912 137.338 104.912L137.595 102.364" stroke="#34675C" stroke-miterlimit="22.9256"/>
<path d="M137.034 112.467C136.713 110.222 136.713 108.618 136.713 108.618L136.898 104.122" stroke="#34675C" stroke-miterlimit="22.9256"/>
<path d="M132.972 117.878C132.714 113.215 134.909 108.819 134.909 108.819" stroke="#34675C" stroke-miterlimit="22.9256"/>
<path d="M130.138 124.977C129.267 123.008 129.267 123.008 129.267 123.008L129.336 120.166" stroke="#34675C" stroke-miterlimit="22.9256"/>
<path d="M127.892 127.864C127.892 126.1 127.892 124.175 127.892 124.175L129.321 120.793L129.336 120.166" stroke="#34675C" stroke-miterlimit="22.9256"/>
<path d="M46.904 83.201C46.689 83.201 46.518 83.115 46.389 82.944C46.26 82.772 46.196 82.558 46.196 82.322C46.196 81.786 46.475 81.228 47.011 80.649C47.569 80.07 48.319 79.77 49.284 79.77C49.821 79.77 50.593 79.92 51.579 80.22C52.437 80.456 53.037 80.585 53.445 80.585C53.659 80.585 53.916 80.499 54.195 80.306C54.495 80.113 54.624 79.641 54.624 78.869C54.474 78.869 54.024 78.847 53.273 78.805C52.308 78.762 51.493 78.74 50.828 78.74L45.188 78.697C44.437 78.697 43.794 78.762 43.279 78.869L43.451 78.29C44.137 78.268 44.631 78.097 44.952 77.775C45.274 77.453 45.703 76.445 46.196 74.708L47.268 70.848L48.298 67.009C46.925 67.031 45.896 67.245 45.188 67.695C44.48 68.146 44.116 68.661 44.116 69.261C44.116 69.454 44.202 69.711 44.395 70.012C44.545 70.29 44.631 70.505 44.631 70.698C44.631 70.869 44.566 71.041 44.437 71.17C44.309 71.32 44.159 71.384 43.966 71.384C43.708 71.384 43.494 71.256 43.322 71.02C43.151 70.784 43.065 70.441 43.065 70.012C43.065 69.326 43.279 68.703 43.687 68.168C44.116 67.61 44.631 67.224 45.252 66.966C45.853 66.709 46.432 66.537 46.99 66.452C47.526 66.366 48.663 66.323 50.378 66.323C50.121 66.837 49.949 67.267 49.821 67.588C49.713 67.931 49.456 68.832 49.048 70.29C48.19 73.443 47.59 75.437 47.29 76.274C46.968 77.089 46.689 77.647 46.432 77.925C46.99 78.011 47.569 78.054 48.212 78.054C49.048 78.054 50.078 77.968 51.322 77.797C51.343 77.797 51.772 76.188 52.608 73.014C53.187 70.784 53.681 69.154 54.131 68.124C54.56 67.095 55.096 66.323 55.761 65.787C56.426 65.229 57.198 64.972 58.077 64.972C58.656 64.972 59.128 65.079 59.471 65.315C59.814 65.551 59.986 65.83 59.986 66.152C59.986 66.559 59.771 66.773 59.364 66.773C59.106 66.773 58.828 66.602 58.527 66.237C58.206 65.873 57.927 65.701 57.67 65.701C56.962 65.701 56.233 66.645 55.525 68.553C54.796 70.441 53.96 73.636 52.973 78.161C53.037 78.161 53.209 78.182 53.488 78.226C53.874 78.29 54.195 78.333 54.431 78.333C54.732 78.333 55.075 78.29 55.418 78.226L55.161 79.512C55.032 80.048 54.882 80.477 54.689 80.778C54.495 81.078 54.174 81.314 53.724 81.485C53.295 81.635 52.716 81.721 52.008 81.721C51.472 81.721 50.764 81.571 49.885 81.292C49.156 81.035 48.555 80.906 48.083 80.906C47.461 80.906 47.161 81.142 47.161 81.614C47.161 81.743 47.226 81.914 47.333 82.129C47.44 82.343 47.483 82.493 47.483 82.6C47.483 83.008 47.29 83.201 46.904 83.201ZM62.13 73.743L62.645 73.722C63.567 73.722 64.039 74.194 64.039 75.116C64.039 76.06 63.503 76.939 62.409 77.754C61.316 78.59 60.265 78.998 59.214 78.998C57.927 78.998 57.284 78.311 57.284 76.939C57.284 75.309 57.777 73.722 58.785 72.178C59.793 70.655 60.951 69.883 62.302 69.883C63.31 69.883 63.824 70.355 63.824 71.277C63.824 72.178 63.267 73.014 62.13 73.743ZM59.214 74.58C61.294 73.679 62.323 72.714 62.323 71.663C62.323 70.998 62.045 70.676 61.508 70.676C60.436 70.676 59.664 71.985 59.214 74.58ZM59.128 75.33C59.085 75.716 59.042 76.102 59.042 76.467C59.042 77.089 59.106 77.539 59.257 77.775C59.385 78.032 59.643 78.161 59.986 78.161C60.479 78.161 60.972 77.882 61.508 77.346C62.023 76.81 62.281 76.188 62.281 75.481C62.281 74.751 62.002 74.387 61.466 74.387C61.015 74.387 60.243 74.708 59.128 75.33ZM70.709 76.06L71.052 76.51C69.336 78.14 67.878 78.955 66.656 78.955C66.162 78.955 65.798 78.783 65.519 78.461C65.261 78.118 65.133 77.582 65.133 76.853C65.133 75.352 65.583 73.872 66.505 72.392C67.513 70.719 68.736 69.883 70.151 69.883C70.645 69.883 71.03 70.012 71.288 70.248C71.545 70.505 71.674 70.848 71.674 71.277C71.674 71.727 71.524 72.178 71.202 72.607C70.88 73.057 70.323 73.508 69.529 73.979C69.122 74.215 68.242 74.623 66.913 75.223C66.87 75.587 66.827 75.952 66.827 76.295C66.827 76.789 66.913 77.132 67.063 77.325C67.213 77.518 67.449 77.625 67.749 77.625C68.028 77.625 68.35 77.539 68.693 77.389C69.143 77.174 69.829 76.724 70.709 76.06ZM67.042 74.558C68.178 74.065 69.015 73.508 69.572 72.95C69.958 72.542 70.151 72.135 70.151 71.749C70.151 71.449 70.065 71.213 69.915 71.02C69.765 70.848 69.551 70.762 69.315 70.762C69.058 70.762 68.8 70.848 68.564 71.063C68.221 71.32 67.942 71.706 67.728 72.221C67.406 72.993 67.17 73.765 67.042 74.558ZM72.789 72.328L72.489 71.899C73.175 71.213 73.84 70.698 74.462 70.376C75.084 70.055 75.577 69.883 75.92 69.883C76.07 69.883 76.177 69.905 76.263 69.969C76.328 70.033 76.371 70.14 76.371 70.248C76.371 70.376 76.306 70.634 76.199 71.02C76.027 71.599 75.92 72.071 75.856 72.414C77.55 70.719 78.837 69.883 79.716 69.883C79.952 69.883 80.124 69.947 80.231 70.076C80.359 70.205 80.424 70.419 80.424 70.698C80.424 70.998 80.317 71.492 80.102 72.178C80.896 71.342 81.582 70.762 82.161 70.398C82.761 70.055 83.212 69.883 83.534 69.883C83.834 69.883 84.048 69.969 84.22 70.14C84.37 70.29 84.456 70.548 84.456 70.913C84.456 71.105 84.413 71.363 84.348 71.642C84.284 71.942 84.027 72.8 83.598 74.258C83.04 76.06 82.761 77.132 82.761 77.475C82.761 77.711 82.869 77.839 83.062 77.839C83.19 77.839 83.319 77.797 83.448 77.711C83.855 77.411 84.284 77.046 84.713 76.617L85.056 77.003C84.906 77.11 84.627 77.368 84.22 77.732C83.662 78.247 83.298 78.547 83.083 78.676C82.676 78.933 82.332 79.04 82.054 79.04C81.839 79.04 81.668 78.933 81.496 78.74C81.346 78.526 81.26 78.247 81.26 77.882C81.26 77.561 81.303 77.153 81.41 76.703C81.496 76.274 81.796 75.266 82.247 73.7C82.611 72.521 82.783 71.813 82.783 71.556C82.783 71.32 82.676 71.213 82.461 71.213C82.29 71.213 82.075 71.298 81.775 71.47C81.174 71.835 80.681 72.263 80.274 72.8C79.995 73.143 79.759 73.722 79.545 74.515C79.073 76.21 78.73 77.625 78.494 78.697H76.992L78.558 72.306C78.665 71.835 78.73 71.577 78.73 71.492C78.73 71.406 78.708 71.342 78.644 71.277C78.579 71.234 78.515 71.213 78.408 71.213C78.215 71.213 77.915 71.363 77.529 71.642C76.821 72.135 76.328 72.607 76.027 73.079C75.727 73.529 75.47 74.237 75.255 75.18L74.44 78.697H72.939L74.119 73.7C74.483 72.263 74.655 71.47 74.655 71.342C74.655 71.191 74.59 71.127 74.462 71.127C74.183 71.127 73.626 71.534 72.789 72.328ZM91.018 69.883C91.704 69.883 92.262 70.162 92.712 70.698C93.163 71.234 93.398 72.006 93.398 72.971C93.398 74.515 92.863 75.909 91.769 77.153C90.675 78.376 89.517 78.998 88.295 78.998C87.565 78.998 86.943 78.762 86.493 78.268C86.043 77.775 85.807 77.11 85.807 76.252C85.807 74.794 86.236 73.443 87.072 72.199C88.123 70.655 89.431 69.883 91.018 69.883ZM90.117 70.676C89.517 70.676 88.959 71.105 88.402 71.942C87.844 72.8 87.565 73.958 87.565 75.459C87.565 76.36 87.737 77.089 88.08 77.603C88.337 77.99 88.659 78.182 89.088 78.182C89.667 78.182 90.203 77.818 90.675 77.089C91.297 76.145 91.597 74.987 91.597 73.593C91.597 72.542 91.468 71.792 91.168 71.342C90.89 70.891 90.546 70.676 90.117 70.676ZM94.171 72.285L93.72 71.921C95.179 70.569 96.294 69.883 97.045 69.883C97.409 69.883 97.602 70.14 97.602 70.634C97.602 70.998 97.495 71.663 97.237 72.628L96.851 74.194C96.83 74.344 96.809 74.473 96.809 74.537C96.809 74.816 96.98 74.944 97.345 74.944C97.688 74.944 98.16 74.73 98.76 74.279C99.361 73.829 99.768 73.357 100.026 72.843C100.261 72.328 100.54 71.427 100.819 70.14H102.32L101.355 73.808C100.776 75.931 100.476 77.132 100.476 77.432C100.476 77.711 100.583 77.839 100.776 77.839C101.033 77.839 101.613 77.389 102.513 76.489L102.856 76.874C101.441 78.333 100.39 79.062 99.725 79.062C99.532 79.062 99.339 78.976 99.168 78.805C98.996 78.611 98.91 78.376 98.91 78.076C98.91 77.711 98.975 77.239 99.125 76.639L99.725 74.279C98.181 75.545 97.002 76.188 96.165 76.188C95.5 76.188 95.179 75.888 95.179 75.287C95.179 74.987 95.372 74.129 95.758 72.692C95.929 72.028 96.015 71.62 96.015 71.47C96.015 71.256 95.929 71.17 95.779 71.17C95.479 71.17 94.964 71.534 94.171 72.285ZM112.721 76.853C111.306 78.333 110.255 79.062 109.59 79.062C109.397 79.062 109.204 78.976 109.033 78.805C108.861 78.633 108.775 78.376 108.775 78.076C108.775 77.711 108.84 77.26 108.99 76.681L109.505 74.623H106.631L105.644 78.697H104.079C104.1 78.611 104.164 78.333 104.293 77.839C104.4 77.497 104.593 76.767 104.851 75.695L105.795 71.942C105.837 71.749 105.859 71.599 105.859 71.492C105.859 71.277 105.795 71.17 105.644 71.17C105.344 71.17 104.787 71.534 104.036 72.285L103.564 71.921C105.044 70.569 106.159 69.883 106.91 69.883C107.296 69.883 107.489 70.14 107.489 70.655C107.489 71.148 107.253 72.242 106.803 73.979H109.655L110.684 70.14H112.207L111.22 73.808C110.641 75.931 110.341 77.132 110.341 77.432C110.341 77.711 110.448 77.839 110.641 77.839C110.898 77.839 111.477 77.389 112.378 76.467L112.721 76.853ZM120.635 69.711L121.343 69.561L120.549 72.221C120.249 73.271 119.949 74.473 119.67 75.866C119.52 76.595 119.434 77.089 119.434 77.303C119.434 77.518 119.52 77.625 119.692 77.625C119.798 77.625 119.992 77.561 120.227 77.411C120.656 77.153 121.064 76.831 121.45 76.467L121.793 76.874C121 77.582 120.485 78.032 120.271 78.182C119.82 78.483 119.391 78.719 119.005 78.847C118.726 78.955 118.469 78.998 118.211 78.998C118.04 78.998 117.911 78.955 117.804 78.869C117.718 78.783 117.676 78.655 117.676 78.504C117.676 78.397 117.697 78.268 117.761 78.076L118.19 76.66C117.59 77.389 116.86 78.011 116.024 78.526C115.531 78.847 115.059 78.998 114.63 78.998C114.223 78.998 113.922 78.847 113.708 78.569C113.408 78.182 113.258 77.668 113.258 77.046C113.258 76.317 113.451 75.481 113.858 74.58C114.244 73.679 114.78 72.843 115.445 72.113C116.088 71.363 116.796 70.827 117.525 70.462C118.083 70.205 118.812 70.076 119.713 70.076C119.927 70.076 120.163 70.097 120.377 70.119L120.635 69.711ZM119.348 71.32C118.962 71.256 118.64 71.213 118.383 71.213C117.761 71.213 117.225 71.384 116.753 71.727C116.281 72.071 115.853 72.692 115.445 73.593C115.038 74.494 114.845 75.395 114.845 76.274C114.845 76.767 114.93 77.089 115.08 77.303C115.252 77.518 115.466 77.625 115.724 77.625C116.195 77.625 116.71 77.368 117.268 76.853C117.804 76.317 118.211 75.566 118.469 74.601L119.348 71.32ZM122.329 76.595C122.522 77.239 122.651 77.625 122.737 77.754C122.801 77.904 122.93 77.968 123.123 77.968C123.444 77.968 123.83 77.603 124.259 76.896C124.688 76.166 125.074 75.674 125.396 75.416C125.718 75.159 126.254 74.923 127.005 74.73V74.601H126.726C125.846 74.601 125.181 74.43 124.731 74.087C124.281 73.765 124.066 73.336 124.066 72.843C124.066 72.049 124.56 71.406 125.524 70.913C126.49 70.398 127.755 70.14 129.363 70.14L131.229 70.183L130.243 73.829C129.664 75.931 129.385 77.132 129.385 77.432C129.385 77.711 129.492 77.839 129.685 77.839C129.921 77.839 130.5 77.389 131.401 76.489L131.744 76.874C130.35 78.333 129.321 79.062 128.656 79.062C128.42 79.062 128.227 78.976 128.077 78.783C127.927 78.59 127.841 78.311 127.841 77.947C127.841 77.561 127.905 77.132 128.055 76.595L128.527 74.794C127.948 74.794 127.476 74.966 127.111 75.287C126.747 75.631 126.275 76.295 125.696 77.325C125.031 78.483 124.302 79.062 123.466 79.062C123.144 79.062 122.844 78.955 122.587 78.719C122.329 78.504 122.072 77.839 121.814 76.767L122.329 76.595ZM129.514 71.105C129.106 70.998 128.634 70.934 128.141 70.934C127.562 70.934 127.026 71.105 126.532 71.449C126.061 71.792 125.825 72.242 125.825 72.8C125.825 73.765 126.468 74.237 127.755 74.237C127.969 74.237 128.291 74.215 128.698 74.172L129.514 71.105Z" fill="#34675C"/>
<path d="M81.028 89.52C81.371 90.828 81.821 92.737 82.422 95.268C83.001 97.798 83.344 99.214 83.451 99.493C83.494 99.385 83.708 98.528 84.073 96.941C84.566 94.882 84.995 93.316 85.381 92.222C85.788 91.107 86.239 90.314 86.796 89.863C87.354 89.391 87.998 89.156 88.748 89.156C89.198 89.156 89.541 89.241 89.777 89.413C90.014 89.606 90.142 89.82 90.142 90.056C90.142 90.228 90.078 90.378 89.949 90.528C89.82 90.657 89.67 90.721 89.499 90.721C89.37 90.721 89.241 90.678 89.07 90.614C88.598 90.421 88.255 90.314 88.019 90.314C87.719 90.314 87.44 90.421 87.183 90.614C86.925 90.807 86.603 91.365 86.239 92.265C85.853 93.166 85.467 94.431 85.038 96.104C84.609 97.756 84.18 99.557 83.751 101.487L83.387 103.053C83.301 102.881 83.108 102.495 82.786 101.852C82.422 101.165 82.143 100.522 81.95 99.9C81.757 99.299 81.392 97.863 80.877 95.632L80.041 91.986C79.891 92.909 79.483 94.667 78.819 97.262C78.154 99.857 77.489 101.509 76.824 102.216C76.138 102.924 75.366 103.267 74.465 103.267C73.822 103.267 73.307 103.138 72.921 102.902C72.556 102.645 72.364 102.345 72.364 102.002C72.364 101.873 72.428 101.744 72.535 101.616C72.642 101.509 72.792 101.444 72.964 101.444C73.2 101.444 73.436 101.551 73.672 101.787C74.122 102.195 74.53 102.388 74.894 102.388C75.966 102.388 76.867 101.23 77.596 98.914C78.325 96.597 78.99 93.767 79.591 90.443C79.098 90.443 78.411 90.571 77.553 90.807C76.674 91.043 76.03 91.407 75.623 91.879C75.194 92.351 74.98 92.887 74.98 93.509C74.98 93.938 75.108 94.367 75.344 94.753C75.494 95.01 75.58 95.203 75.58 95.354C75.58 95.504 75.516 95.654 75.409 95.782C75.28 95.89 75.13 95.954 74.958 95.954C74.68 95.954 74.444 95.804 74.272 95.525C74.101 95.225 74.015 94.817 74.015 94.281C74.015 93.338 74.251 92.544 74.722 91.879C75.194 91.214 75.752 90.764 76.395 90.485C77.038 90.228 78.09 89.992 79.526 89.799C80.084 89.713 80.599 89.627 81.028 89.52ZM91.257 96.125C91.257 97.133 90.957 98.077 90.378 98.935C89.777 99.814 89.048 100.243 88.19 100.243C87.611 100.243 87.161 100.029 86.839 99.621C86.517 99.214 86.346 98.72 86.346 98.163C86.346 97.155 86.625 96.211 87.204 95.311C87.783 94.41 88.512 93.96 89.413 93.96C89.949 93.96 90.378 94.131 90.721 94.496C91.086 94.86 91.257 95.396 91.257 96.125ZM90.014 95.847C90.014 94.86 89.777 94.367 89.284 94.367C88.834 94.367 88.448 94.817 88.105 95.696C87.783 96.576 87.611 97.455 87.611 98.335C87.611 99.343 87.869 99.836 88.362 99.836C88.791 99.836 89.156 99.407 89.499 98.57C89.842 97.734 90.014 96.812 90.014 95.847ZM85.681 101.401H90.249V102.13H85.681V101.401ZM95.267 92.008L94.839 91.708C95.546 90.893 96.083 90.378 96.404 90.164C97.026 89.778 97.627 89.585 98.27 89.585C98.892 89.585 99.407 89.756 99.771 90.078C100.136 90.399 100.329 90.828 100.329 91.343C100.329 92.437 99.493 93.595 97.841 94.817C98.399 94.839 98.828 94.946 99.128 95.117C99.407 95.289 99.664 95.568 99.835 95.933C100.029 96.276 100.114 96.704 100.114 97.219C100.114 98.57 99.428 99.814 98.077 100.972C96.919 101.98 95.718 102.473 94.496 102.473C93.959 102.473 93.466 102.345 93.016 102.088C92.565 101.852 92.351 101.53 92.351 101.165C92.351 101.015 92.415 100.865 92.522 100.758C92.63 100.651 92.78 100.586 92.93 100.586C93.144 100.586 93.38 100.715 93.638 100.972C94.002 101.315 94.26 101.53 94.431 101.616C94.688 101.723 94.903 101.787 95.075 101.787C95.632 101.787 96.233 101.465 96.898 100.822C97.884 99.878 98.377 98.849 98.377 97.712C98.377 97.155 98.227 96.683 97.906 96.361C97.605 96.018 97.198 95.847 96.726 95.847C96.361 95.847 95.954 95.933 95.504 96.083L95.589 95.439C96.49 95.117 97.283 94.56 98.013 93.767C98.506 93.209 98.764 92.63 98.764 92.072C98.764 91.622 98.656 91.279 98.442 91.043C98.206 90.807 97.927 90.678 97.541 90.678C96.748 90.678 95.997 91.128 95.267 92.008Z" fill="#34675C"/>
</svg>
