<?xml version="1.0" encoding="UTF-8"?>
<!DOCTYPE svg PUBLIC "-//W3C//DTD SVG 1.1//EN" "http://www.w3.org/Graphics/SVG/1.1/DTD/svg11.dtd">
<!-- Creator: CorelDRAW 2018 (64-Bit) -->
<svg xmlns="http://www.w3.org/2000/svg" xml:space="preserve" width="300px" height="300px" version="1.1" style="shape-rendering:geometricPrecision; text-rendering:geometricPrecision; image-rendering:optimizeQuality; fill-rule:evenodd; clip-rule:evenodd"
viewBox="0 0 300 300"
 xmlns:xlink="http://www.w3.org/1999/xlink">
 <defs>
  <style type="text/css">
   <![CDATA[
    .str0 {stroke:#34675C;stroke-width:0.6;stroke-miterlimit:22.9256}
    .fil1 {fill:none}
    .fil3 {fill:#34675C}
    .fil2 {fill:#7DA3A1}
    .fil0 {fill:#86AC41}
   ]]>
  </style>
 </defs>
 <g id="Слой_x0020_1">
  <metadata id="CorelCorpID_0Corel-Layer"/>
  <path class="fil0 str0" d="M219.758 45.057c-9.202,-3.578 -19.63,-6.561 -26.378,-10.735 -6.746,-4.176 -15.334,-5.369 -20.855,-5.369 -5.52,0 -21.471,0 -26.991,1.791 -5.521,1.789 -12.268,2.98 -12.268,2.98 0,0 6.441,3.282 13.496,5.966 7.053,2.683 13.188,4.474 20.855,6.56 7.667,2.088 16.561,2.983 25.151,2.983 8.588,0 10.427,0.597 16.562,-0.596 6.134,-1.193 10.428,-3.58 10.428,-3.58z"/>
  <path class="fil0 str0" d="M175.024 6.233c-3.589,-0.597 -11.963,-1.795 -22.73,0.599 -10.767,2.392 -11.964,1.793 -15.553,2.99 -3.59,1.197 -6.579,1.795 -9.571,5.982 -2.99,4.187 -10.467,15.851 -12.56,18.544 -7.076,9.097 1.615,0.317 10.766,-0.598 5.981,-0.599 7.178,-2.992 14.357,-6.58 7.178,-3.59 5.384,-4.786 11.365,-8.374 5.982,-3.59 3.589,-2.992 8.374,-4.189 4.785,-1.196 15.552,-8.374 15.552,-8.374z"/>
  <path class="fil1 str0" d="M175.024 6.233c0,0 -16.104,0.594 -20.279,1.787 -4.174,1.194 -11.929,4.176 -16.104,6.561 -4.174,2.385 -7.157,5.369 -9.543,8.35 -2.385,2.982 -17.038,15.449 -17.038,15.449 0,0 9.881,-5.309 15.844,-8.887 5.965,-3.58 9.842,-5.666 13.72,-9.543 3.876,-3.877 4.771,-3.58 8.349,-5.369 3.578,-1.789 7.754,-5.367 12.526,-5.965 4.771,-0.596 12.525,-2.383 12.525,-2.383l0 0z"/>
  <path class="fil0 str0" d="M123.73 8.616c-7.754,2.983 -11.332,3.58 -16.104,5.965 -9.344,4.672 -17.399,7.907 -23.26,16.699 -2.387,3.581 -5.369,6.563 -6.563,11.93 -1.191,5.368 -5.07,12.228 -5.963,14.911 -0.894,2.684 -1.194,4.772 -1.194,4.772l10.737 -10.139c8.946,-9.544 10.735,-11.333 10.735,-11.333 0,0 2.387,-2.982 8.947,-10.141 6.561,-7.156 12.526,-12.523 12.526,-12.523l10.139 -10.141z"/>
  <path class="fil0 str0" d="M123.73 8.616c-5.21,1.833 -11.074,5.057 -15.508,8.35 0,0 -8.35,5.369 -10.736,7.754 -2.385,2.387 -5.667,3.877 -7.157,6.56 -1.49,2.686 -4.772,5.369 -6.561,7.754 -1.789,2.387 -2.983,4.176 -3.578,6.563 -0.596,2.385 -2.387,4.174 -3.281,6.262 -0.895,2.088 -5.154,9.986 -5.154,9.986 0,0 7.242,-7.898 10.82,-12.074 3.578,-4.174 6.56,-8.946 6.56,-8.946 0,0 4.176,-5.964 7.754,-8.947 3.579,-2.983 2.387,-2.385 5.966,-6.561 3.578,-4.176 7.158,-7.156 7.158,-7.156l13.717 -9.545z"/>
  <path class="fil1 str0" d="M74.225 30.685c-10.737,5.964 -9.543,5.367 -11.928,7.754 -2.387,2.386 -9.544,7.158 -11.93,11.93 -2.385,4.769 -5.368,7.752 -5.368,10.735"/>
  <path class="fil0 str0" d="M74.225 30.685c-1.975,1.099 -8.428,3.021 -11.072,6.878 -2.646,3.858 -8.463,5.935 -11.099,10.253 -2.637,4.321 -6.457,9.113 -7.055,13.288 -0.596,4.175 -2.387,5.367 -2.387,10.736 0,5.367 0,8.35 0.599,10.735 0.595,2.387 2.982,10.736 2.982,10.736 0,0 5.367,-7.752 8.35,-13.121 2.982,-5.368 4.174,-5.368 7.754,-14.315 3.578,-8.946 2.683,-7.455 4.174,-13.719 1.492,-6.262 2.387,-7.752 4.175,-13.122 1.79,-5.367 3.579,-8.349 3.579,-8.349z"/>
  <path class="fil1 str0" d="M74.225 30.685c-6.262,6.264 -13.121,11.334 -14.612,15.209 -1.492,3.877 -7.457,9.842 -9.246,15.21 -1.789,5.367 -3.579,7.158 -4.174,11.929 -0.597,4.77 -0.299,19.232 -0.299,19.232 0,0 5.069,-10.286 6.859,-17.443 1.79,-7.158 3.878,-12.824 6.561,-17.893 2.684,-5.07 4.772,-10.736 7.157,-14.912 2.387,-4.174 7.754,-11.332 7.754,-11.332l0 0z"/>
  <path class="fil1 str0" d="M216.041 44.857c-8.35,-1.191 -20.875,-3.578 -23.26,-5.367 -2.387,-1.789 -8.352,-3.578 -13.122,-4.771 -4.771,-1.194 -13.123,-2.981 -17.297,-2.981 -4.176,0 -23.701,0.323 -24.983,0.624 -1.282,0.298 -3.051,1.163 -3.051,1.163 0,0 8.35,1.194 13.122,1.194 4.773,0 8.947,3.578 11.332,3.578 2.387,0 8.948,1.791 13.72,1.791 4.771,0 7.157,0.596 12.525,1.787 5.367,1.195 5.367,2.387 10.139,2.982 4.771,0.598 20.875,0 20.875,0l0 0z"/>
  <path class="fil1 str0" d="M134.467 34.265c-8.35,1.191 -9.804,0.653 -16.104,2.384 -6.303,1.731 -12.526,4.176 -12.526,4.176 0,0 -7.158,2.385 -9.543,4.175 -2.387,1.788 -13.8,8.062 -16.403,9.842 -2.602,1.778 -8.731,7.567 -8.731,7.567 0,0 -9.461,8.238 -10.056,10.027 -0.597,1.789 -13.122,16.702 -14.911,20.875 -1.79,4.176 -7.754,14.911 -8.948,20.28 -1.193,5.368 -2.384,10.735 -2.384,10.735 0,0 -2.387,5.965 -2.684,8.053 -0.299,2.088 -0.897,12.824 -0.897,16.999 0,4.175 0.598,19.681 1.194,23.858 0.597,4.175 4.771,14.91 4.771,16.103 0,1.194 3.877,11.034 5.367,14.315 1.493,3.28 5.071,11.631 7.755,14.911 2.684,3.281 12.525,15.508 12.525,15.508"/>
  <path class="fil0 str0" d="M161.305 52.754c-7.156,-1.789 -15.506,-4.772 -19.086,-5.367 -3.578,-0.599 -7.752,-3.581 -14.315,-3.581 -6.56,0 -11.928,-0.596 -15.506,0 -3.579,0.598 -12.526,2.982 -14.912,4.176 -2.385,1.193 -15.507,5.965 -18.489,8.947 -2.983,2.981 -2.983,0.893 -2.983,0.893 0,0 11.334,-0.893 18.491,0.897 7.156,1.789 15.508,2.385 24.454,1.789 8.945,-0.598 13.717,0 20.278,-2.387 6.562,-2.385 22.068,-5.367 22.068,-5.367z"/>
  <path class="fil0 str0" d="M161.305 52.754c-0.573,0 -1.143,-0.002 -1.709,-0.004 -11.79,-0.05 -21.852,-0.619 -28.112,-1.19 -6.561,-0.595 -11.332,-0.595 -17.297,-0.595 -5.965,0 -7.157,0 -11.928,0.595 -4.773,0.596 -10.737,2.387 -13.719,2.982 -2.983,0.596 -9.003,1.91 -9.003,1.91l21.528 -1.314 15.507 0 17.297 0 17.297 -1.191 10.139 -1.193z"/>
  <path class="fil0 str0" d="M114.782 63.489c-10.139,2.982 -15.506,2.386 -25.049,5.964 -9.543,3.58 -14.912,5.965 -19.087,7.754 -4.175,1.79 -6.56,2.983 -8.947,5.368 -2.385,2.387 -8.946,5.964 -11.928,9.543 -2.983,3.58 -6.97,8.21 -6.97,8.21 0,0 11.144,-4.63 17.109,-5.823 5.965,-1.194 17.298,-4.176 21.473,-5.966 4.174,-1.788 14.911,-4.173 19.085,-7.751 4.175,-3.581 10.737,-11.93 10.737,-11.93l3.577 -5.369z"/>
  <path class="fil1 str0" d="M114.782 63.489c-8.945,4.773 -11.927,5.369 -12.523,5.964 -0.598,0.598 -11.93,6.563 -15.508,7.159 -3.579,0.595 -9.543,4.176 -11.333,4.176 -1.789,0 -19.086,8.35 -19.086,8.35l-12.79 10.327 11.596 -5.558 13.72 -5.368 14.016 -6.857c0,0 8.648,-2.088 12.824,-3.879 4.174,-1.787 10.139,-7.156 10.139,-7.156l8.945 -7.158 0 0z"/>
  <path class="fil0 str0" d="M84.366 90.329c-5.966,4.773 -8.948,5.965 -8.948,5.965l-10.438 6.264 -9.842 7.455c0,0 -5.963,4.174 -7.156,6.561 -1.194,2.385 -5.37,4.771 -6.561,7.156 -1.193,2.387 -6.56,11.332 -6.56,11.332l-3.439 9.082 -0.142 5.234 5.369 -7.753 9.544 -8.947 7.752 -4.771 10.737 -8.948c0,0 10.139,-7.157 11.332,-9.544 1.194,-2.384 3.579,-4.173 5.965,-8.35 2.387,-4.175 3.51,-13.971 2.387,-10.736z"/>
  <path class="fil1 str0" d="M84.366 90.329c-5.369,5.965 -9.545,11.93 -12.526,13.123 -2.982,1.192 -10.736,6.561 -13.123,8.946 -2.385,2.387 -9.542,8.947 -9.542,8.947l-6.563 6.562 -5.963 8.349 -4.175 10.139 -1.164 1.913 5.339 -8.474c0,0 5.963,-5.367 8.947,-8.35 2.982,-2.982 10.736,-10.139 10.736,-10.139l7.156 -5.369 7.754 -6.561 4.176 -5.367 5.367 -7.754 3.581 -5.965 0 0z"/>
  <path class="fil2 str0" d="M23.528 60.508c-3.58,5.367 -5.369,12.525 -5.965,15.508 -0.597,2.981 -2.982,5.368 -2.982,10.735 0,5.367 0,8.35 1.789,13.121 1.789,4.772 0.895,2.686 0.895,2.686 0,0 1.789,-2.983 3.876,-7.456 2.088,-4.474 2.983,-6.563 2.983,-11.93 0,-5.369 0.596,-12.525 0.596,-14.91 0,-2.387 -1.192,-7.754 -1.192,-7.754z"/>
  <path class="fil2 str0" d="M5.633 83.768c-1.191,5.37 -1.789,9.543 -1.191,14.315 0.595,4.772 1.789,10.736 3.578,14.315 1.789,3.578 3.578,7.754 5.965,10.737 2.385,2.982 3.578,5.367 3.578,5.367l-1.193 -10.139c0,0 0,-4.176 -2.088,-9.842 -2.088,-5.666 -3.876,-12.227 -3.876,-12.227l-4.773 -12.526z"/>
  <path class="fil0 str0" d="M35.457 71.243c-1.194,2.387 -5.966,10.736 -7.159,13.719 -1.192,2.982 -4.174,10.736 -4.174,14.91 0,4.176 -0.598,10.141 0,12.526 0.596,2.387 1.789,11.93 2.982,13.719 1.192,1.79 4.47,14.754 4.47,14.754l2.687 -23.702 1.194 -16.104 0 -17.297 0 -12.525z"/>
  <path class="fil0 str0" d="M35.456 71.243c0,0 -0.203,0.58 -0.526,1.521 -0.499,1.463 -1.291,3.798 -2.058,6.196 -0.981,3.062 -1.926,6.226 -2.187,7.791 -0.596,3.578 -2.387,9.543 -2.387,13.121 0,3.58 -0.894,9.842 0,13.719 0.896,3.877 0.002,7.157 0.896,9.841 0.895,2.685 1.414,13.729 1.414,13.729l1.569 -13.729 0.297 -12.226 0 -13.123c0,0 0.597,-4.772 0.597,-8.35 0,-3.578 2.385,-18.49 2.385,-18.49z"/>
  <path class="fil2 str0" d="M28.127 144.655c-2.387,2.385 -3.579,3.579 -3.579,5.368 0,1.789 -0.597,5.965 0,8.35 0.596,2.386 1.789,8.947 1.789,8.947l1.79 6.561 0.595 -7.156c0,0 0.598,-6.563 0.598,-10.141 0,-3.579 -1.193,-11.929 -1.193,-11.929z"/>
  <path class="fil2 str0" d="M9.214 154.149c3.577,1.193 2.085,-0.895 6.56,3.578 4.473,4.475 4.174,3.581 7.157,8.352 2.982,4.77 3.578,5.963 5.367,8.35 1.791,2.384 0.896,2.683 0.896,2.683 0,0 -2.685,-0.894 -4.474,-2.683 -1.789,-1.789 -7.455,-6.264 -7.455,-6.264 0,0 -3.28,-4.473 -4.474,-8.051 -1.193,-3.578 -3.577,-5.965 -3.577,-5.965z"/>
  <path class="fil1 str0" d="M17.265 102.558c-0.895,15.805 0.299,25.944 0.299,25.944l1.788 18.491 7.212 24.95c0,0 6.336,16.738 10.086,21.571 3.75,4.834 9.543,16.701 16.103,23.262 6.562,6.56 14.911,16.104 14.911,16.104"/>
  <path class="fil3 str0" d="M81.916 66.471c1.284,0 2.324,1.14 2.324,2.544 0,1.405 -1.04,2.543 -2.324,2.543 -1.283,0 -2.322,-1.138 -2.322,-2.543 0,-1.404 1.039,-2.544 2.322,-2.544z"/>
  <path class="fil3 str0" d="M71.542 70.051c1.152,0 2.087,0.935 2.087,2.088 0,1.153 -0.935,2.086 -2.087,2.086 -1.153,0 -2.089,-0.933 -2.089,-2.086 0,-1.153 0.936,-2.088 2.089,-2.088z"/>
  <path class="fil3 str0" d="M81.167 81.478c1.107,0 2.005,0.895 2.005,2.005 0,1.106 -0.898,2.002 -2.005,2.002 -1.106,0 -2.005,-0.896 -2.005,-2.002 0,-1.11 0.899,-2.005 2.005,-2.005z"/>
  <path class="fil3 str0" d="M67.365 75.418c1.153,0 2.088,0.935 2.088,2.088 0,1.153 -0.935,2.088 -2.088,2.088 -1.152,0 -2.086,-0.935 -2.086,-2.088 0,-1.153 0.934,-2.088 2.086,-2.088z"/>
  <path class="fil3 str0" d="M62.096 87.619c1.427,0 2.586,1.159 2.586,2.588 0,1.428 -1.159,2.586 -2.586,2.586 -1.43,0 -2.588,-1.158 -2.588,-2.586 0,-1.429 1.158,-2.588 2.588,-2.588z"/>
  <path class="fil3 str0" d="M70.646 95.102c1.317,0 2.385,1.068 2.385,2.385 0,1.317 -1.068,2.385 -2.385,2.385 -1.316,0 -2.386,-1.068 -2.386,-2.385 0,-1.317 1.07,-2.385 2.386,-2.385z"/>
  <path class="fil3 str0" d="M54.543 98.083c1.317,0 2.385,1.068 2.385,2.387 0,1.317 -1.068,2.385 -2.385,2.385 -1.319,0 -2.387,-1.068 -2.387,-2.385 0,-1.319 1.068,-2.387 2.387,-2.387z"/>
  <path class="fil3 str0" d="M50.07 105.242c1.481,0 2.683,1.2 2.683,2.683 0,1.481 -1.202,2.684 -2.683,2.684 -1.483,0 -2.686,-1.203 -2.686,-2.684 0,-1.483 1.203,-2.683 2.686,-2.683z"/>
  <path class="fil3 str0" d="M61.998 123.432c1.483,0 2.684,1.202 2.684,2.685 0,1.483 -1.201,2.684 -2.684,2.684 -1.481,0 -2.684,-1.201 -2.684,-2.684 0,-1.483 1.203,-2.685 2.684,-2.685z"/>
  <path class="fil3 str0" d="M46.49 116.574c1.483,0 2.685,1.201 2.685,2.683 0,1.483 -1.202,2.684 -2.685,2.684 -1.481,0 -2.684,-1.201 -2.684,-2.684 0,-1.482 1.203,-2.683 2.684,-2.683z"/>
  <path class="fil3 str0" d="M57.822 132.08c1.483,0 2.685,1.203 2.685,2.684 0,1.483 -1.202,2.685 -2.685,2.685 -1.481,0 -2.684,-1.202 -2.684,-2.685 0,-1.481 1.203,-2.684 2.684,-2.684z"/>
  <path class="fil3 str0" d="M40.903 139.799c1.275,0 2.308,1.033 2.308,2.308 0,1.274 -1.033,2.307 -2.308,2.307 -1.275,0 -2.307,-1.033 -2.307,-2.307 0,-1.275 1.032,-2.308 2.307,-2.308z"/>
  <path class="fil3 str0" d="M54.543 150.571c1.317,0 2.385,1.067 2.385,2.385 0,1.318 -1.068,2.386 -2.385,2.386 -1.319,0 -2.387,-1.068 -2.387,-2.386 0,-1.318 1.068,-2.385 2.387,-2.385z"/>
  <path class="fil3 str0" d="M9.211 132.08c1.32,0 2.387,1.068 2.387,2.387 0,1.317 -1.067,2.385 -2.387,2.385 -1.316,0 -2.384,-1.068 -2.384,-2.385 0,-1.319 1.068,-2.387 2.384,-2.387z"/>
  <path class="fil3 str0" d="M26.21 128.502c1.155,0 2.088,0.935 2.088,2.088 0,1.153 -0.933,2.088 -2.088,2.088 -1.151,0 -2.086,-0.935 -2.086,-2.088 0,-1.153 0.935,-2.088 2.086,-2.088z"/>
  <path class="fil3 str0" d="M25.317 117.169c1.317,0 2.385,1.068 2.385,2.385 0,1.319 -1.068,2.387 -2.385,2.387 -1.318,0 -2.386,-1.068 -2.386,-2.387 0,-1.317 1.068,-2.385 2.386,-2.385z"/>
  <path class="fil1 str0" d="M25.317 121.941c-1.789,2.983 -4.176,7.754 -4.176,7.754 0,0 -1.223,1.671 -1.789,6.561 -0.566,4.889 0,10.737 0,10.737 0,0 -1.066,-4.772 0.895,-8.649 1.962,-3.877 4.692,-6.099 4.692,-6.099"/>
  <path class="fil1 str0" d="M11.182 135.815c3.399,3.424 1.248,0.063 4.592,3.424 3.342,3.36 3.578,7.754 3.578,7.754"/>
  <path class="fil1 str0" d="M80.339 70.883c-7.308,9.307 -10.288,15.868 -10.288,15.868 0,0 -4.176,7.754 -5.071,9.842 -0.894,2.087 -4.921,9.692 -4.921,9.692l-3.131 6.709 -6.858 17.297c0,0 -4.176,9.246 -5.071,16.104 -0.894,6.859 -2.982,13.719 -3.877,18.788 -0.894,5.07 -1.492,20.578 -1.492,20.578l1.194 33.997"/>
  <path class="fil1 str0" d="M53.18 154.914c-5.198,4.602 -4.287,2.367 -7.584,7.585 -3.299,5.22 -5.637,16.333 -5.637,16.333"/>
  <path class="fil1 str0" d="M41.807 144.229c0.805,5.746 1.451,8.459 1.128,12.77"/>
  <path class="fil1 str0" d="M55.787 136.514c-4.822,3.916 -8.124,3.204 -9.594,7.496 -1.47,4.292 -1.998,7.23 -1.998,7.23"/>
  <path class="fil1 str0" d="M60.153 128.065c-5.61,2.824 -4.417,2.226 -6.208,3.419 -1.789,1.194 -6.889,6.62 -6.889,6.62"/>
  <path class="fil1 str0" d="M47.752 121.627c0.826,4.49 0.23,11.051 0.23,11.051l-0.926 5.426"/>
  <path class="fil1 str0" d="M51.591 110.135c1.253,1.593 2.385,6.769 2.385,6.769l-0.477 4.738"/>
  <path class="fil1 str0" d="M54.543 102.855c0.595,4.176 0.595,7.158 0.595,7.158l-0.343 8.361"/>
  <path class="fil1 str0" d="M62.096 92.793c0.479,8.672 -3.602,16.845 -3.602,16.845"/>
  <path class="fil1 str0" d="M67.365 79.594c1.619,3.661 1.619,3.661 1.619,3.661l-0.126 5.284"/>
  <path class="fil1 str0" d="M71.542 74.225c0,3.281 0,6.86 0,6.86l-2.656 6.289 -0.028 1.165"/>
  <path class="fil0 str0" d="M82.038 256.603c9.127,3.551 19.47,6.507 26.164,10.65 6.691,4.14 15.211,5.325 20.687,5.325 5.476,0 21.296,0 26.772,-1.776 5.477,-1.774 12.17,-2.959 12.17,-2.959 0,0 -6.389,-3.253 -13.387,-5.915 -6.997,-2.664 -13.081,-4.438 -20.687,-6.509 -7.607,-2.07 -16.429,-2.956 -24.947,-2.956 -8.519,0 -10.345,-0.593 -16.428,0.591 -6.085,1.183 -10.344,3.549 -10.344,3.549z"/>
  <path class="fil0 str0" d="M126.408 295.114c3.562,0.593 11.867,1.779 22.547,-0.594 10.681,-2.373 11.867,-1.78 15.429,-2.967 3.56,-1.185 6.525,-1.779 9.492,-5.933 2.967,-4.154 10.384,-15.724 12.461,-18.393 7.017,-9.023 -1.603,-0.315 -10.682,0.592 -5.932,0.594 -7.119,2.968 -14.239,6.527 -7.12,3.561 -5.34,4.749 -11.273,8.308 -5.934,3.56 -3.56,2.966 -8.308,4.152 -4.746,1.188 -15.427,8.308 -15.427,8.308z"/>
  <path class="fil1 str0" d="M126.408 295.114c0,0 15.975,-0.589 20.116,-1.773 4.142,-1.184 11.834,-4.141 15.975,-6.507 4.141,-2.367 7.099,-5.325 9.466,-8.284 2.366,-2.957 16.9,-15.323 16.9,-15.323 0,0 -9.801,5.266 -15.717,8.816 -5.917,3.55 -9.762,5.62 -13.608,9.466 -3.845,3.846 -4.733,3.549 -8.283,5.325 -3.549,1.774 -7.691,5.323 -12.425,5.915 -4.733,0.592 -12.424,2.365 -12.424,2.365l0 0z"/>
  <path class="fil0 str0" d="M177.289 292.749c7.692,-2.956 11.241,-3.549 15.973,-5.915 9.269,-4.634 17.259,-7.845 23.074,-16.565 2.367,-3.551 5.326,-6.51 6.508,-11.834 1.184,-5.323 5.03,-12.128 5.917,-14.791 0.887,-2.662 1.182,-4.733 1.182,-4.733l-10.648 10.058c-8.875,9.466 -10.65,11.242 -10.65,11.242 0,0 -2.366,2.957 -8.874,10.058 -6.509,7.099 -12.424,12.424 -12.424,12.424l-10.058 10.056z"/>
  <path class="fil0 str0" d="M177.289 292.749c5.169,-1.817 10.984,-5.015 15.382,-8.282 0,0 8.283,-5.324 10.649,-7.691 2.367,-2.367 5.621,-3.846 7.1,-6.507 1.479,-2.664 4.733,-5.325 6.509,-7.692 1.774,-2.366 2.956,-4.142 3.548,-6.509 0.593,-2.366 2.367,-4.141 3.256,-6.212 0.887,-2.07 5.111,-9.905 5.111,-9.905 0,0 -7.182,7.835 -10.733,11.976 -3.549,4.141 -6.507,8.876 -6.507,8.876 0,0 -4.143,5.915 -7.692,8.874 -3.55,2.958 -2.366,2.366 -5.917,6.507 -3.548,4.141 -7.099,7.1 -7.099,7.1l-13.607 9.465z"/>
  <path class="fil1 str0" d="M226.394 270.859c10.65,-5.915 9.467,-5.325 11.832,-7.691 2.367,-2.365 9.467,-7.1 11.833,-11.833 2.366,-4.732 5.325,-7.691 5.325,-10.648"/>
  <path class="fil0 str0" d="M226.394 270.859c1.959,-1.088 8.359,-2.996 10.984,-6.823 2.623,-3.825 8.393,-5.886 11.008,-10.17 2.615,-4.285 6.405,-9.038 6.998,-13.179 0.592,-4.143 2.366,-5.325 2.366,-10.649 0,-5.326 0,-8.284 -0.592,-10.65 -0.592,-2.367 -2.956,-10.649 -2.956,-10.649 0,0 -5.326,7.69 -8.284,13.015 -2.959,5.325 -4.143,5.325 -7.692,14.199 -3.55,8.875 -2.661,7.396 -4.142,13.608 -1.478,6.212 -2.364,7.691 -4.141,13.016 -1.775,5.325 -3.549,8.282 -3.549,8.282z"/>
  <path class="fil1 str0" d="M226.394 270.859c6.212,-6.212 13.015,-11.24 14.494,-15.086 1.479,-3.846 7.396,-9.761 9.171,-15.086 1.776,-5.325 3.55,-7.101 4.143,-11.834 0.589,-4.732 0.294,-19.075 0.294,-19.075 0,0 -5.029,10.202 -6.803,17.301 -1.775,7.099 -3.846,12.721 -6.508,17.749 -2.661,5.028 -4.733,10.65 -7.101,14.791 -2.364,4.14 -7.69,11.24 -7.69,11.24l0 0z"/>
  <path class="fil1 str0" d="M85.723 256.801c8.284,1.182 20.706,3.55 23.073,5.324 2.368,1.775 8.283,3.551 13.016,4.733 4.733,1.184 13.016,2.958 17.157,2.958 4.143,0 23.509,-0.322 24.782,-0.619 1.271,-0.297 3.025,-1.155 3.025,-1.155 0,0 -8.284,-1.184 -13.016,-1.184 -4.733,0 -8.874,-3.548 -11.24,-3.548 -2.367,0 -8.876,-1.777 -13.608,-1.777 -4.734,0 -7.1,-0.59 -12.425,-1.774 -5.323,-1.184 -5.323,-2.366 -10.058,-2.958 -4.733,-0.593 -20.706,0 -20.706,0l0 0z"/>
  <path class="fil1 str0" d="M166.64 267.31c8.283,-1.184 9.722,-0.649 15.975,-2.366 6.25,-1.717 12.424,-4.141 12.424,-4.141 0,0 7.099,-2.368 9.465,-4.142 2.367,-1.775 13.688,-7.998 16.269,-9.761 2.582,-1.766 8.663,-7.509 8.663,-7.509 0,0 9.382,-8.171 9.975,-9.946 0.59,-1.774 13.014,-16.565 14.791,-20.706 1.774,-4.142 7.689,-14.79 8.873,-20.115 1.183,-5.325 2.366,-10.65 2.366,-10.65 0,0 2.367,-5.917 2.662,-7.987 0.297,-2.071 0.887,-12.721 0.887,-16.862 0,-4.14 -0.59,-19.523 -1.182,-23.664 -0.592,-4.143 -4.733,-14.791 -4.733,-15.975 0,-1.182 -3.846,-10.945 -5.325,-14.198 -1.479,-3.254 -5.028,-11.538 -7.691,-14.791 -2.662,-3.254 -12.424,-15.383 -12.424,-15.383"/>
  <path class="fil0 str0" d="M140.017 248.969c7.099,1.774 15.382,4.733 18.931,5.325 3.551,0.592 7.692,3.55 14.2,3.55 6.508,0 11.833,0.591 15.382,0 3.55,-0.592 12.424,-2.96 14.79,-4.142 2.367,-1.182 15.383,-5.916 18.342,-8.874 2.958,-2.958 2.958,-0.887 2.958,-0.887 0,0 -11.242,0.887 -18.341,-0.889 -7.099,-1.775 -15.383,-2.365 -24.257,-1.775 -8.874,0.593 -13.608,0 -20.115,2.367 -6.508,2.367 -21.89,5.325 -21.89,5.325z"/>
  <path class="fil0 str0" d="M140.017 248.969c0.568,0 1.134,0.002 1.696,0.004 11.694,0.049 21.677,0.615 27.885,1.18 6.507,0.59 11.24,0.59 17.158,0.59 5.915,0 7.098,0 11.832,-0.59 4.732,-0.592 10.65,-2.367 13.608,-2.959 2.957,-0.591 8.929,-1.894 8.929,-1.894l-21.354 1.303 -15.382 0 -17.158 0 -17.156 1.183 -10.058 1.183z"/>
  <path class="fil0 str0" d="M186.163 238.321c10.058,-2.959 15.383,-2.368 24.849,-5.917 9.465,-3.551 14.791,-5.918 18.931,-7.692 4.141,-1.774 6.509,-2.958 8.875,-5.324 2.367,-2.367 8.875,-5.916 11.833,-9.466 2.958,-3.551 6.913,-8.142 6.913,-8.142 0,0 -11.054,4.591 -16.971,5.776 -5.917,1.183 -17.157,4.142 -21.298,5.916 -4.142,1.775 -14.791,4.141 -18.933,7.69 -4.141,3.55 -10.649,11.834 -10.649,11.834l-3.55 5.325z"/>
  <path class="fil1 str0" d="M186.163 238.321c8.876,-4.733 11.832,-5.325 12.425,-5.917 0.592,-0.592 11.832,-6.509 15.382,-7.1 3.551,-0.592 9.466,-4.142 11.242,-4.142 1.773,0 18.932,-8.282 18.932,-8.282l12.686 -10.244 -11.504 5.511 -13.606 5.325 -13.906 6.803c0,0 -8.576,2.071 -12.717,3.846 -4.143,1.774 -10.058,7.1 -10.058,7.1l-8.876 7.1 0 0z"/>
  <path class="fil0 str0" d="M216.336 211.696c5.916,-4.733 8.876,-5.915 8.876,-5.915l10.353 -6.212 9.761 -7.397c0,0 5.917,-4.141 7.099,-6.507 1.184,-2.366 5.325,-4.732 6.509,-7.099 1.183,-2.367 6.507,-11.24 6.507,-11.24l3.409 -9.008 0.14 -5.193 -5.323 7.692 -9.465 8.873 -7.692 4.735 -10.649 8.874c0,0 -10.058,7.099 -11.241,9.466 -1.184,2.366 -3.55,4.141 -5.917,8.283 -2.367,4.141 -3.481,13.859 -2.367,10.648z"/>
  <path class="fil1 str0" d="M216.336 211.696c5.326,-5.915 9.467,-11.832 12.425,-13.015 2.959,-1.183 10.648,-6.509 13.014,-8.875 2.369,-2.366 9.468,-8.873 9.468,-8.873l6.507 -6.508 5.917 -8.283 4.141 -10.058 1.154 -1.896 -5.295 8.403c0,0 -5.917,5.325 -8.876,8.284 -2.956,2.958 -10.647,10.058 -10.647,10.058l-7.1 5.324 -7.691 6.508 -4.141 5.324 -5.327 7.692 -3.549 5.915 0 0z"/>
  <path class="fil2 str0" d="M276.682 241.277c3.55,-5.324 5.325,-12.424 5.917,-15.382 0.592,-2.957 2.958,-5.324 2.958,-10.648 0,-5.325 0,-8.284 -1.776,-13.017 -1.774,-4.732 -0.887,-2.661 -0.887,-2.661 0,0 -1.775,2.958 -3.846,7.394 -2.069,4.438 -2.957,6.508 -2.957,11.834 0,5.324 -0.592,12.424 -0.592,14.791 0,2.365 1.183,7.689 1.183,7.689z"/>
  <path class="fil2 str0" d="M294.431 218.205c1.184,-5.325 1.776,-9.466 1.184,-14.2 -0.592,-4.733 -1.776,-10.648 -3.551,-14.199 -1.774,-3.549 -3.548,-7.69 -5.916,-10.65 -2.367,-2.957 -3.549,-5.323 -3.549,-5.323l1.182 10.056c0,0 0,4.142 2.071,9.763 2.071,5.62 3.846,12.129 3.846,12.129l4.733 12.424z"/>
  <path class="fil0 str0" d="M264.849 230.629c1.185,-2.368 5.918,-10.649 7.1,-13.608 1.184,-2.958 4.142,-10.65 4.142,-14.791 0,-4.141 0.591,-10.058 0,-12.424 -0.592,-2.366 -1.775,-11.832 -2.958,-13.607 -1.184,-1.774 -4.434,-14.635 -4.434,-14.635l-2.665 23.509 -1.185 15.975 0 17.157 0 12.424z"/>
  <path class="fil0 str0" d="M264.849 230.629c0,0 0.203,-0.575 0.522,-1.51 0.497,-1.45 1.28,-3.767 2.042,-6.144 0.972,-3.038 1.911,-6.177 2.169,-7.728 0.593,-3.551 2.367,-9.466 2.367,-13.017 0,-3.549 0.887,-9.761 0,-13.606 -0.888,-3.846 0,-7.1 -0.888,-9.763 -0.886,-2.662 -1.401,-13.618 -1.401,-13.618l-1.557 13.618 -0.295 12.129 0 13.015c0,0 -0.592,4.734 -0.592,8.283 0,3.551 -2.367,18.341 -2.367,18.341z"/>
  <path class="fil2 str0" d="M272.12 157.81c2.367,-2.366 3.551,-3.55 3.551,-5.325 0,-1.774 0.59,-5.917 0,-8.284 -0.592,-2.365 -1.777,-8.873 -1.777,-8.873l-1.774 -6.507 -0.591 7.099c0,0 -0.591,6.507 -0.591,10.058 0,3.549 1.182,11.832 1.182,11.832z"/>
  <path class="fil2 str0" d="M290.881 148.393c-3.55,-1.185 -2.07,0.886 -6.508,-3.549 -4.436,-4.438 -4.141,-3.551 -7.1,-8.284 -2.957,-4.732 -3.548,-5.917 -5.324,-8.283 -1.774,-2.367 -0.888,-2.662 -0.888,-2.662 0,0 2.664,0.887 4.438,2.662 1.774,1.776 7.395,6.212 7.395,6.212 0,0 3.254,4.438 4.437,7.986 1.185,3.551 3.55,5.918 3.55,5.918z"/>
  <path class="fil1 str0" d="M282.894 199.569c0.887,-15.68 -0.295,-25.736 -0.295,-25.736l-1.774 -18.341 -7.157 -24.749c0,0 -6.283,-16.604 -10.001,-21.398 -3.718,-4.793 -9.465,-16.565 -15.974,-23.074 -6.508,-6.507 -14.791,-15.973 -14.791,-15.973"/>
  <path class="fil3 str0" d="M218.764 235.362c-1.273,0 -2.304,-1.131 -2.304,-2.523 0,-1.393 1.031,-2.523 2.304,-2.523 1.273,0 2.306,1.13 2.306,2.523 0,1.392 -1.033,2.523 -2.306,2.523z"/>
  <path class="fil3 str0" d="M229.056 231.812c-1.143,0 -2.071,-0.928 -2.071,-2.071 0,-1.142 0.928,-2.07 2.071,-2.07 1.144,0 2.071,0.928 2.071,2.07 0,1.143 -0.927,2.071 -2.071,2.071z"/>
  <path class="fil3 str0" d="M219.508 220.477c-1.098,0 -1.987,-0.888 -1.987,-1.988 0,-1.097 0.889,-1.988 1.987,-1.988 1.099,0 1.988,0.891 1.988,1.988 0,1.1 -0.889,1.988 -1.988,1.988z"/>
  <path class="fil3 str0" d="M233.199 226.486c-1.144,0 -2.072,-0.925 -2.072,-2.069 0,-1.143 0.928,-2.071 2.072,-2.071 1.143,0 2.069,0.928 2.069,2.071 0,1.144 -0.926,2.069 -2.069,2.069z"/>
  <path class="fil3 str0" d="M238.426 214.385c-1.417,0 -2.565,-1.149 -2.565,-2.567 0,-1.417 1.148,-2.566 2.565,-2.566 1.416,0 2.565,1.149 2.565,2.566 0,1.418 -1.149,2.567 -2.565,2.567z"/>
  <path class="fil3 str0" d="M229.943 206.963c-1.306,0 -2.366,-1.058 -2.366,-2.366 0,-1.308 1.06,-2.367 2.366,-2.367 1.308,0 2.366,1.059 2.366,2.367 0,1.308 -1.058,2.366 -2.366,2.366z"/>
  <path class="fil3 str0" d="M245.918 204.005c-1.308,0 -2.366,-1.059 -2.366,-2.367 0,-1.306 1.058,-2.366 2.366,-2.366 1.308,0 2.366,1.06 2.366,2.366 0,1.308 -1.058,2.367 -2.366,2.367z"/>
  <path class="fil3 str0" d="M250.356 196.906c-1.472,0 -2.663,-1.192 -2.663,-2.662 0,-1.47 1.191,-2.662 2.663,-2.662 1.47,0 2.661,1.192 2.661,2.662 0,1.47 -1.191,2.662 -2.661,2.662z"/>
  <path class="fil3 str0" d="M238.524 178.861c-1.472,0 -2.663,-1.191 -2.663,-2.662 0,-1.469 1.191,-2.663 2.663,-2.663 1.47,0 2.661,1.194 2.661,2.663 0,1.471 -1.191,2.662 -2.661,2.662z"/>
  <path class="fil3 str0" d="M253.905 185.665c-1.471,0 -2.662,-1.191 -2.662,-2.661 0,-1.473 1.191,-2.664 2.662,-2.664 1.469,0 2.661,1.191 2.661,2.664 0,1.47 -1.192,2.661 -2.661,2.661z"/>
  <path class="fil3 str0" d="M242.664 170.283c-1.471,0 -2.663,-1.192 -2.663,-2.662 0,-1.47 1.192,-2.663 2.663,-2.663 1.471,0 2.662,1.193 2.662,2.663 0,1.47 -1.191,2.662 -2.662,2.662z"/>
  <path class="fil3 str0" d="M259.447 162.626c-1.263,0 -2.289,-1.024 -2.289,-2.287 0,-1.265 1.026,-2.289 2.289,-2.289 1.264,0 2.289,1.024 2.289,2.289 0,1.263 -1.025,2.287 -2.289,2.287z"/>
  <path class="fil3 str0" d="M245.918 151.943c-1.308,0 -2.366,-1.06 -2.366,-2.368 0,-1.306 1.058,-2.365 2.366,-2.365 1.308,0 2.366,1.059 2.366,2.365 0,1.308 -1.058,2.368 -2.366,2.368z"/>
  <path class="fil3 str0" d="M290.882 170.283c-1.307,0 -2.366,-1.059 -2.366,-2.367 0,-1.306 1.059,-2.367 2.366,-2.367 1.306,0 2.367,1.061 2.367,2.367 0,1.308 -1.061,2.367 -2.367,2.367z"/>
  <path class="fil3 str0" d="M274.02 173.833c-1.143,0 -2.071,-0.928 -2.071,-2.071 0,-1.144 0.928,-2.07 2.071,-2.07 1.144,0 2.071,0.926 2.071,2.07 0,1.143 -0.927,2.071 -2.071,2.071z"/>
  <path class="fil3 str0" d="M274.907 185.073c-1.307,0 -2.366,-1.058 -2.366,-2.366 0,-1.306 1.059,-2.367 2.366,-2.367 1.308,0 2.366,1.061 2.366,2.367 0,1.308 -1.058,2.366 -2.366,2.366z"/>
  <path class="fil1 str0" d="M274.907 180.34c1.775,-2.958 4.141,-7.691 4.141,-7.691 0,0 1.214,-1.657 1.777,-6.507 0.56,-4.851 0,-10.65 0,-10.65 0,0 1.056,4.733 -0.888,8.578 -1.945,3.846 -4.655,6.05 -4.655,6.05"/>
  <path class="fil1 str0" d="M288.929 166.579c-3.372,-3.396 -1.24,-0.063 -4.556,-3.396 -3.314,-3.332 -3.548,-7.691 -3.548,-7.691"/>
  <path class="fil1 str0" d="M220.328 230.987c7.249,-9.233 10.207,-15.74 10.207,-15.74 0,0 4.141,-7.691 5.03,-9.763 0.887,-2.069 4.88,-9.614 4.88,-9.614l3.107 -6.656 6.804 -17.157c0,0 4.14,-9.169 5.028,-15.973 0.887,-6.805 2.958,-13.609 3.845,-18.637 0.888,-5.027 1.48,-20.41 1.48,-20.41l-1.184 -33.722"/>
  <path class="fil1 str0" d="M247.27 147.633c5.155,-4.566 4.251,-2.347 7.521,-7.522 3.273,-5.178 5.591,-16.202 5.591,-16.202"/>
  <path class="fil1 str0" d="M258.551 158.232c-0.801,-5.699 -1.439,-8.391 -1.12,-12.665"/>
  <path class="fil1 str0" d="M244.682 165.885c4.785,-3.884 8.061,-3.178 9.52,-7.434 1.457,-4.258 1.979,-7.174 1.979,-7.174"/>
  <path class="fil1 str0" d="M240.353 174.267c5.565,-2.801 4.381,-2.21 6.157,-3.392 1.774,-1.185 6.832,-6.566 6.832,-6.566"/>
  <path class="fil1 str0" d="M252.654 180.652c-0.819,-4.453 -0.229,-10.962 -0.229,-10.962l0.917 -5.381"/>
  <path class="fil1 str0" d="M248.844 192.051c-1.242,-1.581 -2.365,-6.714 -2.365,-6.714l0.474 -4.7"/>
  <path class="fil1 str0" d="M245.918 199.272c-0.592,-4.141 -0.592,-7.1 -0.592,-7.1l0.341 -8.292"/>
  <path class="fil1 str0" d="M238.426 209.252c-0.476,-8.601 3.573,-16.709 3.573,-16.709"/>
  <path class="fil1 str0" d="M233.199 222.346c-1.607,-3.632 -1.607,-3.632 -1.607,-3.632l0.128 -5.242"/>
  <path class="fil1 str0" d="M229.056 227.671c0,-3.254 0,-6.804 0,-6.804l2.636 -6.238 0.028 -1.157"/>
  <path class="fil3" d="M79.677 145.292c-0.397,0 -0.712,-0.158 -0.95,-0.474 -0.238,-0.317 -0.356,-0.712 -0.356,-1.148 0,-0.988 0.515,-2.017 1.503,-3.085 1.03,-1.068 2.413,-1.622 4.193,-1.622 0.99,0 2.414,0.277 4.233,0.831 1.583,0.435 2.689,0.673 3.442,0.673 0.394,0 0.868,-0.159 1.383,-0.515 0.554,-0.356 0.791,-1.226 0.791,-2.651 -0.276,0 -1.106,-0.04 -2.491,-0.117 -1.781,-0.08 -3.284,-0.12 -4.51,-0.12l-10.403 -0.08c-1.385,0 -2.571,0.12 -3.521,0.317l0.317 -1.067c1.265,-0.041 2.176,-0.356 2.769,-0.95 0.594,-0.594 1.385,-2.453 2.294,-5.657l1.977 -7.12 1.901 -7.08c-2.533,0.04 -4.431,0.435 -5.737,1.265 -1.306,0.832 -1.977,1.782 -1.977,2.888 0,0.356 0.158,0.83 0.514,1.385 0.277,0.513 0.435,0.91 0.435,1.265 0,0.316 -0.119,0.634 -0.357,0.871 -0.237,0.277 -0.513,0.395 -0.869,0.395 -0.476,0 -0.871,-0.236 -1.188,-0.672 -0.315,-0.435 -0.474,-1.068 -0.474,-1.859 0,-1.265 0.395,-2.414 1.148,-3.401 0.791,-1.029 1.74,-1.741 2.886,-2.217 1.109,-0.474 2.176,-0.791 3.206,-0.948 0.988,-0.158 3.085,-0.238 6.249,-0.238 -0.474,0.948 -0.791,1.741 -1.028,2.334 -0.199,0.632 -0.673,2.294 -1.425,4.983 -1.583,5.816 -2.69,9.494 -3.243,11.037 -0.594,1.504 -1.109,2.533 -1.583,3.046 1.03,0.158 2.098,0.237 3.284,0.237 1.542,0 3.441,-0.159 5.736,-0.474 0.039,0 0.83,-2.967 2.372,-8.822 1.068,-4.113 1.979,-7.119 2.809,-9.019 0.791,-1.898 1.78,-3.322 3.006,-4.31 1.227,-1.03 2.651,-1.504 4.272,-1.504 1.068,0 1.939,0.198 2.572,0.633 0.632,0.435 0.949,0.95 0.949,1.544 0,0.75 -0.396,1.145 -1.147,1.145 -0.476,0 -0.989,-0.315 -1.544,-0.989 -0.591,-0.671 -1.107,-0.988 -1.581,-0.988 -1.305,0 -2.65,1.741 -3.956,5.26 -1.345,3.482 -2.887,9.376 -4.707,17.722 0.118,0 0.435,0.039 0.95,0.12 0.712,0.118 1.304,0.197 1.74,0.197 0.554,0 1.187,-0.079 1.82,-0.197l-0.474 2.372c-0.238,0.988 -0.515,1.78 -0.871,2.335 -0.357,0.553 -0.949,0.988 -1.78,1.304 -0.791,0.277 -1.859,0.435 -3.165,0.435 -0.989,0 -2.294,-0.277 -3.915,-0.791 -1.345,-0.474 -2.453,-0.712 -3.324,-0.712 -1.148,0 -1.701,0.435 -1.701,1.306 0,0.238 0.12,0.553 0.317,0.95 0.197,0.394 0.277,0.671 0.277,0.869 0,0.752 -0.356,1.108 -1.068,1.108zm28.084 -17.445l0.95 -0.039c1.7,0 2.571,0.871 2.571,2.572 0,1.74 -0.988,3.362 -3.007,4.865 -2.016,1.542 -3.954,2.295 -5.892,2.295 -2.375,0 -3.56,-1.267 -3.56,-3.798 0,-3.007 0.909,-5.934 2.768,-8.782 1.859,-2.808 3.995,-4.232 6.487,-4.232 1.859,0 2.807,0.87 2.807,2.571 0,1.661 -1.027,3.203 -3.124,4.548zm-5.378 1.544c3.836,-1.662 5.734,-3.442 5.734,-5.38 0,-1.227 -0.513,-1.821 -1.503,-1.821 -1.977,0 -3.402,2.414 -4.231,7.201zm-0.159 1.383c-0.08,0.712 -0.159,1.424 -0.159,2.097 0,1.148 0.118,1.977 0.396,2.413 0.237,0.474 0.713,0.712 1.345,0.712 0.91,0 1.819,-0.515 2.808,-1.503 0.95,-0.989 1.425,-2.136 1.425,-3.44 0,-1.347 -0.514,-2.018 -1.503,-2.018 -0.832,0 -2.256,0.592 -4.312,1.739zm21.36 1.346l0.633 0.831c-3.165,3.006 -5.854,4.509 -8.108,4.509 -0.911,0 -1.582,-0.317 -2.097,-0.911 -0.476,-0.633 -0.713,-1.621 -0.713,-2.966 0,-2.768 0.831,-5.498 2.531,-8.228 1.859,-3.086 4.115,-4.627 6.725,-4.627 0.911,0 1.622,0.237 2.097,0.673 0.474,0.474 0.713,1.106 0.713,1.898 0,0.83 -0.277,1.661 -0.871,2.453 -0.594,0.83 -1.622,1.662 -3.086,2.53 -0.751,0.436 -2.374,1.188 -4.825,2.295 -0.079,0.671 -0.159,1.344 -0.159,1.977 0,0.911 0.159,1.544 0.436,1.9 0.276,0.356 0.711,0.553 1.265,0.553 0.515,0 1.108,-0.159 1.741,-0.435 0.83,-0.396 2.095,-1.227 3.718,-2.452zm-6.763 -2.77c2.095,-0.909 3.639,-1.936 4.666,-2.965 0.712,-0.753 1.068,-1.504 1.068,-2.216 0,-0.553 -0.159,-0.988 -0.435,-1.345 -0.277,-0.317 -0.671,-0.475 -1.107,-0.475 -0.474,0 -0.95,0.158 -1.385,0.555 -0.632,0.474 -1.147,1.186 -1.542,2.136 -0.594,1.423 -1.029,2.848 -1.265,4.31zm10.6 -4.113l-0.554 -0.791c1.266,-1.265 2.492,-2.216 3.639,-2.809 1.148,-0.592 2.057,-0.909 2.69,-0.909 0.277,0 0.474,0.04 0.632,0.158 0.12,0.118 0.2,0.316 0.2,0.515 0,0.236 -0.12,0.712 -0.317,1.423 -0.318,1.068 -0.515,1.939 -0.633,2.572 3.125,-3.127 5.498,-4.668 7.119,-4.668 0.436,0 0.753,0.117 0.95,0.356 0.237,0.238 0.357,0.632 0.357,1.146 0,0.554 -0.198,1.465 -0.594,2.73 1.464,-1.542 2.73,-2.611 3.797,-3.282 1.107,-0.633 1.939,-0.95 2.533,-0.95 0.553,0 0.947,0.158 1.265,0.474 0.277,0.276 0.435,0.752 0.435,1.425 0,0.354 -0.079,0.83 -0.199,1.345 -0.118,0.553 -0.592,2.136 -1.383,4.825 -1.03,3.323 -1.544,5.301 -1.544,5.934 0,0.435 0.199,0.671 0.555,0.671 0.236,0 0.474,-0.078 0.712,-0.236 0.751,-0.553 1.542,-1.227 2.333,-2.018l0.633 0.712c-0.277,0.197 -0.791,0.673 -1.542,1.345 -1.029,0.95 -1.701,1.503 -2.097,1.741 -0.751,0.474 -1.385,0.671 -1.898,0.671 -0.397,0 -0.712,-0.197 -1.029,-0.553 -0.277,-0.395 -0.435,-0.909 -0.435,-1.583 0,-0.591 0.078,-1.344 0.276,-2.174 0.159,-0.792 0.712,-2.651 1.544,-5.539 0.671,-2.175 0.988,-3.481 0.988,-3.955 0,-0.435 -0.197,-0.632 -0.594,-0.632 -0.315,0 -0.711,0.157 -1.265,0.474 -1.108,0.673 -2.018,1.462 -2.768,2.453 -0.515,0.632 -0.95,1.7 -1.345,3.163 -0.871,3.126 -1.503,5.736 -1.939,7.713l-2.77 0 2.889 -11.787c0.197,-0.869 0.317,-1.345 0.317,-1.502 0,-0.158 -0.041,-0.277 -0.159,-0.396 -0.12,-0.08 -0.238,-0.118 -0.435,-0.118 -0.356,0 -0.91,0.276 -1.621,0.791 -1.306,0.909 -2.216,1.78 -2.771,2.65 -0.553,0.831 -1.027,2.136 -1.424,3.876l-1.503 6.486 -2.768 0 2.176 -9.216c0.671,-2.651 0.989,-4.113 0.989,-4.35 0,-0.278 -0.12,-0.396 -0.357,-0.396 -0.514,0 -1.542,0.75 -3.085,2.215zm33.623 -4.509c1.265,0 2.294,0.514 3.124,1.502 0.832,0.989 1.265,2.413 1.265,4.193 0,2.848 -0.987,5.419 -3.004,7.714 -2.018,2.256 -4.154,3.403 -6.408,3.403 -1.346,0 -2.494,-0.436 -3.324,-1.347 -0.829,-0.909 -1.265,-2.136 -1.265,-3.718 0,-2.689 0.791,-5.181 2.333,-7.475 1.939,-2.848 4.352,-4.272 7.279,-4.272zm-1.662 1.462c-1.107,0 -2.136,0.791 -3.164,2.335 -1.029,1.583 -1.543,3.719 -1.543,6.487 0,1.662 0.317,3.007 0.949,3.955 0.474,0.714 1.068,1.068 1.859,1.068 1.069,0 2.057,-0.672 2.928,-2.016 1.147,-1.742 1.701,-3.878 1.701,-6.449 0,-1.938 -0.239,-3.321 -0.792,-4.152 -0.513,-0.831 -1.147,-1.228 -1.938,-1.228zm7.477 2.968l-0.831 -0.672c2.69,-2.493 4.747,-3.758 6.132,-3.758 0.671,0 1.028,0.474 1.028,1.385 0,0.671 -0.198,1.898 -0.674,3.678l-0.712 2.888c-0.039,0.277 -0.077,0.514 -0.077,0.633 0,0.514 0.315,0.75 0.988,0.75 0.633,0 1.504,-0.395 2.611,-1.226 1.108,-0.831 1.859,-1.7 2.334,-2.649 0.434,-0.95 0.948,-2.612 1.463,-4.985l2.769 0 -1.78 6.765c-1.068,3.916 -1.622,6.131 -1.622,6.684 0,0.515 0.198,0.751 0.554,0.751 0.474,0 1.543,-0.83 3.203,-2.49l0.633 0.71c-2.61,2.691 -4.549,4.036 -5.775,4.036 -0.356,0 -0.712,-0.159 -1.027,-0.474 -0.317,-0.358 -0.476,-0.791 -0.476,-1.345 0,-0.673 0.12,-1.543 0.396,-2.65l1.107 -4.353c-2.847,2.335 -5.022,3.521 -6.566,3.521 -1.227,0 -1.819,-0.554 -1.819,-1.662 0,-0.554 0.356,-2.136 1.068,-4.787 0.316,-1.224 0.474,-1.977 0.474,-2.253 0,-0.395 -0.158,-0.554 -0.435,-0.554 -0.553,0 -1.503,0.671 -2.966,2.057zm34.215 8.425c-2.61,2.73 -4.548,4.075 -5.775,4.075 -0.356,0 -0.712,-0.159 -1.028,-0.474 -0.317,-0.317 -0.475,-0.791 -0.475,-1.345 0,-0.673 0.12,-1.505 0.396,-2.573l0.95 -3.796 -5.301 0 -1.82 7.514 -2.887 0c0.038,-0.158 0.157,-0.671 0.395,-1.582 0.197,-0.631 0.553,-1.977 1.029,-3.954l1.741 -6.923c0.077,-0.356 0.118,-0.633 0.118,-0.83 0,-0.396 -0.118,-0.594 -0.396,-0.594 -0.554,0 -1.581,0.671 -2.966,2.057l-0.871 -0.672c2.73,-2.493 4.786,-3.758 6.171,-3.758 0.713,0 1.068,0.474 1.068,1.424 0,0.909 -0.434,2.926 -1.265,6.13l5.261 0 1.898 -7.08 2.809 0 -1.821 6.765c-1.068,3.916 -1.621,6.131 -1.621,6.684 0,0.515 0.197,0.751 0.553,0.751 0.474,0 1.543,-0.83 3.204,-2.531l0.633 0.712zm14.597 -13.173l1.306 -0.277 -1.465 4.907c-0.553,1.937 -1.107,4.153 -1.621,6.723 -0.277,1.345 -0.435,2.256 -0.435,2.65 0,0.397 0.158,0.594 0.475,0.594 0.196,0 0.554,-0.117 0.987,-0.394 0.792,-0.476 1.544,-1.07 2.256,-1.742l0.633 0.751c-1.463,1.306 -2.413,2.136 -2.808,2.413 -0.831,0.555 -1.623,0.99 -2.334,1.226 -0.515,0.199 -0.99,0.279 -1.465,0.279 -0.316,0 -0.554,-0.08 -0.751,-0.239 -0.159,-0.158 -0.236,-0.394 -0.236,-0.672 0,-0.197 0.039,-0.436 0.157,-0.79l0.791 -2.611c-1.106,1.344 -2.453,2.491 -3.995,3.441 -0.909,0.592 -1.78,0.871 -2.571,0.871 -0.751,0 -1.306,-0.279 -1.7,-0.791 -0.554,-0.714 -0.831,-1.662 -0.831,-2.81 0,-1.344 0.357,-2.886 1.106,-4.548 0.713,-1.662 1.702,-3.204 2.928,-4.55 1.186,-1.384 2.492,-2.372 3.837,-3.046 1.029,-0.473 2.373,-0.711 4.035,-0.711 0.395,0 0.83,0.038 1.225,0.079l0.476 -0.753zm-2.374 2.968c-0.712,-0.118 -1.306,-0.197 -1.78,-0.197 -1.147,0 -2.136,0.315 -3.006,0.948 -0.871,0.634 -1.66,1.779 -2.413,3.441 -0.75,1.662 -1.107,3.324 -1.107,4.945 0,0.91 0.157,1.504 0.434,1.898 0.317,0.397 0.712,0.594 1.188,0.594 0.869,0 1.818,-0.474 2.848,-1.424 0.988,-0.988 1.739,-2.374 2.214,-4.153l1.622 -6.052zm5.498 9.73c0.356,1.188 0.594,1.899 0.753,2.137 0.118,0.277 0.356,0.394 0.712,0.394 0.592,0 1.304,-0.672 2.095,-1.977 0.791,-1.346 1.503,-2.253 2.097,-2.729 0.594,-0.474 1.583,-0.909 2.968,-1.266l0 -0.237 -0.515 0c-1.623,0 -2.85,-0.315 -3.679,-0.948 -0.83,-0.594 -1.227,-1.386 -1.227,-2.295 0,-1.464 0.911,-2.65 2.689,-3.56 1.782,-0.949 4.116,-1.425 7.081,-1.425l3.442 0.079 -1.819 6.724c-1.068,3.878 -1.582,6.093 -1.582,6.646 0,0.515 0.197,0.751 0.553,0.751 0.435,0 1.503,-0.83 3.165,-2.49l0.633 0.71c-2.571,2.691 -4.469,4.036 -5.696,4.036 -0.435,0 -0.791,-0.159 -1.067,-0.515 -0.277,-0.356 -0.436,-0.87 -0.436,-1.542 0,-0.711 0.118,-1.503 0.394,-2.493l0.871 -3.322c-1.068,0 -1.939,0.317 -2.611,0.909 -0.672,0.634 -1.542,1.859 -2.61,3.759 -1.227,2.136 -2.571,3.204 -4.113,3.204 -0.594,0 -1.148,-0.198 -1.622,-0.633 -0.476,-0.396 -0.95,-1.623 -1.425,-3.6l0.949 -0.317zm13.253 -10.127c-0.753,-0.197 -1.624,-0.315 -2.533,-0.315 -1.068,0 -2.056,0.315 -2.967,0.95 -0.869,0.633 -1.305,1.462 -1.305,2.492 0,1.78 1.186,2.65 3.561,2.65 0.394,0 0.988,-0.04 1.739,-0.12l1.505 -5.657z"/>
  <path class="fil3" d="M142.617 156.947c0.633,2.413 1.463,5.934 2.572,10.602 1.067,4.666 1.7,7.278 1.898,7.793 0.079,-0.2 0.474,-1.78 1.146,-4.707 0.91,-3.798 1.701,-6.686 2.413,-8.704 0.751,-2.057 1.583,-3.519 2.61,-4.351 1.029,-0.871 2.217,-1.304 3.601,-1.304 0.829,0 1.462,0.156 1.898,0.474 0.437,0.356 0.673,0.75 0.673,1.185 0,0.318 -0.118,0.594 -0.356,0.871 -0.238,0.238 -0.515,0.356 -0.83,0.356 -0.238,0 -0.476,-0.079 -0.791,-0.197 -0.871,-0.356 -1.504,-0.553 -1.939,-0.553 -0.553,0 -1.068,0.197 -1.542,0.553 -0.476,0.356 -1.07,1.385 -1.741,3.045 -0.712,1.662 -1.424,3.995 -2.215,7.081 -0.792,3.047 -1.583,6.369 -2.374,9.929l-0.672 2.888c-0.158,-0.317 -0.514,-1.029 -1.108,-2.215 -0.671,-1.267 -1.186,-2.453 -1.542,-3.6 -0.356,-1.109 -1.029,-3.758 -1.979,-7.872l-1.542 -6.725c-0.277,1.702 -1.029,4.944 -2.254,9.731 -1.226,4.786 -2.453,7.833 -3.68,9.138 -1.265,1.305 -2.689,1.938 -4.351,1.938 -1.186,0 -2.136,-0.238 -2.848,-0.673 -0.673,-0.474 -1.027,-1.028 -1.027,-1.661 0,-0.237 0.118,-0.475 0.316,-0.712 0.197,-0.197 0.474,-0.317 0.791,-0.317 0.435,0 0.871,0.198 1.305,0.633 0.831,0.753 1.583,1.109 2.254,1.109 1.978,0 3.639,-2.136 4.984,-6.408 1.345,-4.273 2.572,-9.493 3.68,-15.625 -0.91,0 -2.176,0.237 -3.759,0.672 -1.621,0.435 -2.809,1.107 -3.56,1.977 -0.791,0.871 -1.186,1.86 -1.186,3.006 0,0.792 0.236,1.583 0.672,2.295 0.276,0.474 0.435,0.83 0.435,1.109 0,0.276 -0.118,0.553 -0.315,0.789 -0.239,0.199 -0.515,0.317 -0.832,0.317 -0.513,0 -0.948,-0.276 -1.265,-0.791 -0.316,-0.553 -0.474,-1.306 -0.474,-2.295 0,-1.739 0.435,-3.203 1.303,-4.43 0.871,-1.227 1.9,-2.056 3.086,-2.571 1.186,-0.474 3.126,-0.909 5.775,-1.266 1.029,-0.158 1.979,-0.317 2.77,-0.514zm18.867 12.183c0,1.859 -0.553,3.6 -1.621,5.183 -1.108,1.621 -2.453,2.412 -4.036,2.412 -1.068,0 -1.897,-0.395 -2.491,-1.147 -0.594,-0.751 -0.91,-1.662 -0.91,-2.689 0,-1.86 0.515,-3.601 1.582,-5.261 1.069,-1.662 2.413,-2.491 4.075,-2.491 0.989,0 1.78,0.315 2.413,0.988 0.673,0.672 0.988,1.66 0.988,3.005zm-2.292 -0.513c0,-1.82 -0.437,-2.73 -1.347,-2.73 -0.83,0 -1.542,0.83 -2.175,2.452 -0.593,1.622 -0.911,3.244 -0.911,4.867 0,1.859 0.476,2.769 1.385,2.769 0.792,0 1.465,-0.792 2.098,-2.336 0.632,-1.542 0.95,-3.242 0.95,-5.022zm-7.992 10.244l8.425 0 0 1.345 -8.425 0 0 -1.345zm17.681 -17.325l-0.79 -0.553c1.304,-1.503 2.295,-2.454 2.887,-2.848 1.147,-0.712 2.255,-1.068 3.441,-1.068 1.148,0 2.098,0.316 2.769,0.91 0.673,0.591 1.029,1.383 1.029,2.333 0,2.017 -1.542,4.153 -4.589,6.407 1.03,0.041 1.821,0.238 2.374,0.553 0.515,0.318 0.989,0.832 1.304,1.506 0.358,0.632 0.515,1.422 0.515,2.371 0,2.492 -1.266,4.787 -3.757,6.923 -2.136,1.859 -4.352,2.768 -6.605,2.768 -0.991,0 -1.9,-0.236 -2.73,-0.71 -0.832,-0.435 -1.227,-1.029 -1.227,-1.702 0,-0.277 0.118,-0.554 0.316,-0.751 0.199,-0.197 0.476,-0.317 0.752,-0.317 0.395,0 0.83,0.238 1.306,0.712 0.672,0.633 1.147,1.029 1.463,1.187 0.474,0.198 0.87,0.316 1.188,0.316 1.027,0 2.136,-0.594 3.362,-1.78 1.819,-1.741 2.728,-3.639 2.728,-5.736 0,-1.028 -0.277,-1.898 -0.869,-2.492 -0.555,-0.633 -1.306,-0.948 -2.176,-0.948 -0.674,0 -1.425,0.159 -2.254,0.435l0.157 -1.187c1.662,-0.595 3.124,-1.622 4.47,-3.084 0.91,-1.03 1.385,-2.097 1.385,-3.127 0,-0.83 -0.198,-1.463 -0.594,-1.898 -0.434,-0.435 -0.949,-0.673 -1.661,-0.673 -1.463,0 -2.848,0.83 -4.194,2.453z"/>
 </g>
</svg>
