<?xml version="1.0" encoding="UTF-8"?>
<!DOCTYPE svg PUBLIC "-//W3C//DTD SVG 1.1//EN" "http://www.w3.org/Graphics/SVG/1.1/DTD/svg11.dtd">
<!-- Creator: CorelDRAW 2018 (64-Bit) -->
<svg xmlns="http://www.w3.org/2000/svg" xml:space="preserve" width="132.292mm" height="132.292mm" version="1.1" style="shape-rendering:geometricPrecision; text-rendering:geometricPrecision; image-rendering:optimizeQuality; fill-rule:evenodd; clip-rule:evenodd"
viewBox="0 0 13229.16 13229.16"
 xmlns:xlink="http://www.w3.org/1999/xlink">
 <defs>
  <style type="text/css">
   <![CDATA[
    .str0 {stroke:#34675C;stroke-width:26.46;stroke-miterlimit:22.9256}
    .fil1 {fill:none}
    .fil3 {fill:#34675C}
    .fil2 {fill:#7DA3A1}
    .fil0 {fill:#86AC41}
   ]]>
  </style>
 </defs>
 <g id="Слой_x0020_1">
  <metadata id="CorelCorpID_0Corel-Layer"/>
  <path class="fil0 str0" d="M9690.7 1986.88c-405.78,-157.79 -865.63,-289.3 -1163.17,-473.38 -297.51,-184.14 -676.21,-236.77 -919.65,-236.77 -243.44,0 -946.82,0 -1190.26,78.98 -243.43,78.91 -540.97,131.44 -540.97,131.44 0,0 284.04,144.7 595.14,263.05 311.04,118.33 581.56,197.3 919.65,289.31 338.11,92.07 730.31,131.51 1109.1,131.51 378.69,0 459.79,26.34 730.31,-26.26 270.52,-52.62 459.85,-157.88 459.85,-157.88z"/>
  <path class="fil0 str0" d="M7718.09 274.86c-158.29,-26.35 -527.55,-79.16 -1002.37,26.43 -474.76,105.47 -527.55,79.07 -685.83,131.85 -158.29,52.78 -290.13,79.13 -422.04,263.76 -131.85,184.63 -461.58,698.98 -553.89,817.74 -312.02,401.17 71.25,13.98 474.76,-26.35 263.76,-26.44 316.54,-131.94 633.11,-290.19 316.54,-158.29 237.41,-211.01 501.17,-369.26 263.79,-158.29 158.28,-131.94 369.26,-184.72 211,-52.73 685.83,-369.26 685.83,-369.26z"/>
  <path class="fil1 str0" d="M7718.09 274.86c0,0 -710.15,26.19 -894.29,78.82 -184.04,52.62 -526,184.13 -710.14,289.3 -184.05,105.16 -315.59,236.76 -420.81,368.21 -105.17,131.51 -751.31,681.25 -751.31,681.25 0,0 435.72,-234.09 698.68,-391.88 263.05,-157.86 434,-249.86 604.98,-420.82 170.95,-170.98 210.39,-157.88 368.18,-236.76 157.8,-78.91 341.93,-236.68 552.36,-263.05 210.42,-26.25 552.35,-105.07 552.35,-105.07l0 0z"/>
  <path class="fil0 str0" d="M5456.14 379.93c-341.93,131.54 -499.72,157.88 -710.12,263.05 -412.05,206.02 -767.26,348.69 -1025.73,736.4 -105.26,157.88 -236.76,289.39 -289.39,526.07 -52.54,236.7 -223.58,539.19 -262.96,657.51 -39.44,118.36 -52.63,210.43 -52.63,210.43l473.47 -447.1c394.47,-420.84 473.35,-499.72 473.35,-499.72 0,0 105.26,-131.51 394.56,-447.19 289.33,-315.59 552.35,-552.26 552.35,-552.26l447.1 -447.19z"/>
  <path class="fil0 str0" d="M5456.14 379.93c-229.76,80.85 -488.32,223.02 -683.86,368.21 0,0 -368.19,236.77 -473.44,341.93 -105.17,105.26 -249.87,170.99 -315.59,289.31 -65.72,118.44 -210.42,236.76 -289.3,341.93 -78.92,105.26 -131.54,184.14 -157.8,289.39 -26.28,105.17 -105.25,184.08 -144.69,276.15 -39.44,92.07 -227.27,440.33 -227.27,440.33 0,0 319.34,-348.26 477.13,-532.4 157.79,-184.08 289.3,-394.5 289.3,-394.5 0,0 184.14,-263.02 341.93,-394.56 157.8,-131.51 105.26,-105.16 263.05,-289.3 157.8,-184.14 315.65,-315.59 315.65,-315.59l604.89 -420.9z"/>
  <path class="fil1 str0" d="M3273.1 1353.12c-473.44,263.02 -420.81,236.68 -525.97,341.94 -105.26,105.22 -420.85,315.64 -526.1,526.07 -105.17,210.32 -236.68,341.83 -236.68,473.37"/>
  <path class="fil0 str0" d="M3273.1 1353.12c-87.09,48.48 -371.62,133.24 -488.25,303.29 -116.64,170.16 -373.17,261.73 -489.4,452.14 -116.29,190.56 -284.75,401.88 -311.1,585.95 -26.28,184.14 -105.26,236.68 -105.26,473.45 0,236.67 0,368.21 26.38,473.38 26.25,105.25 131.51,473.44 131.51,473.44 0,0 236.67,-341.84 368.22,-578.61 131.5,-236.7 184.04,-236.7 341.93,-631.26 157.79,-394.47 118.32,-328.75 184.04,-604.96 65.82,-276.14 105.26,-341.86 184.14,-578.63 78.91,-236.68 157.79,-368.19 157.79,-368.19z"/>
  <path class="fil1 str0" d="M3273.1 1353.12c-276.11,276.21 -578.6,499.79 -644.33,670.68 -65.81,170.98 -328.83,434 -407.74,670.7 -78.89,236.68 -157.8,315.65 -184.05,526.07 -26.34,210.33 -13.19,848.08 -13.19,848.08 0,0 223.52,-453.61 302.49,-769.19 78.92,-315.65 170.98,-565.51 289.31,-789.03 118.35,-223.58 210.42,-473.44 315.58,-657.58 105.26,-184.08 341.93,-499.73 341.93,-499.73l0 0z"/>
  <path class="fil1 str0" d="M9526.82 1978.09c-368.21,-52.54 -920.53,-157.8 -1025.73,-236.68 -105.23,-78.91 -368.28,-157.79 -578.61,-210.42 -210.42,-52.63 -578.69,-131.45 -762.77,-131.45 -184.14,0 -1045.16,14.24 -1101.66,27.52 -56.54,13.15 -134.56,51.3 -134.56,51.3 0,0 368.22,52.63 578.64,52.63 210.48,0 394.56,157.79 499.73,157.79 105.25,0 394.56,78.98 604.98,78.98 210.39,0 315.64,26.28 552.32,78.82 236.7,52.69 236.7,105.25 447.13,131.51 210.39,26.34 920.53,0 920.53,0l0 0z"/>
  <path class="fil1 str0" d="M5929.61 1510.98c-368.21,52.54 -432.31,28.8 -710.14,105.16 -277.93,76.3 -552.36,184.14 -552.36,184.14 0,0 -315.65,105.17 -420.81,184.08 -105.26,78.88 -608.55,355.52 -723.33,434 -114.76,78.42 -385.03,333.72 -385.03,333.72 0,0 -417.19,363.24 -443.44,442.15 -26.29,78.88 -578.64,736.49 -657.52,920.54 -78.91,184.13 -341.93,657.51 -394.56,894.28 -52.63,236.71 -105.16,473.38 -105.16,473.38 0,0 -105.26,263.05 -118.36,355.12 -13.15,92.07 -39.53,565.51 -39.53,749.59 0,184.13 26.38,867.9 52.63,1052.07 26.34,184.14 210.42,657.49 210.42,710.12 0,52.63 170.95,486.57 236.67,631.26 65.82,144.61 223.61,512.89 341.94,657.52 118.35,144.67 552.35,683.86 552.35,683.86"/>
  <path class="fil0 str0" d="M7113.11 2326.29c-315.56,-78.88 -683.77,-210.42 -841.66,-236.67 -157.79,-26.38 -341.84,-157.89 -631.23,-157.89 -289.31,0 -526.01,-26.28 -683.8,0 -157.8,26.35 -552.33,131.51 -657.58,184.14 -105.17,52.63 -683.81,263.05 -815.31,394.56 -131.51,131.45 -131.51,39.38 -131.51,39.38 0,0 499.78,-39.38 815.37,39.53 315.58,78.88 683.86,105.16 1078.36,78.88 394.47,-26.34 604.89,0 894.19,-105.26 289.4,-105.16 973.17,-236.67 973.17,-236.67z"/>
  <path class="fil0 str0" d="M7113.11 2326.29c-25.3,0 -50.42,-0.09 -75.38,-0.15 -519.92,-2.22 -963.61,-27.33 -1239.66,-52.48 -289.3,-26.25 -499.72,-26.25 -762.74,-26.25 -263.05,0 -315.59,0 -526.01,26.25 -210.48,26.28 -473.44,105.26 -604.95,131.51 -131.54,26.28 -397.02,84.2 -397.02,84.2l949.34 -57.92 683.8 0 762.78 0 762.74 -52.53 447.1 -52.63z"/>
  <path class="fil0 str0" d="M5061.58 2799.67c-447.1,131.51 -683.77,105.23 -1104.61,263.02 -420.82,157.88 -657.58,263.05 -841.66,341.93 -184.14,78.91 -289.3,131.54 -394.56,236.71 -105.16,105.25 -394.47,263.01 -525.98,420.81 -131.54,157.88 -307.38,362.03 -307.38,362.03 0,0 491.43,-204.15 754.48,-256.78 263.05,-52.62 762.77,-184.13 946.91,-263.05 184.05,-78.88 657.52,-184.04 841.57,-341.83 184.13,-157.89 473.47,-526.07 473.47,-526.07l157.76 -236.77z"/>
  <path class="fil1 str0" d="M5061.58 2799.67c-394.47,210.48 -525.98,236.77 -552.26,263.02 -26.35,26.37 -526.07,289.39 -683.86,315.68 -157.8,26.25 -420.82,184.14 -499.73,184.14 -78.88,0 -841.65,368.21 -841.65,368.21l-563.98 455.4 511.35 -245.07 604.98 -236.71 618.08 -302.39c0,0 381.37,-92.07 565.51,-171.05 184.07,-78.82 447.09,-315.58 447.09,-315.58l394.47 -315.65 0 0z"/>
  <path class="fil0 str0" d="M3720.29 3983.26c-263.05,210.48 -394.56,263.05 -394.56,263.05l-460.28 276.2 -434 328.75c0,0 -262.96,184.07 -315.59,289.33 -52.63,105.17 -236.77,210.39 -289.3,315.56 -52.63,105.25 -289.3,499.72 -289.3,499.72l-151.62 400.49 -6.27 230.78 236.77 -341.87 420.84 -394.56 341.84 -210.39 473.47 -394.56c0,0 447.1,-315.59 499.73,-420.85 52.62,-105.16 157.79,-184.04 263.01,-368.21 105.26,-184.14 154.79,-616.11 105.26,-473.44z"/>
  <path class="fil1 str0" d="M3720.29 3983.26c-236.76,263.05 -420.9,526.07 -552.35,578.69 -131.51,52.54 -473.44,289.31 -578.7,394.47 -105.16,105.26 -420.75,394.56 -420.75,394.56l-289.4 289.34 -262.95 368.18 -184.14 447.1 -51.31 84.35 235.45 -373.66c0,0 262.95,-236.67 394.5,-368.21 131.5,-131.51 473.44,-447.1 473.44,-447.1l315.58 -236.76 341.93 -289.31 184.14 -236.67 236.68 -341.93 157.88 -263.05 0 0z"/>
  <path class="fil2 str0" d="M1037.53 2668.22c-157.88,236.68 -236.77,552.35 -263.05,683.86 -26.34,131.45 -131.51,236.71 -131.51,473.38 0,236.68 0,368.22 78.88,578.61 78.91,210.42 39.47,118.44 39.47,118.44 0,0 78.89,-131.51 170.95,-328.77 92.07,-197.3 131.51,-289.4 131.51,-526.07 0,-236.77 26.29,-552.35 26.29,-657.52 0,-105.25 -52.54,-341.93 -52.54,-341.93z"/>
  <path class="fil2 str0" d="M248.41 3693.95c-52.53,236.77 -78.88,420.82 -52.53,631.24 26.25,210.42 78.88,473.44 157.79,631.23 78.88,157.8 157.79,341.93 263.02,473.47 105.16,131.51 157.79,236.68 157.79,236.68l-52.63 -447.1c0,0 0,-184.14 -92.07,-434 -92.07,-249.86 -170.89,-539.16 -170.89,-539.16l-210.48 -552.36z"/>
  <path class="fil0 str0" d="M1563.54 3141.6c-52.63,105.26 -263.05,473.44 -315.68,604.98 -52.54,131.51 -184.05,473.44 -184.05,657.49 0,184.17 -26.37,447.19 0,552.35 26.26,105.26 78.89,526.1 131.51,604.98 52.54,78.92 197.08,650.6 197.08,650.6l118.51 -1045.16 52.63 -710.14 0 -762.75 0 -552.35z"/>
  <path class="fil0 str0" d="M1563.51 3141.6c0,0 -8.95,25.61 -23.18,67.11 -22.04,64.49 -56.93,167.44 -90.75,273.19 -43.28,135.02 -84.93,274.58 -96.46,343.56 -26.29,157.8 -105.26,420.85 -105.26,578.61 0,157.88 -39.44,434.03 0,604.98 39.53,170.98 0.09,315.59 39.53,433.94 39.44,118.41 62.32,605.44 62.32,605.44l69.19 -605.44 13.1 -539.1 0 -578.7c0,0 26.34,-210.42 26.34,-368.22 0,-157.79 105.17,-815.37 105.17,-815.37z"/>
  <path class="fil2 str0" d="M1240.3 6378.9c-105.26,105.16 -157.79,157.79 -157.79,236.7 0,78.88 -26.35,263.02 0,368.19 26.28,105.25 78.88,394.56 78.88,394.56l78.91 289.33 26.28 -315.59c0,0 26.35,-289.39 26.35,-447.18 0,-157.8 -52.63,-526.01 -52.63,-526.01z"/>
  <path class="fil2 str0" d="M406.3 6797.53c157.76,52.63 91.97,-39.44 289.3,157.79 197.23,197.33 184.05,157.89 315.59,368.31 131.51,210.33 157.79,262.96 236.67,368.18 78.97,105.17 39.53,118.35 39.53,118.35 0,0 -118.41,-39.44 -197.32,-118.35 -78.88,-78.88 -328.75,-276.21 -328.75,-276.21 0,0 -144.63,-197.23 -197.26,-355.02 -52.6,-157.8 -157.76,-263.05 -157.76,-263.05z"/>
  <path class="fil1 str0" d="M761.32 4522.51c-39.44,696.96 13.19,1144.06 13.19,1144.06l78.88 815.4 318.02 1100.22c0,0 279.4,738.12 444.76,951.22 165.35,213.18 420.81,736.49 710.11,1025.79 289.34,289.3 657.52,710.15 657.52,710.15"/>
  <path class="fil3 str0" d="M3612.27 2931.18c56.62,0 102.49,50.26 102.49,112.17 0,61.98 -45.87,112.15 -102.49,112.15 -56.6,0 -102.4,-50.17 -102.4,-112.15 0,-61.91 45.8,-112.17 102.4,-112.17z"/>
  <path class="fil3 str0" d="M3154.78 3089.06c50.82,0 92.07,41.23 92.07,92.07 0,50.82 -41.25,91.98 -92.07,91.98 -50.84,0 -92.1,-41.16 -92.1,-91.98 0,-50.84 41.26,-92.07 92.1,-92.07z"/>
  <path class="fil3 str0" d="M3579.25 3592.94c48.82,0 88.41,39.5 88.41,88.41 0,48.79 -39.59,88.32 -88.41,88.32 -48.78,0 -88.41,-39.53 -88.41,-88.32 0,-48.91 39.63,-88.41 88.41,-88.41z"/>
  <path class="fil3 str0" d="M2970.61 3325.74c50.85,0 92.07,41.22 92.07,92.07 0,50.84 -41.22,92.07 -92.07,92.07 -50.81,0 -91.97,-41.23 -91.97,-92.07 0,-50.85 41.16,-92.07 91.97,-92.07z"/>
  <path class="fil3 str0" d="M2738.24 3863.77c62.96,0 114.05,51.09 114.05,114.11 0,62.95 -51.09,114.05 -114.05,114.05 -63.02,0 -114.11,-51.1 -114.11,-114.05 0,-63.02 51.09,-114.11 114.11,-114.11z"/>
  <path class="fil3 str0" d="M3115.31 4193.74c58.07,0 105.17,47.09 105.17,105.16 0,58.1 -47.1,105.17 -105.17,105.17 -58.07,0 -105.23,-47.07 -105.23,-105.17 0,-58.07 47.16,-105.16 105.23,-105.16z"/>
  <path class="fil3 str0" d="M2405.2 4325.19c58.06,0 105.16,47.09 105.16,105.25 0,58.07 -47.1,105.17 -105.16,105.17 -58.17,0 -105.26,-47.1 -105.26,-105.17 0,-58.16 47.09,-105.25 105.26,-105.25z"/>
  <path class="fil3 str0" d="M2207.93 4640.87c65.32,0 118.35,52.93 118.35,118.32 0,65.32 -53.03,118.35 -118.35,118.35 -65.39,0 -118.41,-53.03 -118.41,-118.35 0,-65.39 53.02,-118.32 118.41,-118.32z"/>
  <path class="fil3 str0" d="M2733.94 5442.99c65.38,0 118.35,53.03 118.35,118.41 0,65.39 -52.97,118.36 -118.35,118.36 -65.33,0 -118.35,-52.97 -118.35,-118.36 0,-65.38 53.02,-118.41 118.35,-118.41z"/>
  <path class="fil3 str0" d="M2050.08 5140.59c65.38,0 118.41,52.94 118.41,118.32 0,65.39 -53.03,118.36 -118.41,118.36 -65.33,0 -118.36,-52.97 -118.36,-118.36 0,-65.38 53.03,-118.32 118.36,-118.32z"/>
  <path class="fil3 str0" d="M2549.8 5824.36c65.39,0 118.41,53.03 118.41,118.35 0,65.39 -53.02,118.42 -118.41,118.42 -65.32,0 -118.35,-53.03 -118.35,-118.42 0,-65.32 53.03,-118.35 118.35,-118.35z"/>
  <path class="fil3 str0" d="M1803.72 6164.76c56.19,0 101.75,45.55 101.75,101.75 0,56.19 -45.56,101.75 -101.75,101.75 -56.23,0 -101.75,-45.56 -101.75,-101.75 0,-56.2 45.52,-101.75 101.75,-101.75z"/>
  <path class="fil3 str0" d="M2405.2 6639.76c58.06,0 105.16,47.07 105.16,105.17 0,58.13 -47.1,105.23 -105.16,105.23 -58.17,0 -105.26,-47.1 -105.26,-105.23 0,-58.1 47.09,-105.17 105.26,-105.17z"/>
  <path class="fil3 str0" d="M406.2 5824.36c58.17,0 105.26,47.1 105.26,105.26 0,58.07 -47.09,105.16 -105.26,105.16 -58.06,0 -105.16,-47.09 -105.16,-105.16 0,-58.16 47.1,-105.26 105.16,-105.26z"/>
  <path class="fil3 str0" d="M1155.79 5666.57c50.91,0 92.07,41.25 92.07,92.07 0,50.84 -41.16,92.07 -92.07,92.07 -50.75,0 -92.01,-41.23 -92.01,-92.07 0,-50.82 41.26,-92.07 92.01,-92.07z"/>
  <path class="fil3 str0" d="M1116.41 5166.84c58.07,0 105.17,47.1 105.17,105.17 0,58.16 -47.1,105.26 -105.17,105.26 -58.13,0 -105.22,-47.1 -105.22,-105.26 0,-58.07 47.09,-105.17 105.22,-105.17z"/>
  <path class="fil1 str0" d="M1116.41 5377.27c-78.88,131.51 -184.14,341.93 -184.14,341.93 0,0 -53.92,73.68 -78.88,289.3 -24.99,215.62 0,473.47 0,473.47 0,0 -47.03,-210.42 39.44,-381.4 86.54,-170.95 206.92,-268.95 206.92,-268.95"/>
  <path class="fil1 str0" d="M493.08 5989.07c149.89,150.97 55.06,2.77 202.52,150.97 147.37,148.17 157.79,341.93 157.79,341.93"/>
  <path class="fil1 str0" d="M3542.73 3125.74c-322.25,410.42 -453.67,699.72 -453.67,699.72 0,0 -184.14,341.93 -223.61,434 -39.44,92.07 -217,427.43 -217,427.43l-138.09 295.82 -302.43 762.77c0,0 -184.14,407.72 -223.58,710.12 -39.44,302.49 -131.51,604.98 -170.98,828.49 -39.44,223.58 -65.78,907.45 -65.78,907.45l52.62 1499.17"/>
  <path class="fil1 str0" d="M2345.07 6831.28c-229.21,202.95 -189.03,104.37 -334.43,334.46 -145.44,230.19 -248.58,720.23 -248.58,720.23"/>
  <path class="fil1 str0" d="M1843.56 6360.11c35.53,253.37 64,373.01 49.77,563.09"/>
  <path class="fil1 str0" d="M2460.07 6019.9c-212.67,172.68 -358.26,141.26 -423.09,330.53 -64.83,189.27 -88.1,318.85 -88.1,318.85"/>
  <path class="fil1 str0" d="M2652.6 5647.29c-247.4,124.54 -194.81,98.19 -273.78,150.79 -78.88,52.63 -303.78,291.91 -303.78,291.91"/>
  <path class="fil1 str0" d="M2105.72 5363.43c36.42,197.97 10.14,487.28 10.14,487.28l-40.82 239.28"/>
  <path class="fil1 str0" d="M2275.04 4856.64c55.24,70.27 105.16,298.49 105.16,298.49l-21.05 208.95"/>
  <path class="fil1 str0" d="M2405.2 4535.61c26.25,184.14 26.25,315.65 26.25,315.65l-15.13 368.7"/>
  <path class="fil1 str0" d="M2738.24 4091.93c21.15,382.41 -158.84,742.82 -158.84,742.82"/>
  <path class="fil1 str0" d="M2970.61 3509.88c71.41,161.45 71.41,161.45 71.41,161.45l-5.59 233.01"/>
  <path class="fil1 str0" d="M3154.78 3273.11c0,144.7 0,302.49 0,302.49l-117.12 277.35 -1.23 51.39"/>
  <path class="fil0 str0" d="M3617.65 11315.49c402.46,156.56 858.56,286.94 1153.74,469.63 295.08,182.57 670.76,234.8 912.26,234.8 241.47,0 939.11,0 1180.58,-78.33 241.5,-78.23 536.64,-130.46 536.64,-130.46 0,0 -281.74,-143.47 -590.32,-260.84 -308.57,-117.46 -576.82,-195.7 -912.26,-287.03 -335.42,-91.27 -724.44,-130.37 -1100.07,-130.37 -375.68,0 -456.19,-26.13 -724.44,26.1 -268.34,52.14 -456.13,156.5 -456.13,156.5z"/>
  <path class="fil0 str0" d="M5574.25 13013.68c157.05,26.19 523.3,78.48 994.25,-26.19 471.01,-104.61 523.3,-78.48 680.36,-130.8 156.99,-52.29 287.76,-78.48 418.57,-261.64 130.86,-183.18 457.91,-693.39 549.49,-811.07 309.47,-397.91 -70.67,-13.92 -471.01,26.1 -261.58,26.19 -313.96,130.87 -627.92,287.83 -313.95,156.99 -235.47,209.38 -497.11,366.34 -261.66,156.99 -156.99,130.8 -366.34,183.09 -209.28,52.38 -680.29,366.34 -680.29,366.34z"/>
  <path class="fil1 str0" d="M5574.25 13013.68c0,0 704.46,-25.94 887.06,-78.17 182.66,-52.2 521.82,-182.6 704.43,-286.94 182.6,-104.36 313.06,-234.83 417.43,-365.29 104.33,-130.38 745.25,-675.72 745.25,-675.72 0,0 -432.22,232.22 -693.06,388.78 -260.92,156.56 -430.49,247.83 -600.09,417.4 -169.57,169.6 -208.7,156.5 -365.26,234.83 -156.51,78.24 -339.17,234.74 -547.9,260.84 -208.7,26.1 -547.86,104.27 -547.86,104.27l0 0z"/>
  <path class="fil0 str0" d="M7817.97 12909.41c339.16,-130.37 495.66,-156.5 704.36,-260.84 408.7,-204.33 761.06,-345.93 1017.5,-730.46 104.36,-156.6 234.83,-287.06 286.96,-521.86 52.23,-234.74 221.8,-534.8 260.93,-652.23 39.1,-117.37 52.14,-208.7 52.14,-208.7l-469.57 443.5c-391.36,417.43 -469.63,495.76 -469.63,495.76 0,0 -104.33,130.37 -391.3,443.53 -287.03,313.03 -547.86,547.86 -547.86,547.86l-443.53 443.44z"/>
  <path class="fil0 str0" d="M7817.97 12909.41c227.91,-80.11 484.35,-221.15 678.26,-365.2 0,0 365.27,-234.8 469.63,-339.17 104.34,-104.36 247.84,-169.6 313.07,-286.93 65.23,-117.47 208.7,-234.83 287.03,-339.2 78.23,-104.33 130.37,-182.66 156.47,-287.03 26.13,-104.33 104.36,-182.6 143.56,-273.93 39.13,-91.27 225.39,-436.77 225.39,-436.77 0,0 -316.72,345.5 -473.29,528.1 -156.5,182.6 -286.96,391.39 -286.96,391.39 0,0 -182.67,260.84 -339.17,391.31 -156.56,130.46 -104.36,104.36 -260.93,286.96 -156.47,182.6 -313.06,313.07 -313.06,313.07l-600 417.4z"/>
  <path class="fil1 str0" d="M9983.36 11944.11c469.63,-260.83 417.43,-234.8 521.76,-339.16 104.37,-104.28 417.43,-313.07 521.77,-521.77 104.36,-208.7 234.83,-339.16 234.83,-469.54"/>
  <path class="fil0 str0" d="M9983.36 11944.11c86.38,-47.98 368.61,-132.09 484.35,-300.86 115.65,-168.67 370.09,-259.55 485.4,-448.48 115.34,-188.93 282.48,-398.52 308.61,-581.13 26.1,-182.69 104.33,-234.83 104.33,-469.62 0,-234.83 0,-365.3 -26.1,-469.63 -26.1,-104.37 -130.37,-469.57 -130.37,-469.57 0,0 -234.83,339.1 -365.29,573.9 -130.47,234.83 -182.67,234.83 -339.17,626.13 -156.56,391.4 -117.37,326.16 -182.66,600.1 -65.17,273.93 -104.27,339.16 -182.6,573.96 -78.27,234.83 -156.5,365.2 -156.5,365.2z"/>
  <path class="fil1 str0" d="M9983.36 11944.11c273.93,-273.93 573.9,-495.66 639.13,-665.23 65.23,-169.6 326.16,-430.44 404.4,-665.24 78.33,-234.83 156.56,-313.15 182.69,-521.85 26.01,-208.7 13,-841.17 13,-841.17 0,0 -221.79,449.87 -300.03,762.93 -78.26,313.04 -169.59,560.96 -286.96,782.7 -117.37,221.7 -208.7,469.62 -313.13,652.2 -104.27,182.6 -339.1,495.66 -339.1,495.66l0 0z"/>
  <path class="fil1 str0" d="M3780.14 11324.19c365.3,52.14 913.07,156.56 1017.44,234.8 104.42,78.24 365.29,156.56 573.99,208.7 208.7,52.23 573.97,130.46 756.57,130.46 182.69,0 1036.7,-14.23 1092.84,-27.32 56.04,-13.1 133.38,-50.91 133.38,-50.91 0,0 -365.29,-52.23 -573.99,-52.23 -208.7,0 -391.3,-156.47 -495.64,-156.47 -104.36,0 -391.39,-78.33 -600.09,-78.33 -208.73,0 -313.07,-26.04 -547.9,-78.24 -234.74,-52.22 -234.74,-104.36 -443.53,-130.46 -208.7,-26.13 -913.07,0 -913.07,0l0 0z"/>
  <path class="fil1 str0" d="M7348.34 11787.64c365.29,-52.23 428.71,-28.65 704.46,-104.36 275.62,-75.72 547.86,-182.61 547.86,-182.61 0,0 313.07,-104.42 417.4,-182.66 104.37,-78.26 603.6,-352.69 717.4,-430.43 113.87,-77.84 382.02,-331.11 382.02,-331.11 0,0 413.74,-360.32 439.87,-438.58 26.01,-78.24 573.9,-730.47 652.23,-913.07 78.24,-182.66 339.07,-652.23 391.3,-887.03 52.14,-234.83 104.34,-469.63 104.34,-469.63 0,0 104.36,-260.93 117.37,-352.2 13.09,-91.33 39.13,-560.96 39.13,-743.56 0,-182.6 -26.04,-860.93 -52.14,-1043.53 -26.1,-182.7 -208.7,-652.23 -208.7,-704.46 0,-52.14 -169.6,-482.63 -234.83,-626.1 -65.23,-143.47 -221.7,-508.76 -339.16,-652.23 -117.37,-143.47 -547.87,-678.33 -547.87,-678.33"/>
  <path class="fil0 str0" d="M6174.34 10978.82c313.07,78.26 678.33,208.73 834.83,234.83 156.57,26.1 339.17,156.56 626.19,156.56 286.97,0 521.77,26.04 678.27,0 156.57,-26.1 547.87,-130.53 652.23,-182.66 104.34,-52.14 678.33,-260.87 808.8,-391.3 130.46,-130.47 130.46,-39.14 130.46,-39.14 0,0 -495.76,39.14 -808.79,-39.19 -313.07,-78.27 -678.36,-104.28 -1069.66,-78.27 -391.31,26.13 -600.1,0 -887.03,104.37 -286.97,104.36 -965.3,234.8 -965.3,234.8z"/>
  <path class="fil0 str0" d="M6174.34 10978.82c25.05,0 50.02,0.09 74.82,0.18 515.68,2.18 955.86,27.14 1229.64,52.04 286.94,26.04 495.67,26.04 756.6,26.04 260.83,0 313.03,0 521.76,-26.04 208.7,-26.09 469.63,-104.36 600.1,-130.46 130.37,-26.1 393.73,-83.52 393.73,-83.52l-941.63 57.42 -678.33 0 -756.59 0 -756.57 52.2 -443.53 52.14z"/>
  <path class="fil0 str0" d="M8209.27 10509.28c443.53,-130.47 678.33,-104.43 1095.76,-260.93 417.4,-156.56 652.23,-260.93 834.83,-339.16 182.6,-78.24 287.03,-130.47 391.36,-234.8 104.37,-104.37 391.33,-260.87 521.77,-417.43 130.46,-156.57 304.85,-359.03 304.85,-359.03 0,0 -487.42,202.46 -748.35,254.69 -260.93,52.2 -756.6,182.66 -939.2,260.9 -182.66,78.27 -652.23,182.6 -834.89,339.1 -182.6,156.57 -469.57,521.86 -469.57,521.86l-156.56 234.8z"/>
  <path class="fil1 str0" d="M8209.27 10509.28c391.39,-208.7 521.76,-234.8 547.89,-260.93 26.1,-26.1 521.77,-287.03 678.33,-313.07 156.57,-26.09 417.4,-182.66 495.73,-182.66 78.17,0 834.83,-365.2 834.83,-365.2l559.42 -451.74 -507.28 243.04 -600 234.8 -613.19 299.97c0,0 -378.21,91.33 -560.81,169.6 -182.69,78.23 -443.53,313.12 -443.53,313.12l-391.39 313.07 0 0z"/>
  <path class="fil0 str0" d="M9539.83 9335.19c260.86,-208.7 391.39,-260.84 391.39,-260.84l456.53 -273.93 430.44 -326.16c0,0 260.93,-182.6 313.06,-286.94 52.2,-104.36 234.8,-208.7 287.03,-313.06 52.14,-104.37 286.94,-495.67 286.94,-495.67l150.32 -397.23 6.18 -228.96 -234.74 339.16 -417.4 391.31 -339.16 208.79 -469.63 391.3c0,0 -443.53,313.06 -495.67,417.43 -52.23,104.33 -156.56,182.6 -260.93,365.26 -104.36,182.61 -153.49,611.16 -104.36,469.54z"/>
  <path class="fil1 str0" d="M9539.83 9335.19c234.83,-260.84 417.43,-521.76 547.89,-573.9 130.47,-52.2 469.54,-287.03 573.9,-391.36 104.43,-104.37 417.5,-391.31 417.5,-391.31l286.93 -286.96 260.93 -365.27 182.6 -443.53 50.91 -83.61 -233.51 370.55c0,0 -260.93,234.83 -391.39,365.29 -130.37,130.47 -469.54,443.53 -469.54,443.53l-313.06 234.8 -339.17 286.97 -182.6 234.8 -234.89 339.16 -156.5 260.84 0 0z"/>
  <path class="fil2 str0" d="M12200.88 10639.65c156.57,-234.8 234.83,-547.86 260.93,-678.33 26.1,-130.37 130.47,-234.74 130.47,-469.53 0,-234.83 0,-365.3 -78.33,-574 -78.24,-208.7 -39.13,-117.37 -39.13,-117.37 0,0 -78.24,130.47 -169.57,326.07 -91.27,195.7 -130.4,286.97 -130.4,521.86 0,234.74 -26.1,547.86 -26.1,652.23 0,104.27 52.13,339.07 52.13,339.07z"/>
  <path class="fil2 str0" d="M12983.58 9622.25c52.23,-234.83 78.33,-417.43 52.23,-626.22 -26.13,-208.7 -78.33,-469.54 -156.6,-626.1 -78.23,-156.51 -156.47,-339.11 -260.89,-469.63 -104.37,-130.41 -156.51,-234.74 -156.51,-234.74l52.14 443.44c0,0 0,182.66 91.33,430.49 91.33,247.84 169.6,534.86 169.6,534.86l208.7 547.9z"/>
  <path class="fil0 str0" d="M11679.12 10170.11c52.23,-104.42 260.93,-469.62 313.06,-600.09 52.23,-130.46 182.67,-469.63 182.67,-652.23 0,-182.6 26.03,-443.53 0,-547.86 -26.1,-104.37 -78.3,-521.77 -130.44,-600.04 -52.23,-78.23 -195.54,-645.37 -195.54,-645.37l-117.52 1036.67 -52.23 704.46 0 756.6 0 547.86z"/>
  <path class="fil0 str0" d="M11679.12 10170.11c0,0 8.94,-25.39 23.02,-66.61 21.89,-63.94 56.44,-166.09 90.04,-270.92 42.86,-133.97 84.26,-272.4 95.64,-340.79 26.13,-156.6 104.36,-417.44 104.36,-574 0,-156.5 39.14,-430.43 0,-600 -39.13,-169.6 0,-313.07 -39.13,-430.53 -39.1,-117.37 -61.82,-600.49 -61.82,-600.49l-68.64 600.49 -13.01 534.86 0 573.91c0,0 -26.1,208.79 -26.1,365.29 0,156.56 -104.36,808.79 -104.36,808.79z"/>
  <path class="fil2 str0" d="M11999.75 6958.98c104.36,-104.34 156.56,-156.56 156.56,-234.8 0,-78.24 26.04,-260.93 0,-365.3 -26.1,-104.33 -78.33,-391.3 -78.33,-391.3l-78.23 -286.93 -26.1 313.06c0,0 -26.04,286.94 -26.04,443.5 0,156.5 52.14,521.77 52.14,521.77z"/>
  <path class="fil2 str0" d="M12827.02 6543.7c-156.51,-52.23 -91.27,39.1 -286.97,-156.5 -195.61,-195.7 -182.6,-156.57 -313.07,-365.27 -130.43,-208.7 -156.47,-260.93 -234.8,-365.29 -78.23,-104.34 -39.13,-117.37 -39.13,-117.37 0,0 117.46,39.13 195.7,117.37 78.23,78.33 326.07,273.93 326.07,273.93 0,0 143.5,195.7 195.69,352.2 52.23,156.56 156.51,260.93 156.51,260.93z"/>
  <path class="fil1 str0" d="M12474.82 8800.42c39.13,-691.42 -13.01,-1134.86 -13.01,-1134.86l-78.23 -808.79 -315.59 -1091.37c0,0 -277.04,-732.19 -441.01,-943.59 -163.97,-211.38 -417.4,-730.47 -704.43,-1017.5 -286.96,-286.93 -652.23,-704.36 -652.23,-704.36"/>
  <path class="fil3 str0" d="M9646.87 10378.81c-56.11,0 -101.57,-49.86 -101.57,-111.25 0,-61.42 45.46,-111.28 101.57,-111.28 56.13,0 101.69,49.86 101.69,111.28 0,61.39 -45.56,111.25 -101.69,111.25z"/>
  <path class="fil3 str0" d="M10100.73 10222.25c-50.42,0 -91.34,-40.92 -91.34,-91.33 0,-50.35 40.92,-91.27 91.34,-91.27 50.44,0 91.33,40.92 91.33,91.27 0,50.41 -40.89,91.33 -91.33,91.33z"/>
  <path class="fil3 str0" d="M9679.67 9722.43c-48.42,0 -87.61,-39.19 -87.61,-87.67 0,-48.38 39.19,-87.67 87.61,-87.67 48.48,0 87.67,39.29 87.67,87.67 0,48.48 -39.19,87.67 -87.67,87.67z"/>
  <path class="fil3 str0" d="M10283.42 9987.42c-50.45,0 -91.36,-40.82 -91.36,-91.24 0,-50.44 40.91,-91.36 91.36,-91.36 50.41,0 91.24,40.92 91.24,91.36 0,50.42 -40.83,91.24 -91.24,91.24z"/>
  <path class="fil3 str0" d="M10513.91 9453.79c-62.46,0 -113.12,-50.66 -113.12,-113.22 0,-62.47 50.66,-113.13 113.12,-113.13 62.47,0 113.13,50.66 113.13,113.13 0,62.56 -50.66,113.22 -113.13,113.22z"/>
  <path class="fil3 str0" d="M10139.86 9126.49c-57.61,0 -104.37,-46.66 -104.37,-104.33 0,-57.67 46.76,-104.37 104.37,-104.37 57.67,0 104.33,46.7 104.33,104.37 0,57.67 -46.66,104.33 -104.33,104.33z"/>
  <path class="fil3 str0" d="M10844.29 8996.03c-57.67,0 -104.34,-46.67 -104.34,-104.34 0,-57.61 46.67,-104.36 104.34,-104.36 57.67,0 104.36,46.75 104.36,104.36 0,57.67 -46.69,104.34 -104.36,104.34z"/>
  <path class="fil3 str0" d="M11039.98 8682.99c-64.89,0 -117.43,-52.57 -117.43,-117.37 0,-64.83 52.54,-117.37 117.43,-117.37 64.84,0 117.37,52.54 117.37,117.37 0,64.8 -52.53,117.37 -117.37,117.37z"/>
  <path class="fil3 str0" d="M10518.22 7887.26c-64.9,0 -117.43,-52.53 -117.43,-117.37 0,-64.8 52.53,-117.43 117.43,-117.43 64.83,0 117.37,52.63 117.37,117.43 0,64.84 -52.54,117.37 -117.37,117.37z"/>
  <path class="fil3 str0" d="M11196.49 8187.32c-64.84,0 -117.37,-52.53 -117.37,-117.36 0,-64.93 52.53,-117.47 117.37,-117.47 64.8,0 117.36,52.54 117.36,117.47 0,64.83 -52.56,117.36 -117.36,117.36z"/>
  <path class="fil3 str0" d="M10700.82 7509c-64.9,0 -117.46,-52.57 -117.46,-117.37 0,-64.84 52.56,-117.46 117.46,-117.46 64.83,0 117.37,52.62 117.37,117.46 0,64.8 -52.54,117.37 -117.37,117.37z"/>
  <path class="fil3 str0" d="M11440.88 7171.37c-55.71,0 -100.93,-45.16 -100.93,-100.86 0,-55.8 45.22,-100.96 100.93,-100.96 55.73,0 100.95,45.16 100.95,100.96 0,55.7 -45.22,100.86 -100.95,100.86z"/>
  <path class="fil3 str0" d="M10844.29 6700.26c-57.67,0 -104.34,-46.75 -104.34,-104.42 0,-57.58 46.67,-104.28 104.34,-104.28 57.67,0 104.36,46.7 104.36,104.28 0,57.67 -46.69,104.42 -104.36,104.42z"/>
  <path class="fil3 str0" d="M12827.08 7509c-57.64,0 -104.34,-46.7 -104.34,-104.37 0,-57.58 46.7,-104.37 104.34,-104.37 57.61,0 104.36,46.79 104.36,104.37 0,57.67 -46.75,104.37 -104.36,104.37z"/>
  <path class="fil3 str0" d="M12083.52 7665.56c-50.42,0 -91.34,-40.92 -91.34,-91.33 0,-50.45 40.92,-91.27 91.34,-91.27 50.44,0 91.33,40.82 91.33,91.27 0,50.41 -40.89,91.33 -91.33,91.33z"/>
  <path class="fil3 str0" d="M12122.65 8161.19c-57.67,0 -104.37,-46.66 -104.37,-104.33 0,-57.58 46.7,-104.37 104.37,-104.37 57.67,0 104.33,46.79 104.33,104.37 0,57.67 -46.66,104.33 -104.33,104.33z"/>
  <path class="fil1 str0" d="M12122.65 7952.49c78.23,-130.46 182.6,-339.16 182.6,-339.16 0,0 53.52,-73.04 78.33,-286.94 24.71,-213.92 0,-469.62 0,-469.62 0,0 46.6,208.7 -39.14,378.26 -85.79,169.6 -205.28,266.8 -205.28,266.8"/>
  <path class="fil1 str0" d="M12740.94 7345.67c-148.66,-149.74 -54.66,-2.77 -200.89,-149.74 -146.14,-146.97 -156.47,-339.16 -156.47,-339.16"/>
  <path class="fil1 str0" d="M9715.85 10185.88c319.64,-407.16 450.11,-694.09 450.11,-694.09 0,0 182.6,-339.17 221.79,-430.53 39.14,-91.24 215.22,-423.92 215.22,-423.92l136.98 -293.54 300.03 -756.57c0,0 182.6,-404.33 221.74,-704.37 39.1,-300.06 130.46,-600.09 169.56,-821.82 39.14,-221.71 65.24,-900.04 65.24,-900.04l-52.2 -1487.06"/>
  <path class="fil1 str0" d="M10903.92 6510.19c227.33,-201.32 187.46,-103.47 331.67,-331.69 144.3,-228.32 246.54,-714.45 246.54,-714.45"/>
  <path class="fil1 str0" d="M11401.37 6977.61c-35.32,-251.31 -63.45,-370.06 -49.37,-558.53"/>
  <path class="fil1 str0" d="M10789.81 7315.08c210.98,-171.29 355.43,-140.15 419.77,-327.85 64.25,-187.74 87.27,-316.32 87.27,-316.32"/>
  <path class="fil1 str0" d="M10598.91 7684.68c245.38,-123.49 193.18,-97.45 271.51,-149.59 78.23,-52.22 301.26,-289.54 301.26,-289.54"/>
  <path class="fil1 str0" d="M11141.34 7966.24c-36.12,-196.35 -10.09,-483.37 -10.09,-483.37l40.43 -237.32"/>
  <path class="fil1 str0" d="M10973.31 8468.91c-54.75,-69.72 -104.28,-296.06 -104.28,-296.06l20.91 -207.26"/>
  <path class="fil1 str0" d="M10844.29 8787.33c-26.1,-182.61 -26.1,-313.07 -26.1,-313.07l15.03 -365.66"/>
  <path class="fil1 str0" d="M10513.91 9227.44c-20.99,-379.28 157.55,-736.83 157.55,-736.83"/>
  <path class="fil1 str0" d="M10283.42 9804.82c-70.86,-160.13 -70.86,-160.13 -70.86,-160.13l5.63 -231.17"/>
  <path class="fil1 str0" d="M10100.73 10039.65c0,-143.47 0,-300.03 0,-300.03l116.23 -275.1 1.23 -51"/>
  <path class="fil3" d="M3513.53 6406.96c-17.49,0 -31.39,-6.97 -41.87,-20.9 -10.51,-13.99 -15.71,-31.39 -15.71,-50.6 0,-43.59 22.69,-88.96 66.28,-136.06 45.4,-47.09 106.39,-71.5 184.87,-71.5 43.69,0 106.49,12.2 186.69,36.61 69.79,19.18 118.57,29.7 151.77,29.7 17.4,0 38.3,-7.01 60.99,-22.72 24.41,-15.68 34.89,-54.08 34.89,-116.88 -12.2,0 -48.78,-1.78 -109.87,-5.19 -78.51,-3.51 -144.79,-5.29 -198.86,-5.29l-458.75 -3.51c-61.08,0 -113.37,5.29 -155.27,13.99l13.99 -47.09c55.79,-1.79 95.97,-15.68 122.1,-41.87 26.19,-26.19 61.08,-108.18 101.17,-249.47l87.18 -313.95 83.8 -312.24c-111.68,1.78 -195.39,19.18 -252.97,55.8 -57.57,36.67 -87.18,78.57 -87.18,127.36 0,15.7 6.98,36.61 22.69,61.08 12.2,22.62 19.18,40.12 19.18,55.79 0,13.93 -5.28,27.92 -15.77,38.4 -10.42,12.2 -22.59,17.4 -38.3,17.4 -21,0 -38.4,-10.39 -52.38,-29.61 -13.9,-19.18 -20.91,-47.09 -20.91,-81.98 0,-55.8 17.4,-106.46 50.6,-149.99 34.89,-45.37 76.76,-76.76 127.27,-97.75 48.91,-20.91 95.97,-34.89 141.38,-41.81 43.59,-6.98 136.06,-10.48 275.56,-10.48 -20.9,41.8 -34.89,76.76 -45.31,102.89 -8.79,27.88 -29.7,101.17 -62.87,219.76 -69.78,256.44 -118.6,418.63 -142.97,486.69 -26.2,66.31 -48.91,111.69 -69.82,134.31 45.41,6.98 92.5,10.48 144.79,10.48 68,0 151.77,-7.01 252.97,-20.9 1.69,0 36.58,-130.86 104.58,-389.03 47.1,-181.37 87.27,-313.95 123.89,-397.72 34.89,-83.71 78.48,-146.48 132.55,-190.07 54.11,-45.41 116.91,-66.31 188.38,-66.31 47.1,0 85.49,8.7 113.41,27.91 27.88,19.18 41.86,41.87 41.86,68.06 0,33.11 -17.49,50.51 -50.6,50.51 -20.96,0 -43.59,-13.9 -68.06,-43.59 -26.09,-29.61 -48.81,-43.59 -69.72,-43.59 -57.57,0 -116.87,76.79 -174.45,231.97 -59.3,153.55 -127.3,413.43 -207.56,781.46 5.19,0 19.18,1.72 41.87,5.29 31.41,5.2 57.51,8.7 76.72,8.7 24.47,0 52.36,-3.5 80.27,-8.7l-20.9 104.61c-10.49,43.59 -22.69,78.48 -38.4,102.95 -15.77,24.41 -41.87,43.59 -78.48,57.52 -34.89,12.2 -81.99,19.18 -139.57,19.18 -43.62,0 -101.19,-12.2 -172.67,-34.89 -59.3,-20.9 -108.17,-31.39 -146.57,-31.39 -50.6,0 -75.01,19.19 -75.01,57.58 0,10.52 5.29,24.41 13.99,41.9 8.7,17.4 12.2,29.61 12.2,38.31 0,33.17 -15.67,48.87 -47.09,48.87zm1238.43 -769.26l41.87 -1.72c75,0 113.4,38.4 113.4,113.4 0,76.76 -43.59,148.27 -132.59,214.55 -88.9,67.99 -174.39,101.19 -259.85,101.19 -104.7,0 -156.99,-55.88 -156.99,-167.47 0,-132.59 40.08,-261.67 122.07,-387.25 81.99,-123.85 176.18,-186.65 286.07,-186.65 81.99,0 123.8,38.39 123.8,113.37 0,73.28 -45.31,141.28 -137.78,200.58zm-237.17 68.06c169.17,-73.25 252.85,-151.76 252.85,-237.22 0,-54.11 -22.6,-80.3 -66.28,-80.3 -87.18,0 -149.99,106.46 -186.57,317.52zm-7.01 61.02c-3.5,31.39 -7.01,62.78 -7.01,92.47 0,50.6 5.23,87.18 17.49,106.4 10.43,20.9 31.42,31.38 59.3,31.38 40.12,0 80.21,-22.68 123.8,-66.27 41.9,-43.59 62.86,-94.19 62.86,-151.71 0,-59.36 -22.68,-88.96 -66.27,-88.96 -36.68,0 -99.48,26.09 -190.17,76.69zm941.94 59.36l27.91 36.62c-139.57,132.58 -258.16,198.86 -357.55,198.86 -40.18,0 -69.78,-13.99 -92.47,-40.18 -20.99,-27.91 -31.42,-71.5 -31.42,-130.8 0,-122.07 36.62,-242.45 111.59,-362.84 81.99,-136.06 181.47,-204.05 296.56,-204.05 40.18,0 71.5,10.48 92.47,29.69 20.9,20.91 31.42,48.79 31.42,83.68 0,36.61 -12.21,73.28 -38.4,108.18 -26.19,36.61 -71.5,73.28 -136.09,111.59 -33.11,19.21 -104.67,52.38 -212.76,101.19 -3.5,29.61 -7,59.27 -7,87.19 0,40.17 7,68.09 19.21,83.76 12.2,15.71 31.38,24.41 55.79,24.41 22.69,0 48.88,-7.01 76.76,-19.18 36.62,-17.49 92.41,-54.1 163.98,-108.12zm-298.25 -122.16c92.4,-40.09 160.46,-85.4 205.78,-130.77 31.38,-33.2 47.09,-66.31 47.09,-97.7 0,-24.4 -7.01,-43.59 -19.18,-59.3 -12.21,-13.98 -29.6,-20.96 -48.82,-20.96 -20.9,0 -41.9,6.98 -61.08,24.47 -27.88,20.9 -50.6,52.29 -68,94.19 -26.19,62.77 -45.37,125.58 -55.79,190.07zm467.44 -181.37l-24.41 -34.89c55.8,-55.8 109.87,-97.7 160.47,-123.89 50.6,-26.1 90.69,-40.08 118.6,-40.08 12.21,0 20.9,1.78 27.88,6.97 5.29,5.23 8.79,13.93 8.79,22.72 0,10.39 -5.28,31.39 -13.98,62.77 -13.99,47.1 -22.69,85.49 -27.91,113.41 137.81,-137.88 242.48,-205.87 313.95,-205.87 19.22,0 33.2,5.19 41.9,15.7 10.42,10.49 15.71,27.89 15.71,50.57 0,24.41 -8.7,64.59 -26.19,120.38 64.56,-67.99 120.38,-115.15 167.45,-144.75 48.81,-27.92 85.49,-41.9 111.68,-41.9 24.41,0 41.8,6.97 55.79,20.9 12.21,12.2 19.21,33.17 19.21,62.86 0,15.62 -3.5,36.62 -8.79,59.3 -5.19,24.41 -26.1,94.19 -60.99,212.76 -45.4,146.57 -68.09,233.79 -68.09,261.67 0,19.21 8.79,29.6 24.47,29.6 10.42,0 20.91,-3.41 31.42,-10.39 33.11,-24.41 68,-54.1 102.89,-88.99l27.88 31.38c-12.2,8.7 -34.89,29.7 -68,59.3 -45.37,41.9 -74.98,66.28 -92.47,76.79 -33.1,20.91 -61.08,29.61 -83.7,29.61 -17.47,0 -31.39,-8.7 -45.38,-24.41 -12.2,-17.4 -19.18,-40.09 -19.18,-69.78 0,-26.1 3.47,-59.3 12.17,-95.88 7.01,-34.93 31.42,-116.91 68.09,-244.27 29.61,-95.88 43.59,-153.49 43.59,-174.4 0,-19.18 -8.69,-27.88 -26.19,-27.88 -13.89,0 -31.38,6.92 -55.79,20.91 -48.88,29.69 -88.97,64.49 -122.07,108.17 -22.69,27.89 -41.9,74.98 -59.3,139.48 -38.4,137.87 -66.28,252.96 -85.49,340.14l-122.17 0 127.39 -519.79c8.7,-38.31 13.99,-59.3 13.99,-66.22 0,-6.98 -1.81,-12.2 -7.01,-17.49 -5.29,-3.51 -10.48,-5.2 -19.18,-5.2 -15.71,0 -40.12,12.21 -71.5,34.89 -57.58,40.09 -97.7,78.49 -122.17,116.88 -24.41,36.61 -45.31,94.19 -62.8,170.89l-66.28 286.04 -122.07 0 95.97 -406.42c29.6,-116.88 43.59,-181.37 43.59,-191.79 0,-12.27 -5.29,-17.5 -15.71,-17.5 -22.68,0 -68,33.11 -136.06,97.7zm1482.67 -198.86c55.79,0 101.17,22.68 137.78,66.27 36.67,43.59 55.79,106.4 55.79,184.88 0,125.58 -43.52,238.98 -132.49,340.15 -88.99,99.48 -183.18,150.07 -282.57,150.07 -59.36,0 -109.96,-19.21 -146.57,-59.39 -36.58,-40.08 -55.8,-94.19 -55.8,-163.97 0,-118.57 34.89,-228.47 102.89,-329.63 85.49,-125.58 191.89,-188.38 320.97,-188.38zm-73.29 64.49c-48.81,0 -94.19,34.89 -139.5,102.98 -45.37,69.78 -68.06,163.97 -68.06,286.05 0,73.28 13.99,132.58 41.87,174.39 20.9,31.48 47.09,47.09 81.98,47.09 47.1,0 90.69,-29.6 129.09,-88.9 50.6,-76.79 75,-170.98 75,-284.35 0,-85.49 -10.51,-146.48 -34.89,-183.09 -22.62,-36.68 -50.6,-54.17 -85.49,-54.17zm329.73 130.86l-36.67 -29.6c118.66,-109.96 209.34,-165.75 270.42,-165.75 29.61,0 45.32,20.9 45.32,61.08 0,29.6 -8.7,83.71 -29.7,162.19l-31.39 127.36c-1.72,12.2 -3.41,22.68 -3.41,27.91 0,22.69 13.9,33.08 43.59,33.08 27.88,0 66.28,-17.4 115.1,-54.08 48.87,-36.61 81.98,-74.97 102.95,-116.78 19.12,-41.9 41.81,-115.19 64.49,-219.86l122.1 0 -78.48 298.34c-47.09,172.67 -71.5,270.37 -71.5,294.74 0,22.72 8.7,33.11 24.41,33.11 20.9,0 68.06,-36.58 141.25,-109.8l27.92 31.32c-115.1,118.66 -200.59,177.96 -254.66,177.96 -15.71,0 -31.39,-7.01 -45.31,-20.9 -13.99,-15.77 -20.97,-34.89 -20.97,-59.3 0,-29.67 5.29,-68.06 17.46,-116.88l48.82 -191.95c-125.58,102.99 -221.49,155.28 -289.55,155.28 -54.11,0 -80.2,-24.41 -80.2,-73.29 0,-24.41 15.7,-94.19 47.09,-211.07 13.9,-54.01 20.9,-87.18 20.9,-99.38 0,-17.4 -7,-24.41 -19.21,-24.41 -24.38,0 -66.28,29.6 -130.77,90.68zm1508.76 371.54c-115.09,120.38 -200.55,179.68 -254.65,179.68 -15.71,0 -31.39,-7.01 -45.32,-20.9 -13.98,-13.99 -20.96,-34.89 -20.96,-59.3 0,-29.67 5.29,-66.37 17.49,-113.47l41.87 -167.38 -233.75 0 -80.27 331.35 -127.3 0c1.69,-6.97 6.92,-29.6 17.4,-69.78 8.7,-27.82 24.41,-87.18 45.38,-174.36l76.79 -305.26c3.41,-15.71 5.19,-27.91 5.19,-36.61 0,-17.49 -5.19,-26.19 -17.46,-26.19 -24.41,0 -69.72,29.6 -130.8,90.68l-38.4 -29.6c120.38,-109.96 211.07,-165.75 272.15,-165.75 31.42,0 47.1,20.9 47.1,62.8 0,40.09 -19.18,129.05 -55.8,270.34l231.97 0 83.71 -312.24 123.86 0 -80.27 298.34c-47.09,172.67 -71.5,270.37 -71.5,294.74 0,22.72 8.7,33.11 24.41,33.11 20.9,0 68,-36.58 141.28,-111.59l27.88 31.39zm643.69 -580.88l57.61 -12.21 -64.59 216.36c-24.41,85.4 -48.82,183.15 -71.5,296.46 -12.21,59.3 -19.19,99.48 -19.19,116.88 0,17.49 6.98,26.19 20.97,26.19 8.64,0 24.41,-5.19 43.53,-17.4 34.89,-20.99 68.06,-47.18 99.48,-76.79l27.88 33.11c-64.5,57.58 -106.4,94.19 -123.79,106.39 -36.68,24.47 -71.57,43.69 -102.96,54.08 -22.71,8.79 -43.62,12.29 -64.58,12.29 -13.93,0 -24.41,-3.5 -33.11,-10.51 -7.01,-6.98 -10.42,-17.4 -10.42,-29.66 0,-8.7 1.72,-19.22 6.91,-34.83l34.9 -115.16c-48.79,59.3 -108.18,109.87 -176.18,151.77 -40.09,26.1 -78.48,38.39 -113.37,38.39 -33.11,0 -57.58,-12.29 -74.98,-34.89 -24.41,-31.48 -36.61,-73.28 -36.61,-123.88 0,-59.3 15.71,-127.3 48.78,-200.59 31.42,-73.25 75.01,-141.25 129.08,-200.64 52.33,-60.99 109.9,-104.58 169.2,-134.28 45.38,-20.9 104.68,-31.39 177.96,-31.39 17.4,0 36.58,1.69 54.01,3.48l20.97 -33.17zm-104.67 130.86c-31.39,-5.19 -57.58,-8.7 -78.49,-8.7 -50.6,0 -94.19,13.9 -132.58,41.81 -38.4,27.97 -73.2,78.48 -106.4,151.77 -33.07,73.28 -48.78,146.57 -48.78,218.04 0,40.12 6.92,66.31 19.12,83.71 13.99,17.49 31.39,26.19 52.38,26.19 38.31,0 80.17,-20.9 125.58,-62.8 43.59,-43.59 76.7,-104.67 97.66,-183.16l71.51 -266.86zm242.45 429.05c15.71,52.39 26.19,83.77 33.2,94.26 5.2,12.2 15.68,17.39 31.39,17.39 26.1,0 57.51,-29.66 92.4,-87.18 34.89,-59.36 66.28,-99.38 92.47,-120.38 26.19,-20.9 69.78,-40.08 130.87,-55.79l0 -10.49 -22.69 0c-71.57,0 -125.67,-13.89 -162.25,-41.8 -36.61,-26.19 -54.11,-61.09 -54.11,-101.17 0,-64.59 40.18,-116.88 118.6,-157 78.58,-41.86 181.47,-62.86 312.24,-62.86l151.77 3.5 -80.21 296.53c-47.09,170.98 -69.78,268.68 -69.78,293.05 0,22.72 8.7,33.11 24.41,33.11 19.18,0 66.28,-36.58 139.56,-109.8l27.92 31.32c-113.38,118.66 -197.08,177.96 -251.16,177.96 -19.21,0 -34.92,-7.01 -47.09,-22.69 -12.21,-15.71 -19.21,-38.39 -19.21,-68 0,-31.38 5.19,-66.27 17.39,-109.96l38.4 -146.48c-47.09,0 -85.49,13.99 -115.16,40.09 -29.6,27.97 -67.99,81.99 -115.09,165.75 -54.1,94.19 -113.37,141.29 -181.37,141.29 -26.19,0 -50.6,-8.7 -71.5,-27.88 -21,-17.49 -41.9,-71.6 -62.87,-158.78l41.87 -13.99zm584.42 -446.54c-33.2,-8.7 -71.6,-13.89 -111.69,-13.89 -47.09,0 -90.68,13.89 -130.86,41.87 -38.3,27.91 -57.52,64.49 -57.52,109.89 0,78.49 52.29,116.88 157,116.88 17.4,0 43.59,-1.78 76.7,-5.29l66.37 -249.46z"/>
  <path class="fil3" d="M6289.03 6920.92c27.89,106.4 64.5,261.67 113.38,467.51 47.09,205.78 74.97,320.97 83.7,343.65 3.48,-8.79 20.91,-78.48 50.57,-207.56 40.12,-167.48 75.01,-294.84 106.4,-383.83 33.11,-90.69 69.78,-155.18 115.09,-191.86 45.38,-38.39 97.76,-57.51 158.78,-57.51 36.58,0 64.49,6.91 83.68,20.9 19.27,15.71 29.69,33.11 29.69,52.29 0,13.99 -5.19,26.19 -15.71,38.4 -10.48,10.48 -22.68,15.71 -36.58,15.71 -10.51,0 -20.99,-3.51 -34.89,-8.7 -38.4,-15.71 -66.31,-24.41 -85.49,-24.41 -24.41,0 -47.1,8.7 -68,24.41 -21,15.67 -47.19,61.08 -76.79,134.27 -31.39,73.29 -62.77,176.18 -97.66,312.24 -34.93,134.37 -69.82,280.85 -104.71,437.84l-29.6 127.36c-6.98,-13.99 -22.69,-45.37 -48.88,-97.66 -29.6,-55.89 -52.29,-108.18 -68,-158.78 -15.68,-48.88 -45.37,-165.69 -87.27,-347.13l-68 -296.55c-12.2,75.07 -45.37,218.04 -99.39,429.11 -54.07,211.07 -108.17,345.43 -162.25,402.95 -55.79,57.58 -118.6,85.46 -191.88,85.46 -52.29,0 -94.19,-10.48 -125.58,-29.66 -29.69,-20.91 -45.31,-45.32 -45.31,-73.23 0,-10.48 5.23,-20.96 13.93,-31.39 8.69,-8.7 20.9,-13.98 34.89,-13.98 19.18,0 38.39,8.7 57.57,27.91 36.62,33.17 69.79,48.88 99.39,48.88 87.21,0 160.47,-94.19 219.77,-282.57 59.3,-188.44 113.4,-418.63 162.28,-689 -40.12,0 -95.98,10.42 -165.79,29.6 -71.47,19.22 -123.85,48.82 -156.96,87.22 -34.89,38.39 -52.29,81.98 -52.29,132.55 0,34.89 10.39,69.81 29.6,101.2 12.21,20.9 19.18,36.58 19.18,48.88 0,12.2 -5.19,24.41 -13.89,34.8 -10.51,8.79 -22.69,13.98 -36.67,13.98 -22.63,0 -41.81,-12.17 -55.8,-34.89 -13.93,-24.37 -20.9,-57.57 -20.9,-101.17 0,-76.69 19.18,-141.28 57.48,-195.35 38.4,-54.11 83.77,-90.69 136.09,-113.41 52.29,-20.9 137.84,-40.08 254.66,-55.79 45.37,-6.98 87.27,-13.99 122.16,-22.69zm831.98 537.23c0,81.99 -24.41,158.78 -71.51,228.56 -48.87,71.47 -108.17,106.36 -177.96,106.36 -47.09,0 -83.67,-17.4 -109.86,-50.57 -26.19,-33.1 -40.12,-73.28 -40.12,-118.6 0,-81.98 22.69,-158.77 69.78,-231.97 47.1,-73.28 106.4,-109.86 179.68,-109.86 43.59,0 78.48,13.89 106.4,43.59 29.69,29.6 43.59,73.19 43.59,132.49zm-101.11 -22.63c0,-80.26 -19.27,-120.35 -59.36,-120.35 -36.61,0 -68,36.59 -95.91,108.09 -26.19,71.56 -40.18,143.07 -40.18,214.63 0,81.99 21,122.1 61.08,122.1 34.89,0 64.59,-34.89 92.5,-102.98 27.88,-68 41.87,-142.97 41.87,-221.49zm-352.41 451.74l371.53 0 0 59.3 -371.53 0 0 -59.3zm779.68 -763.97l-34.83 -24.41c57.52,-66.28 101.2,-108.18 127.3,-125.58 50.6,-31.38 99.47,-47.09 151.77,-47.09 50.59,0 92.49,13.92 122.1,40.12 29.66,26.09 45.37,60.99 45.37,102.89 0,88.96 -68,183.15 -202.37,282.54 45.41,1.78 80.3,10.48 104.68,24.4 22.71,13.99 43.62,36.68 57.51,66.37 15.77,27.89 22.69,62.71 22.69,104.58 0,109.9 -55.79,211.07 -165.66,305.26 -94.19,81.99 -191.89,122.1 -291.27,122.1 -43.69,0 -83.77,-10.42 -120.38,-31.32 -36.68,-19.18 -54.08,-45.37 -54.08,-75.07 0,-12.2 5.2,-24.41 13.9,-33.11 8.79,-8.7 20.99,-13.99 33.17,-13.99 17.43,0 36.61,10.49 57.61,31.39 29.6,27.91 50.56,45.41 64.49,52.38 20.9,8.7 38.39,13.93 52.38,13.93 45.31,0 94.19,-26.19 148.27,-78.51 80.2,-76.76 120.28,-160.47 120.28,-252.94 0,-45.31 -12.2,-83.71 -38.3,-109.9 -24.47,-27.88 -57.58,-41.81 -95.97,-41.81 -29.7,0 -62.81,7.01 -99.39,19.22l6.92 -52.38c73.29,-26.2 137.78,-71.51 197.14,-136 40.12,-45.38 61.08,-92.47 61.08,-137.88 0,-36.58 -8.76,-64.49 -26.19,-83.67 -19.18,-19.22 -41.87,-29.7 -73.28,-29.7 -64.5,0 -125.58,36.61 -184.94,108.18z"/>
 </g>
</svg>
