<?xml version="1.0" encoding="UTF-8"?>
<svg width="700pt" height="700pt" version="1.1" viewBox="0 0 700 700" xmlns="http://www.w3.org/2000/svg" xmlns:xlink="http://www.w3.org/1999/xlink">
 <defs>
  <symbol id="t" overflow="visible">
   <path d="m0.29688-0.015625c-0.023437 0.011719-0.042969 0.015625-0.0625 0.015625h-0.046875c-0.054688 0-0.09375-0.0078125-0.125-0.03125-0.03125-0.03125-0.046875-0.070312-0.046875-0.125 0-0.050781 0.015625-0.09375 0.046875-0.125s0.070312-0.046875 0.125-0.046875c0.019531 0 0.035156 0.007813 0.046875 0.015625 0.019531 0 0.039063 0.007812 0.0625 0.015625v0.0625c-0.023437-0.007813-0.042969-0.015625-0.0625-0.015625-0.011719-0.007812-0.027344-0.015625-0.046875-0.015625-0.023438 0-0.042969 0.011719-0.0625 0.03125-0.011719 0.023437-0.015625 0.046875-0.015625 0.078125s0.003906 0.058594 0.015625 0.078125c0.019531 0.023438 0.039062 0.03125 0.0625 0.03125h0.046875c0.019531-0.0078125 0.039063-0.019531 0.0625-0.03125z"/>
  </symbol>
  <symbol id="a" overflow="visible">
   <path d="m0.20312-0.17188h-0.015625c0-0.007813-0.007812-0.015625-0.015625-0.015625-0.023437 0-0.039063 0.011719-0.046875 0.03125-0.011719 0.011719-0.015625 0.027344-0.015625 0.046875v0.10938h-0.078125v-0.23438h0.078125v0.046875c0.007813-0.019531 0.019531-0.035156 0.03125-0.046875 0.007813-0.007813 0.023437-0.015625 0.046875-0.015625h0.015625z"/>
  </symbol>
  <symbol id="d" overflow="visible">
   <path d="m0.26562-0.125v0.03125h-0.17188c0 0.023438 0.0039062 0.039062 0.015625 0.046875h0.046875 0.046875c0.019531-0.0078125 0.039063-0.019531 0.0625-0.03125v0.0625c-0.023437 0.011719-0.042969 0.015625-0.0625 0.015625h-0.046875c-0.042969 0-0.078125-0.0078125-0.10938-0.03125-0.023438-0.019531-0.03125-0.046875-0.03125-0.078125 0-0.039063 0.0078125-0.070313 0.03125-0.09375 0.03125-0.03125 0.0625-0.046875 0.09375-0.046875 0.039063 0 0.070313 0.015625 0.09375 0.046875 0.019531 0.023437 0.03125 0.046875 0.03125 0.078125zm-0.078125-0.015625c0-0.019531-0.007812-0.03125-0.015625-0.03125 0-0.007813-0.011719-0.015625-0.03125-0.015625-0.011719 0-0.023437 0.007812-0.03125 0.015625-0.011719 0-0.015625 0.011719-0.015625 0.03125z"/>
  </symbol>
  <symbol id="f" overflow="visible">
   <path d="m0.14062-0.10938c-0.011719 0-0.023437 0.007813-0.03125 0.015625-0.011719 0-0.015625 0.0078125-0.015625 0.015625v0.03125h0.03125c0.019531 0 0.035156-0.0039062 0.046875-0.015625 0.007813-0.0078125 0.015625-0.019531 0.015625-0.03125v-0.015625zm0.10938-0.03125v0.14062h-0.0625v-0.03125c-0.011719 0.011719-0.027344 0.023438-0.046875 0.03125h-0.046875c-0.023438 0-0.042969-0.0039062-0.0625-0.015625-0.011719-0.0078125-0.015625-0.03125-0.015625-0.0625 0-0.019531 0.0078125-0.035156 0.03125-0.046875 0.019531-0.007812 0.050781-0.015625 0.09375-0.015625h0.046875v-0.015625c0-0.007812-0.007812-0.015625-0.015625-0.015625-0.011719-0.007813-0.027344-0.015625-0.046875-0.015625h-0.0625c-0.011719 0-0.015625 0.007812-0.015625 0.015625v-0.0625h0.03125c0.019531-0.007813 0.039063-0.015625 0.0625-0.015625 0.039063 0 0.066406 0.011719 0.078125 0.03125 0.019531 0.023438 0.03125 0.046875 0.03125 0.078125z"/>
  </symbol>
  <symbol id="c" overflow="visible">
   <path d="m0.125-0.29688v0.0625h0.0625v0.046875h-0.0625v0.10938 0.03125h0.015625 0.046875v0.046875h-0.0625c-0.03125 0-0.054688-0.0039062-0.0625-0.015625-0.011719-0.019531-0.015625-0.039062-0.015625-0.0625v-0.10938h-0.046875v-0.046875h0.046875v-0.0625z"/>
  </symbol>
  <symbol id="k" overflow="visible">
   <path d="m0.1875-0.20312v-0.125h0.078125v0.32812h-0.078125v-0.03125c0 0.011719-0.011719 0.023438-0.03125 0.03125h-0.03125c-0.03125 0-0.058594-0.0078125-0.078125-0.03125-0.023438-0.019531-0.03125-0.046875-0.03125-0.078125 0-0.039063 0.0078125-0.070313 0.03125-0.09375 0.019531-0.03125 0.046875-0.046875 0.078125-0.046875 0.007812 0 0.019531 0.007812 0.03125 0.015625 0.019531 0.011719 0.03125 0.023437 0.03125 0.03125zm-0.046875 0.15625c0.019531 0 0.03125-0.0039062 0.03125-0.015625 0.007813-0.0078125 0.015625-0.023438 0.015625-0.046875 0-0.019531-0.007812-0.035156-0.015625-0.046875 0-0.019531-0.011719-0.03125-0.03125-0.03125-0.011719 0-0.023437 0.011719-0.03125 0.03125-0.011719 0.011719-0.015625 0.027344-0.015625 0.046875 0 0.023438 0.0039062 0.039062 0.015625 0.046875 0.007813 0.011719 0.019531 0.015625 0.03125 0.015625z"/>
  </symbol>
  <symbol id="j" overflow="visible">
   <path d="m0.15625-0.046875c0.019531 0 0.03125-0.0039062 0.03125-0.015625 0.007812-0.0078125 0.015625-0.023438 0.015625-0.046875 0-0.019531-0.007813-0.035156-0.015625-0.046875 0-0.019531-0.011719-0.03125-0.03125-0.03125-0.011719 0-0.023438 0.011719-0.03125 0.03125-0.011719 0.011719-0.015625 0.027344-0.015625 0.046875 0 0.011719 0.003906 0.027344 0.015625 0.046875 0.007812 0.011719 0.019531 0.015625 0.03125 0.015625zm-0.046875-0.15625 0.03125-0.03125c0.019531-0.007813 0.035156-0.015625 0.046875-0.015625 0.03125 0 0.054688 0.015625 0.078125 0.046875 0.019531 0.023437 0.03125 0.054687 0.03125 0.09375 0 0.03125-0.011719 0.058594-0.03125 0.078125-0.023437 0.023438-0.046875 0.03125-0.078125 0.03125h-0.046875c-0.011719-0.0078125-0.023437-0.019531-0.03125-0.03125v0.03125h-0.078125v-0.32812h0.078125z"/>
  </symbol>
  <symbol id="i" overflow="visible">
   <path d="m0-0.23438h0.078125l0.0625 0.15625 0.046875-0.15625h0.09375l-0.10938 0.25c-0.011719 0.03125-0.023437 0.050781-0.03125 0.0625-0.011719 0.0078125-0.027344 0.015625-0.046875 0.015625h-0.046875v-0.046875h0.015625c0.019531 0 0.03125-0.0078125 0.03125-0.015625 0 0 0.0039062-0.0078125 0.015625-0.015625v-0.015625z"/>
  </symbol>
  <symbol id="e" overflow="visible">
   <path d="m0.10938-0.03125v0.125h-0.078125v-0.32812h0.078125v0.03125l0.03125-0.03125c0.019531-0.007813 0.035156-0.015625 0.046875-0.015625 0.03125 0 0.054688 0.015625 0.078125 0.046875 0.019531 0.023437 0.03125 0.054687 0.03125 0.09375 0 0.03125-0.011719 0.058594-0.03125 0.078125-0.023437 0.023438-0.046875 0.03125-0.078125 0.03125h-0.046875c-0.011719-0.0078125-0.023437-0.019531-0.03125-0.03125zm0.046875-0.15625c-0.011719 0-0.023438 0.011719-0.03125 0.03125-0.011719 0.011719-0.015625 0.027344-0.015625 0.046875 0 0.011719 0.003906 0.027344 0.015625 0.046875 0.007812 0.011719 0.019531 0.015625 0.03125 0.015625 0.019531 0 0.03125-0.0039062 0.03125-0.015625 0.007812-0.0078125 0.015625-0.023438 0.015625-0.046875 0-0.019531-0.007813-0.035156-0.015625-0.046875 0-0.019531-0.011719-0.03125-0.03125-0.03125z"/>
  </symbol>
  <symbol id="b" overflow="visible">
   <path d="m0.14062-0.1875c-0.011719 0-0.023437 0.007812-0.03125 0.015625-0.011719 0.011719-0.015625 0.03125-0.015625 0.0625 0 0.023438 0.0039062 0.039062 0.015625 0.046875 0.007813 0.011719 0.019531 0.015625 0.03125 0.015625 0.019531 0 0.035156-0.0039062 0.046875-0.015625 0.007812-0.0078125 0.015625-0.023438 0.015625-0.046875 0-0.03125-0.007813-0.050781-0.015625-0.0625-0.011719-0.007813-0.027344-0.015625-0.046875-0.015625zm0-0.0625c0.039063 0 0.070313 0.015625 0.09375 0.046875 0.03125 0.023437 0.046875 0.054687 0.046875 0.09375 0 0.03125-0.015625 0.058594-0.046875 0.078125-0.023437 0.023438-0.054687 0.03125-0.09375 0.03125-0.03125 0-0.0625-0.0078125-0.09375-0.03125-0.023438-0.019531-0.03125-0.046875-0.03125-0.078125 0-0.039063 0.0078125-0.070313 0.03125-0.09375 0.03125-0.03125 0.0625-0.046875 0.09375-0.046875z"/>
  </symbol>
  <symbol id="h" overflow="visible">
   <path d="m0.23438-0.23438v0.0625h-0.046875c0-0.007813-0.011719-0.015625-0.03125-0.015625-0.011719 0-0.027344 0.011719-0.046875 0.03125-0.011719 0.011719-0.015625 0.027344-0.015625 0.046875 0 0.011719 0.0039062 0.027344 0.015625 0.046875 0.019531 0.011719 0.035156 0.015625 0.046875 0.015625h0.046875c0.007813-0.0078125 0.019531-0.015625 0.03125-0.015625v0.0625h-0.046875-0.03125c-0.042969 0-0.078125-0.0078125-0.10938-0.03125-0.023438-0.019531-0.03125-0.046875-0.03125-0.078125 0-0.039063 0.0078125-0.070313 0.03125-0.09375 0.03125-0.03125 0.066406-0.046875 0.10938-0.046875 0.007812 0 0.019531 0.007812 0.03125 0.015625h0.046875z"/>
  </symbol>
  <symbol id="g" overflow="visible">
   <path d="m0.28125-0.14062v0.14062h-0.09375v-0.10938-0.03125-0.03125h-0.015625c0-0.007813-0.007813-0.015625-0.015625-0.015625-0.011719 0-0.023438 0.011719-0.03125 0.03125-0.011719 0.011719-0.015625 0.027344-0.015625 0.046875v0.10938h-0.078125v-0.23438h0.078125v0.03125l0.03125-0.03125c0.019531-0.007813 0.035156-0.015625 0.046875-0.015625 0.03125 0 0.050781 0.011719 0.0625 0.03125 0.019531 0.023438 0.03125 0.046875 0.03125 0.078125z"/>
  </symbol>
  <symbol id="s" overflow="visible">
   <path d="m0.21875-0.23438v0.0625c-0.023438-0.007813-0.042969-0.015625-0.0625-0.015625h-0.03125-0.03125v0.015625 0.03125h0.03125 0.015625c0.03125 0 0.050781 0.007813 0.0625 0.015625 0.019531 0.011719 0.03125 0.03125 0.03125 0.0625 0 0.023438-0.011719 0.039062-0.03125 0.046875-0.011719 0.011719-0.039063 0.015625-0.078125 0.015625h-0.0625-0.03125v-0.0625c0.0078125 0.011719 0.019531 0.015625 0.03125 0.015625h0.0625 0.015625c0.007813 0 0.015625-0.0039062 0.015625-0.015625 0-0.0078125-0.007812-0.015625-0.015625-0.015625 0-0.0078125-0.007813-0.015625-0.015625-0.015625h-0.015625c-0.03125 0-0.058594-0.0039062-0.078125-0.015625-0.011719-0.019531-0.015625-0.039063-0.015625-0.0625 0-0.019531 0.0078125-0.035156 0.03125-0.046875 0.019531-0.019531 0.046875-0.03125 0.078125-0.03125 0.007812 0 0.019531 0.007812 0.03125 0.015625h0.0625z"/>
  </symbol>
  <symbol id="r" overflow="visible">
   <path d="m0.1875-0.32812v0.046875h-0.046875s-0.007813 0.007812-0.015625 0.015625v0.015625 0.015625h0.0625v0.046875h-0.0625v0.1875h-0.078125v-0.1875h-0.046875v-0.046875h0.046875v-0.015625c0-0.03125 0.0039062-0.050781 0.015625-0.0625 0.019531-0.007812 0.046875-0.015625 0.078125-0.015625z"/>
  </symbol>
  <symbol id="q" overflow="visible">
   <path d="m0.25-0.1875c0.007812-0.019531 0.019531-0.035156 0.03125-0.046875 0.019531-0.007813 0.035156-0.015625 0.046875-0.015625 0.03125 0 0.050781 0.011719 0.0625 0.03125 0.019531 0.023438 0.03125 0.046875 0.03125 0.078125v0.14062h-0.078125v-0.125-0.015625c0-0.007813-0.007812-0.019531-0.015625-0.03125 0-0.007813-0.007813-0.015625-0.015625-0.015625-0.011719 0-0.023438 0.011719-0.03125 0.03125-0.011719 0.011719-0.015625 0.027344-0.015625 0.046875v0.10938h-0.078125v-0.125c0-0.019531-0.007812-0.035156-0.015625-0.046875 0-0.007813-0.007813-0.015625-0.015625-0.015625-0.011719 0-0.023438 0.011719-0.03125 0.03125-0.011719 0.011719-0.015625 0.027344-0.015625 0.046875v0.10938h-0.078125v-0.23438h0.078125v0.03125l0.03125-0.03125c0.007813-0.007813 0.023437-0.015625 0.046875-0.015625 0.007812 0 0.019531 0.007812 0.03125 0.015625 0.019531 0.011719 0.03125 0.027344 0.03125 0.046875z"/>
  </symbol>
  <symbol id="p" overflow="visible">
   <path d="m0.28125-0.14062v0.14062h-0.09375v-0.10938-0.03125-0.03125h-0.015625c0-0.007813-0.007813-0.015625-0.015625-0.015625-0.011719 0-0.023438 0.011719-0.03125 0.03125-0.011719 0.011719-0.015625 0.027344-0.015625 0.046875v0.10938h-0.078125v-0.32812h0.078125v0.125l0.03125-0.03125c0.019531-0.007813 0.035156-0.015625 0.046875-0.015625 0.03125 0 0.050781 0.011719 0.0625 0.03125 0.019531 0.023438 0.03125 0.046875 0.03125 0.078125z"/>
  </symbol>
  <symbol id="o" overflow="visible">
   <path d="m0.046875-0.3125h0.078125l0.125 0.21875v-0.21875h0.078125v0.3125h-0.09375l-0.125-0.21875v0.21875h-0.0625z"/>
  </symbol>
  <symbol id="n" overflow="visible">
   <path d="m0.03125-0.09375v-0.14062h0.078125v0.015625 0.0625 0.03125 0.046875 0.015625c0.007813 0 0.015625 0.0078125 0.015625 0.015625h0.015625c0.019531 0 0.03125-0.0039062 0.03125-0.015625 0.007813-0.019531 0.015625-0.039062 0.015625-0.0625v-0.10938h0.078125v0.23438h-0.078125v-0.03125c-0.011719 0.011719-0.023438 0.023438-0.03125 0.03125h-0.046875c-0.023438 0-0.042969-0.0039062-0.0625-0.015625-0.011719-0.019531-0.015625-0.046875-0.015625-0.078125z"/>
  </symbol>
  <symbol id="m" overflow="visible">
   <path d="m0.046875-0.3125h0.125c0.039063 0 0.070313 0.011719 0.09375 0.03125 0.019531 0.011719 0.03125 0.039062 0.03125 0.078125 0 0.03125-0.011719 0.058594-0.03125 0.078125-0.023437 0.011719-0.054687 0.015625-0.09375 0.015625h-0.046875v0.10938h-0.078125zm0.078125 0.0625v0.078125h0.046875 0.03125c0.007813-0.007813 0.015625-0.019531 0.015625-0.03125 0-0.019531-0.007812-0.03125-0.015625-0.03125-0.011719-0.007813-0.023437-0.015625-0.03125-0.015625z"/>
  </symbol>
  <symbol id="l" overflow="visible">
   <path d="m0.03125-0.23438h0.078125v0.23438c0 0.03125-0.011719 0.050781-0.03125 0.0625-0.011719 0.019531-0.03125 0.03125-0.0625 0.03125h-0.03125v-0.046875h0.015625c0.0078125 0 0.015625-0.0078125 0.015625-0.015625 0.0078125 0 0.015625-0.011719 0.015625-0.03125zm0-0.09375h0.078125v0.0625h-0.078125z"/>
  </symbol>
 </defs>
 <g>
  <path d="m78.02 247.51 528.96-168.05c7.9453-2.5312 15.523 4.7461 13.328 12.785l-92.547 338.59c-1.6367 5.9805-8.0625 9.2539-13.863 7.0547l-186.88-70.68c-7.3477-2.7812-9.168-12.355-3.3438-17.629l146.6-132.83c9.0117-8.1602-0.71484-22.562-11.656-17.238l-245.41 119.36c-2.6875 1.3086-5.7969 1.4062-8.5625 0.27734l-127.41-51.883c-9.1055-3.7148-8.5898-16.781 0.78516-19.754zm294.04 28.629c4.6016-3.9961-0.50781-11.199-5.8086-8.1836l-116.95 63.867c-10.547 6.0039-15.5 18.531-11.914 30.129l36.125 121.62c1.8359 6.1602 9.5703 8.1484 14.145 3.6367l72.102-68.25c2.9453-2.9102 2.0078-7.8828-1.8008-9.5039l-74.816-37.289c-4.1094-2.0508-4.918-7.5547-1.5859-10.699l90.496-85.328z"/>
  <use x="70" y="561.292969" xlink:href="#t"/>
  <use x="70.316406" y="561.292969" xlink:href="#a"/>
  <use x="70.527344" y="561.292969" xlink:href="#d"/>
  <use x="70.820312" y="561.292969" xlink:href="#f"/>
  <use x="71.113281" y="561.292969" xlink:href="#c"/>
  <use x="71.316406" y="561.292969" xlink:href="#d"/>
  <use x="71.609375" y="561.292969" xlink:href="#k"/>
  <use x="72.066406" y="561.292969" xlink:href="#j"/>
  <use x="72.375" y="561.292969" xlink:href="#i"/>
  <use x="72.808594" y="561.292969" xlink:href="#e"/>
  <use x="73.117188" y="561.292969" xlink:href="#b"/>
  <use x="73.410156" y="561.292969" xlink:href="#e"/>
  <use x="73.71875" y="561.292969" xlink:href="#h"/>
  <use x="73.976562" y="561.292969" xlink:href="#b"/>
  <use x="74.269531" y="561.292969" xlink:href="#a"/>
  <use x="74.484375" y="561.292969" xlink:href="#g"/>
  <use x="74.789062" y="561.292969" xlink:href="#f"/>
  <use x="75.082031" y="561.292969" xlink:href="#a"/>
  <use x="75.292969" y="561.292969" xlink:href="#c"/>
  <use x="75.5" y="561.292969" xlink:href="#s"/>
  <use x="70" y="561.722656" xlink:href="#r"/>
  <use x="70.1875" y="561.722656" xlink:href="#a"/>
  <use x="70.398438" y="561.722656" xlink:href="#b"/>
  <use x="70.695312" y="561.722656" xlink:href="#q"/>
  <use x="71.292969" y="561.722656" xlink:href="#c"/>
  <use x="71.5" y="561.722656" xlink:href="#p"/>
  <use x="71.808594" y="561.722656" xlink:href="#d"/>
  <use x="72.25" y="561.722656" xlink:href="#o"/>
  <use x="72.609375" y="561.722656" xlink:href="#b"/>
  <use x="72.90625" y="561.722656" xlink:href="#n"/>
  <use x="73.210938" y="561.722656" xlink:href="#g"/>
  <use x="73.667969" y="561.722656" xlink:href="#m"/>
  <use x="73.984375" y="561.722656" xlink:href="#a"/>
  <use x="74.195312" y="561.722656" xlink:href="#b"/>
  <use x="74.492188" y="561.722656" xlink:href="#l"/>
  <use x="74.640625" y="561.722656" xlink:href="#d"/>
  <use x="74.933594" y="561.722656" xlink:href="#h"/>
  <use x="75.1875" y="561.722656" xlink:href="#c"/>
 </g>
</svg>
